<?xml version="1.0" standalone="no"?>
<!DOCTYPE svg PUBLIC "-//W3C//DTD SVG 1.1//EN" "http://www.w3.org/Graphics/SVG/1.1/DTD/svg11.dtd" >
<svg>
<metadata>
Created by FontForge 20120731 at Wed Jan 20 23:16:29 2016
 By ,,,
Copyright (c) 2015 by Eduardo Manso. All rights reserved.
</metadata>
<defs>
<font id="Geogrotesque-RgIt" horiz-adv-x="315" >
  <font-face 
    font-family="Geogrotesque-RgIt"
    font-weight="400"
    font-style="italic"
    font-stretch="normal"
    units-per-em="1000"
    panose-1="0 0 0 0 0 0 0 0 0 0"
    ascent="800"
    descent="-200"
    x-height="494"
    cap-height="680"
    bbox="-182.25 -221.5 1419 964"
    underline-thickness="47"
    underline-position="-102"
    slope="-7"
    unicode-range="U+0020-FF19"
  />
<missing-glyph horiz-adv-x="859" 
d="M715 94q-51 -50 -115.5 -76t-133.5 -26q-66 0 -131 26t-115 76q-51 50 -77 115t-26 132q0 66 26 131t77 116q50 50 115 76t131 26q67 0 133 -26t116 -76t76.5 -115.5t26.5 -131.5q0 -68 -26.5 -132.5t-76.5 -114.5zM703 106q49 49 74 110.5t25 124.5t-25 124.5t-74 110.5
t-111 73.5t-126 24.5q-63 0 -124 -24.5t-110 -73.5t-74 -110.5t-25 -124.5t25 -124.5t74 -110.5t110 -73.5t124 -24.5q65 0 126.5 24.5t110.5 73.5zM585 183l-118 118l-117 -117q-5 -5 -10 -5t-10 5l-21 21q-6 6 -5.5 10.5t5.5 9.5l117 117l-116 117q-6 6 -6 10.5t5 10.5
l20 21q5 5 10.5 5.5t10.5 -5.5l117 -118l118 117q6 6 11 6.5t10 -4.5l21 -20q6 -5 6 -11t-6 -11l-119 -118l118 -118q6 -6 6 -10.5t-6 -10.5l-20 -20q-5 -5 -10.5 -5t-10.5 5z" />
    <glyph glyph-name="fi" unicode="fi" horiz-adv-x="543" 
d="M489 477l-57 -462q-1 -7 -5 -11t-11 -4h-41q-7 0 -10.5 4t-2.5 11l52 420h-224l-78 -626q-1 -8 -4.5 -11.5t-11.5 -3.5h-40q-7 0 -10.5 3.5t-2.5 11.5l78 626h-63q-8 0 -10.5 4t-1.5 11l2 24q1 7 4.5 10.5t11.5 4.5l54 3h9l10 78q7 57 51 93t147 36h146q8 0 11 -3.5
t2 -11.5l-3 -29q-1 -8 -5 -11.5t-11 -3.5h-143q-67 0 -95 -21t-32 -56l-9 -71h279q8 0 11.5 -3.5t2.5 -11.5z" />
    <glyph glyph-name="fl" unicode="fl" horiz-adv-x="543" 
d="M514 684l-82 -669q-1 -7 -5 -11t-11 -4h-41q-7 0 -10.5 4t-2.5 11l78 625h-108q-67 0 -95 -21t-32 -56l-9 -71h108q8 0 11.5 -3.5t2.5 -10.5l-3 -28q-1 -7 -5 -11t-11 -4h-109l-78 -626q-1 -8 -4.5 -11.5t-11.5 -3.5h-40q-7 0 -10.5 3.5t-2.5 11.5l78 626h-63
q-8 0 -10.5 4t-1.5 11l2 24q1 7 4.5 10.5t11.5 4.5l54 3h9l10 78q7 57 50.5 93t147.5 36h165q8 0 11.5 -3.5t2.5 -11.5z" />
    <glyph glyph-name=".notdef" horiz-adv-x="859" 
d="M715 94q-51 -50 -115.5 -76t-133.5 -26q-66 0 -131 26t-115 76q-51 50 -77 115t-26 132q0 66 26 131t77 116q50 50 115 76t131 26q67 0 133 -26t116 -76t76.5 -115.5t26.5 -131.5q0 -68 -26.5 -132.5t-76.5 -114.5zM703 106q49 49 74 110.5t25 124.5t-25 124.5t-74 110.5
t-111 73.5t-126 24.5q-63 0 -124 -24.5t-110 -73.5t-74 -110.5t-25 -124.5t25 -124.5t74 -110.5t110 -73.5t124 -24.5q65 0 126.5 24.5t110.5 73.5zM585 183l-118 118l-117 -117q-5 -5 -10 -5t-10 5l-21 21q-6 6 -5.5 10.5t5.5 9.5l117 117l-116 117q-6 6 -6 10.5t5 10.5
l20 21q5 5 10.5 5.5t10.5 -5.5l117 -118l118 117q6 6 11 6.5t10 -4.5l21 -20q6 -5 6 -11t-6 -11l-119 -118l118 -118q6 -6 6 -10.5t-6 -10.5l-20 -20q-5 -5 -10.5 -5t-10.5 5z" />
    <glyph glyph-name="space" unicode=" " horiz-adv-x="224" 
 />
    <glyph glyph-name="uni00A0" unicode="&#xa0;" horiz-adv-x="224" 
 />
    <glyph glyph-name="A" unicode="A" horiz-adv-x="532" 
d="M359 250l-44 234q-6 31 -8 66.5t-3 56.5q-1 -6 -5.5 -21t-10 -33t-12 -36.5t-11.5 -30.5l-103 -236h197zM293 680h43q7 0 11 -4t5 -11l120 -650q1 -7 -2 -11t-10 -4h-43q-8 0 -12 4t-5 11l-32 178h-229l-77 -178q-3 -7 -7 -11t-11 -4h-41q-8 0 -10.5 4t0.5 11l279 650
q3 7 8 11t13 4z" />
    <glyph glyph-name="Agrave" unicode="&#xc0;" horiz-adv-x="532" 
d="M359 250l-44 234q-6 31 -8 66.5t-3 56.5q-1 -6 -5.5 -21t-10 -33t-12 -36.5t-11.5 -30.5l-103 -236h197zM293 680h43q7 0 11 -4t5 -11l120 -650q1 -7 -2 -11t-10 -4h-43q-8 0 -12 4t-5 11l-32 178h-229l-77 -178q-3 -7 -7 -11t-11 -4h-41q-8 0 -10.5 4t0.5 11l279 650
q3 7 8 11t13 4zM274 747l-65 116q-3 6 -0.5 10.5t10.5 4.5h42q8 0 12 -3.5t7 -9.5l52 -113q3 -7 0.5 -10.5t-9.5 -3.5h-32q-7 0 -11 2.5t-6 6.5z" />
    <glyph glyph-name="Aacute" unicode="&#xc1;" horiz-adv-x="532" 
d="M359 250l-44 234q-6 31 -8 66.5t-3 56.5q-1 -6 -5.5 -21t-10 -33t-12 -36.5t-11.5 -30.5l-103 -236h197zM293 680h43q7 0 11 -4t5 -11l120 -650q1 -7 -2 -11t-10 -4h-43q-8 0 -12 4t-5 11l-32 178h-229l-77 -178q-3 -7 -7 -11t-11 -4h-41q-8 0 -10.5 4t0.5 11l279 650
q3 7 8 11t13 4zM444 863l-92 -116q-3 -3 -7.5 -6t-11.5 -3h-35q-7 0 -9 3.5t3 10.5l81 112q4 6 9 10t12 4h45q8 0 9 -4.5t-4 -10.5z" />
    <glyph glyph-name="Acircumflex" unicode="&#xc2;" horiz-adv-x="532" 
d="M359 250l-44 234q-6 31 -8 66.5t-3 56.5q-1 -6 -5.5 -21t-10 -33t-12 -36.5t-11.5 -30.5l-103 -236h197zM293 680h43q7 0 11 -4t5 -11l120 -650q1 -7 -2 -11t-10 -4h-43q-8 0 -12 4t-5 11l-32 178h-229l-77 -178q-3 -7 -7 -11t-11 -4h-41q-8 0 -10.5 4t0.5 11l279 650
q3 7 8 11t13 4zM325 834l-63 -82q-4 -5 -9 -9.5t-12 -4.5h-33q-8 0 -9.5 4t2.5 10l90 111q5 6 11.5 10.5t14.5 4.5h25q8 0 12.5 -4t8.5 -10l64 -112q4 -6 1 -10t-10 -4h-31q-7 0 -12 4t-8 10z" />
    <glyph glyph-name="Atilde" unicode="&#xc3;" horiz-adv-x="532" 
d="M359 250l-44 234q-6 31 -8 66.5t-3 56.5q-1 -6 -5.5 -21t-10 -33t-12 -36.5t-11.5 -30.5l-103 -236h197zM293 680h43q7 0 11 -4t5 -11l120 -650q1 -7 -2 -11t-10 -4h-43q-8 0 -12 4t-5 11l-32 178h-229l-77 -178q-3 -7 -7 -11t-11 -4h-41q-8 0 -10.5 4t0.5 11l279 650
q3 7 8 11t13 4zM244 819q-15 0 -20.5 -9.5t-9.5 -31.5l-3 -15q-1 -7 -5.5 -10t-11.5 -3h-21q-7 0 -9.5 5t-1.5 12l5 24q9 43 29 62t50 19q13 0 27.5 -5t27.5 -15l41 -32q8 -7 16.5 -11.5t15.5 -4.5q16 0 22.5 9.5t9.5 37.5l1 9q1 7 5.5 10t11.5 3h22q8 0 10 -4.5t1 -12.5
l-3 -24q-6 -45 -29.5 -63t-51.5 -18q-17 0 -30 5.5t-26 15.5l-41 32q-8 7 -16 11t-16 4z" />
    <glyph glyph-name="Adieresis" unicode="&#xc4;" horiz-adv-x="532" 
d="M359 250l-44 234q-6 31 -8 66.5t-3 56.5q-1 -6 -5.5 -21t-10 -33t-12 -36.5t-11.5 -30.5l-103 -236h197zM293 680h43q7 0 11 -4t5 -11l120 -650q1 -7 -2 -11t-10 -4h-43q-8 0 -12 4t-5 11l-32 178h-229l-77 -178q-3 -7 -7 -11t-11 -4h-41q-8 0 -10.5 4t0.5 11l279 650
q3 7 8 11t13 4zM408 856l-12 -97q-1 -8 -5 -11.5t-11 -3.5h-25q-7 0 -10 3.5t-2 11.5l12 97q1 7 5 10.5t11 3.5h25q7 0 10 -3.5t2 -10.5zM301 856l-12 -97q-1 -8 -5 -11.5t-11 -3.5h-25q-7 0 -10 3.5t-2 11.5l11 97q1 7 5.5 10.5t11.5 3.5h25q7 0 10 -3.5t2 -10.5z" />
    <glyph glyph-name="Aring" unicode="&#xc5;" horiz-adv-x="532" 
d="M359 250l-44 234q-6 31 -8 66.5t-3 56.5q-1 -6 -5.5 -21t-10 -33t-12 -36.5t-11.5 -30.5l-103 -236h197zM293 680h43q7 0 11 -4t5 -11l120 -650q1 -7 -2 -11t-10 -4h-43q-8 0 -12 4t-5 11l-32 178h-229l-77 -178q-3 -7 -7 -11t-11 -4h-41q-8 0 -10.5 4t0.5 11l279 650
q3 7 8 11t13 4zM416 813l-2 -26q-2 -29 -25.5 -47.5t-71.5 -18.5t-69.5 17.5t-18.5 54.5l2 26q2 29 26.5 48.5t73.5 19.5q47 0 67.5 -19.5t17.5 -54.5zM374 794l1 20q1 15 -9 25.5t-39 10.5q-28 0 -41.5 -10.5t-14.5 -26.5l-1 -15q-1 -22 9 -31.5t38 -9.5t42 10t15 27z" />
    <glyph glyph-name="Amacron" unicode="&#x100;" horiz-adv-x="532" 
d="M359 250l-44 234q-6 31 -8 66.5t-3 56.5q-1 -6 -5.5 -21t-10 -33t-12 -36.5t-11.5 -30.5l-103 -236h197zM293 680h43q7 0 11 -4t5 -11l120 -650q1 -7 -2 -11t-10 -4h-43q-8 0 -12 4t-5 11l-32 178h-229l-77 -178q-3 -7 -7 -11t-11 -4h-41q-8 0 -10.5 4t0.5 11l279 650
q3 7 8 11t13 4zM190 827h251q7 0 10.5 -3.5t2.5 -10.5l-2 -26q-1 -7 -5.5 -10.5t-11.5 -3.5h-251q-7 0 -10.5 3.5t-2.5 10.5l2 25q1 8 5.5 11.5t11.5 3.5z" />
    <glyph glyph-name="Abreve" unicode="&#x102;" horiz-adv-x="532" 
d="M359 250l-44 234q-6 31 -8 66.5t-3 56.5q-1 -6 -5.5 -21t-10 -33t-12 -36.5t-11.5 -30.5l-103 -236h197zM293 680h43q7 0 11 -4t5 -11l120 -650q1 -7 -2 -11t-10 -4h-43q-8 0 -12 4t-5 11l-32 178h-229l-77 -178q-3 -7 -7 -11t-11 -4h-41q-8 0 -10.5 4t0.5 11l279 650
q3 7 8 11t13 4zM255 871l-2 -22q-1 -6 -1 -9v-4q0 -24 13.5 -37t48.5 -13q43 0 57.5 20.5t16.5 51.5l1 13q1 7 4.5 10t11.5 3h25q7 0 9.5 -3t1.5 -10l-1 -12q-4 -54 -32 -85.5t-97 -31.5q-55 0 -83 23t-28 66v7.5t1 11.5l2 21q1 7 4.5 10t10.5 3h25q7 0 10 -3t2 -10z" />
    <glyph glyph-name="Aogonek" unicode="&#x104;" horiz-adv-x="531" 
d="M292 680h43q7 0 11.5 -4t5.5 -11l120 -650q1 -7 -2 -11t-10 -4h-16q-37 -4 -50 -25.5t-13 -41.5t13 -29t38 -9h27q7 0 11 -3.5t3 -10.5l-2 -20q-1 -8 -6 -11.5t-12 -3.5h-39q-32 0 -59.5 15.5t-27.5 58.5q0 19 14 51.5t56 57.5l-30 164h-229l-77 -178q-3 -7 -6.5 -11
t-11.5 -4h-40q-9 0 -11 4t1 11l278 650q3 7 8.5 11t12.5 4zM358 250l-43 234q-4 19 -7 58t-4 65q-5 -19 -18 -59.5t-22 -61.5l-102 -236h196z" />
    <glyph glyph-name="Aringacute" unicode="&#x1fa;" horiz-adv-x="531" 
d="M314 721q-49 0 -70.5 19t-17.5 53l3 26q3 26 22 44.5t56 22.5l46 65q4 5 8.5 9t12.5 4h44q9 0 10 -4t-4 -11l-56 -68q26 -7 36.5 -23.5t8.5 -44.5l-2 -26q-2 -29 -25.5 -47.5t-71.5 -18.5zM371 794l1 12q2 26 -11 35t-37 9q-28 0 -41 -10.5t-15 -26.5l-2 -13
q-3 -22 8.5 -32.5t39.5 -10.5t42 10t15 27zM359 250l-44 234q-6 31 -8 66.5t-3 56.5q-1 -6 -5.5 -21t-10 -33t-12 -36.5t-11.5 -30.5l-103 -236h197zM293 680h43q7 0 11 -4t5 -11l120 -650q1 -7 -2 -11t-10 -4h-43q-8 0 -12 4t-5 11l-32 178h-229l-77 -178q-3 -7 -7 -11
t-11 -4h-41q-8 0 -10.5 4t0.5 11l279 650q3 7 8 11t13 4z" />
    <glyph glyph-name="B" unicode="B" horiz-adv-x="581" 
d="M272 0h-201q-6 0 -10.5 3t-3.5 12l80 650q1 7 5.5 11t11.5 4h170q110 0 155.5 -35.5t45.5 -88.5v-8.5t-1 -13.5l-7 -62q-4 -43 -29 -72t-76 -44q53 -13 78.5 -42.5t25.5 -66.5v-8.5t-1 -11.5l-10 -86q-7 -59 -57.5 -100t-175.5 -41zM320 621h-117l-30 -243h126
q72 0 107.5 26t40.5 69l6 52q1 7 1 10.5v7.5q0 37 -31 57.5t-103 20.5zM310 322h-144l-32 -263h143q79 0 116 25.5t42 68.5l9 70q1 7 1 10.5v7.5q0 35 -30 58t-105 23z" />
    <glyph glyph-name="C" unicode="C" horiz-adv-x="553" 
d="M490 202l-8 -64q-7 -60 -55 -103t-173 -43q-110 0 -153 36.5t-43 88.5q0 5 0.5 11.5t1.5 12.5l49 401q7 60 54.5 103t172.5 43q110 0 153 -36.5t43 -88.5v-10t-1 -14l-6 -48q-1 -8 -4.5 -12t-11.5 -4h-41q-7 0 -10 4.5t-2 11.5l5 37q1 7 1 11v8q0 37 -29.5 58.5
t-101.5 21.5q-79 0 -113 -26.5t-39 -69.5l-46 -378q-1 -5 -1 -10.5v-9.5q0 -37 28.5 -58.5t100.5 -21.5q79 0 113.5 26.5t39.5 69.5l6 53q1 7 5 11t12 4h40q8 0 11 -4t2 -11z" />
    <glyph glyph-name="Ccedilla" unicode="&#xc7;" horiz-adv-x="552" 
d="M344 -123q0 -49 -29 -68.5t-64 -19.5h-116q-9 0 -11 4.5t-1 10.5l2 15q1 7 4.5 10.5t10.5 3.5h106q17 0 32 7.5t15 32.5q0 18 -12.5 24t-25.5 6h-61q-10 0 -16 4.5t-2 14.5l29 72q-81 9 -114 43t-33 80q0 5 0.5 11.5t1.5 12.5l49 401q7 60 54.5 103t172.5 43
q110 0 153 -36.5t43 -88.5v-10t-1 -14l-6 -48q-1 -8 -4.5 -12t-11.5 -4h-41q-7 0 -10 4.5t-2 11.5l5 37q1 7 1 11v8q0 37 -29.5 58.5t-101.5 21.5q-79 0 -113 -26.5t-39 -69.5l-46 -378q-1 -5 -1 -10.5v-9.5q0 -37 28.5 -58.5t100.5 -21.5q79 0 113.5 26.5t39.5 69.5l6 53
q1 7 5 11t12 4h40q8 0 11 -4t2 -11l-8 -64q-7 -60 -55 -103t-173 -43h-2l-18 -45h36q28 0 51 -16.5t23 -53.5z" />
    <glyph glyph-name="Cacute" unicode="&#x106;" horiz-adv-x="553" 
d="M490 202l-8 -64q-7 -60 -55 -103t-173 -43q-110 0 -153 36.5t-43 88.5q0 5 0.5 11.5t1.5 12.5l49 401q7 60 54.5 103t172.5 43q110 0 153 -36.5t43 -88.5v-10t-1 -14l-6 -48q-1 -8 -4.5 -12t-11.5 -4h-41q-7 0 -10 4.5t-2 11.5l5 37q1 7 1 11v8q0 37 -29.5 58.5
t-101.5 21.5q-79 0 -113 -26.5t-39 -69.5l-46 -378q-1 -5 -1 -10.5v-9.5q0 -37 28.5 -58.5t100.5 -21.5q79 0 113.5 26.5t39.5 69.5l6 53q1 7 5 11t12 4h40q8 0 11 -4t2 -11zM469 863l-92 -116q-3 -3 -7.5 -6t-11.5 -3h-35q-7 0 -9 3.5t3 10.5l81 112q4 6 9 10t12 4h45
q8 0 9 -4.5t-4 -10.5z" />
    <glyph glyph-name="Ccircumflex" unicode="&#x108;" horiz-adv-x="553" 
d="M490 202l-8 -64q-7 -60 -55 -103t-173 -43q-110 0 -153 36.5t-43 88.5q0 5 0.5 11.5t1.5 12.5l49 401q7 60 54.5 103t172.5 43q110 0 153 -36.5t43 -88.5v-10t-1 -14l-6 -48q-1 -8 -4.5 -12t-11.5 -4h-41q-7 0 -10 4.5t-2 11.5l5 37q1 7 1 11v8q0 37 -29.5 58.5
t-101.5 21.5q-79 0 -113 -26.5t-39 -69.5l-46 -378q-1 -5 -1 -10.5v-9.5q0 -37 28.5 -58.5t100.5 -21.5q79 0 113.5 26.5t39.5 69.5l6 53q1 7 5 11t12 4h40q8 0 11 -4t2 -11zM352 834l-63 -82q-4 -5 -9 -9.5t-12 -4.5h-33q-8 0 -9.5 4t2.5 10l90 111q5 6 11.5 10.5t14.5 4.5
h25q8 0 12.5 -4t8.5 -10l64 -112q4 -6 1 -10t-10 -4h-31q-7 0 -12 4t-8 10z" />
    <glyph glyph-name="Cdotaccent" unicode="&#x10a;" horiz-adv-x="553" 
d="M389 839l-9 -79q-1 -7 -4.5 -10.5t-10.5 -3.5h-42q-8 0 -11 3t-2 11l9 79q1 7 5 10.5t11 3.5h42q7 0 10 -3.5t2 -10.5zM490 202l-8 -64q-7 -60 -55 -103t-173 -43q-110 0 -153 36.5t-43 88.5q0 5 0.5 11.5t1.5 12.5l49 401q7 60 54.5 103t172.5 43q110 0 153 -36.5
t43 -88.5v-10t-1 -14l-6 -48q-1 -8 -4.5 -12t-11.5 -4h-41q-7 0 -10 4.5t-2 11.5l5 37q1 7 1 11v8q0 37 -29.5 58.5t-101.5 21.5q-79 0 -113 -26.5t-39 -69.5l-46 -378q-1 -5 -1 -10.5v-9.5q0 -37 28.5 -58.5t100.5 -21.5q79 0 113.5 26.5t39.5 69.5l6 53q1 7 5 11t12 4h40
q8 0 11 -4t2 -11z" />
    <glyph glyph-name="Ccaron" unicode="&#x10c;" horiz-adv-x="553" 
d="M490 202l-8 -64q-7 -60 -55 -103t-173 -43q-110 0 -153 36.5t-43 88.5q0 5 0.5 11.5t1.5 12.5l49 401q7 60 54.5 103t172.5 43q110 0 153 -36.5t43 -88.5v-10t-1 -14l-6 -48q-1 -8 -4.5 -12t-11.5 -4h-41q-7 0 -10 4.5t-2 11.5l5 37q1 7 1 11v8q0 37 -29.5 58.5
t-101.5 21.5q-79 0 -113 -26.5t-39 -69.5l-46 -378q-1 -5 -1 -10.5v-9.5q0 -37 28.5 -58.5t100.5 -21.5q79 0 113.5 26.5t39.5 69.5l6 53q1 7 5 11t12 4h40q8 0 11 -4t2 -11zM303 863l43 -82l63 82q4 6 9.5 10.5t12.5 4.5h33q7 0 9 -4.5t-3 -10.5l-91 -111q-5 -6 -11 -10
t-14 -4h-25q-7 0 -12.5 4t-9.5 11l-63 110q-4 6 -1 10.5t11 4.5h31q7 0 11 -5t7 -10z" />
    <glyph glyph-name="D" unicode="D" horiz-adv-x="602" 
d="M276 0h-207q-6 0 -9.5 4t-2.5 11l80 650q1 7 5 11t11 4h199q112 0 157.5 -37.5t45.5 -90.5v-10.5t-1 -14.5l-47 -381q-7 -60 -56.5 -103t-174.5 -43zM348 619h-145l-69 -558h145q80 0 116.5 26.5t41.5 69.5l44 360q1 6 1.5 11.5t0.5 8.5q0 38 -30.5 60t-104.5 22z" />
    <glyph glyph-name="Dcaron" unicode="&#x10e;" horiz-adv-x="602" 
d="M276 0h-207q-6 0 -9.5 4t-2.5 11l80 650q1 7 5 11t11 4h199q112 0 157.5 -37.5t45.5 -90.5v-10.5t-1 -14.5l-47 -381q-7 -60 -56.5 -103t-174.5 -43zM348 619h-145l-69 -558h145q80 0 116.5 26.5t41.5 69.5l44 360q1 6 1.5 11.5t0.5 8.5q0 38 -30.5 60t-104.5 22z
M303 863l43 -82l63 82q4 6 9.5 10.5t12.5 4.5h33q7 0 9 -4.5t-3 -10.5l-91 -111q-5 -6 -11 -10t-14 -4h-25q-7 0 -12.5 4t-9.5 11l-63 110q-4 6 -1 10.5t11 4.5h31q7 0 11 -5t7 -10z" />
    <glyph glyph-name="E" unicode="E" horiz-adv-x="521" 
d="M424 0h-354q-7 0 -10.5 4t-2.5 11l80 650q1 7 5.5 11t11.5 4h341q7 0 10.5 -3.5t2.5 -11.5l-4 -31q-1 -8 -5 -11.5t-11 -3.5h-285l-28 -233h267q7 0 10 -3.5t2 -11.5l-3 -29q-1 -8 -5.5 -11.5t-11.5 -3.5h-267l-33 -266h296q8 0 11.5 -3.5t2.5 -10.5l-4 -32
q-1 -8 -4.5 -11.5t-11.5 -3.5z" />
    <glyph glyph-name="Egrave" unicode="&#xc8;" horiz-adv-x="520" 
d="M293 747l-65 116q-3 6 -0.5 10.5t10.5 4.5h42q8 0 12 -3.5t7 -9.5l52 -113q3 -7 0.5 -10.5t-9.5 -3.5h-32q-7 0 -11 2.5t-6 6.5zM424 0h-354q-7 0 -10.5 4t-2.5 11l80 650q1 7 5.5 11t11.5 4h341q7 0 10.5 -3.5t2.5 -11.5l-4 -31q-1 -8 -5 -11.5t-11 -3.5h-285l-28 -233
h267q7 0 10 -3.5t2 -11.5l-3 -29q-1 -8 -5.5 -11.5t-11.5 -3.5h-267l-33 -266h296q8 0 11.5 -3.5t2.5 -10.5l-4 -32q-1 -8 -4.5 -11.5t-11.5 -3.5z" />
    <glyph glyph-name="Eacute" unicode="&#xc9;" horiz-adv-x="520" 
d="M424 0h-354q-7 0 -10.5 4t-2.5 11l80 650q1 7 5.5 11t11.5 4h341q7 0 10.5 -3.5t2.5 -11.5l-4 -31q-1 -8 -5 -11.5t-11 -3.5h-285l-28 -233h267q7 0 10 -3.5t2 -11.5l-3 -29q-1 -8 -5.5 -11.5t-11.5 -3.5h-267l-33 -266h296q8 0 11.5 -3.5t2.5 -10.5l-4 -32
q-1 -8 -4.5 -11.5t-11.5 -3.5zM447 863l-92 -116q-3 -3 -7.5 -6t-11.5 -3h-35q-7 0 -9 3.5t3 10.5l81 112q4 6 9 10t12 4h45q8 0 9 -4.5t-4 -10.5z" />
    <glyph glyph-name="Ecircumflex" unicode="&#xca;" horiz-adv-x="520" 
d="M339 834l-63 -82q-4 -5 -9 -9.5t-12 -4.5h-33q-8 0 -9.5 4t2.5 10l90 111q5 6 11.5 10.5t14.5 4.5h25q8 0 12.5 -4t8.5 -10l64 -112q4 -6 1 -10t-10 -4h-31q-7 0 -12 4t-8 10zM424 0h-354q-7 0 -10.5 4t-2.5 11l80 650q1 7 5.5 11t11.5 4h341q7 0 10.5 -3.5t2.5 -11.5
l-4 -31q-1 -8 -5 -11.5t-11 -3.5h-285l-28 -233h267q7 0 10 -3.5t2 -11.5l-3 -29q-1 -8 -5.5 -11.5t-11.5 -3.5h-267l-33 -266h296q8 0 11.5 -3.5t2.5 -10.5l-4 -32q-1 -8 -4.5 -11.5t-11.5 -3.5z" />
    <glyph glyph-name="Edieresis" unicode="&#xcb;" horiz-adv-x="520" 
d="M424 0h-354q-7 0 -10.5 4t-2.5 11l80 650q1 7 5.5 11t11.5 4h341q7 0 10.5 -3.5t2.5 -11.5l-4 -31q-1 -8 -5 -11.5t-11 -3.5h-285l-28 -233h267q7 0 10 -3.5t2 -11.5l-3 -29q-1 -8 -5.5 -11.5t-11.5 -3.5h-267l-33 -266h296q8 0 11.5 -3.5t2.5 -10.5l-4 -32
q-1 -8 -4.5 -11.5t-11.5 -3.5zM427 856l-12 -97q-1 -8 -5 -11.5t-11 -3.5h-25q-7 0 -10 3.5t-2 11.5l12 97q1 7 5 10.5t11 3.5h25q7 0 10 -3.5t2 -10.5zM320 856l-12 -97q-1 -8 -5 -11.5t-11 -3.5h-25q-7 0 -10 3.5t-2 11.5l11 97q1 7 5.5 10.5t11.5 3.5h25q7 0 10 -3.5
t2 -10.5z" />
    <glyph glyph-name="Emacron" unicode="&#x112;" horiz-adv-x="520" 
d="M424 0h-354q-7 0 -10.5 4t-2.5 11l80 650q1 7 5.5 11t11.5 4h341q7 0 10.5 -3.5t2.5 -11.5l-4 -31q-1 -8 -5 -11.5t-11 -3.5h-285l-28 -233h267q7 0 10 -3.5t2 -11.5l-3 -29q-1 -8 -5.5 -11.5t-11.5 -3.5h-267l-33 -266h296q8 0 11.5 -3.5t2.5 -10.5l-4 -32
q-1 -8 -4.5 -11.5t-11.5 -3.5zM206 827h251q7 0 10.5 -3.5t2.5 -10.5l-2 -26q-1 -7 -5.5 -10.5t-11.5 -3.5h-251q-7 0 -10.5 3.5t-2.5 10.5l2 25q1 8 5.5 11.5t11.5 3.5z" />
    <glyph glyph-name="Ebreve" unicode="&#x114;" horiz-adv-x="520" 
d="M424 0h-354q-7 0 -10.5 4t-2.5 11l80 650q1 7 5.5 11t11.5 4h341q7 0 10.5 -3.5t2.5 -11.5l-4 -31q-1 -8 -5 -11.5t-11 -3.5h-285l-28 -233h267q7 0 10 -3.5t2 -11.5l-3 -29q-1 -8 -5.5 -11.5t-11.5 -3.5h-267l-33 -266h296q8 0 11.5 -3.5t2.5 -10.5l-4 -32
q-1 -8 -4.5 -11.5t-11.5 -3.5zM267 871l-2 -22q-1 -6 -1 -9v-4q0 -24 13.5 -37t48.5 -13q43 0 57.5 20.5t16.5 51.5l1 13q1 7 4.5 10t11.5 3h25q7 0 9.5 -3t1.5 -10l-1 -12q-4 -54 -32 -85.5t-97 -31.5q-55 0 -83 23t-28 66v7.5t1 11.5l2 21q1 7 4.5 10t10.5 3h25q7 0 10 -3
t2 -10z" />
    <glyph glyph-name="Edotaccent" unicode="&#x116;" horiz-adv-x="520" 
d="M372 839l-9 -79q-1 -7 -4.5 -10.5t-10.5 -3.5h-42q-8 0 -11 3t-2 11l9 79q1 7 5 10.5t11 3.5h42q7 0 10 -3.5t2 -10.5zM424 0h-354q-7 0 -10.5 4t-2.5 11l80 650q1 7 5.5 11t11.5 4h341q7 0 10.5 -3.5t2.5 -11.5l-4 -31q-1 -8 -5 -11.5t-11 -3.5h-285l-28 -233h267
q7 0 10 -3.5t2 -11.5l-3 -29q-1 -8 -5.5 -11.5t-11.5 -3.5h-267l-33 -266h296q8 0 11.5 -3.5t2.5 -10.5l-4 -32q-1 -8 -4.5 -11.5t-11.5 -3.5z" />
    <glyph glyph-name="Eogonek" unicode="&#x118;" horiz-adv-x="521" 
d="M424 0h-29q-35 0 -49.5 -21.5t-14.5 -43.5q0 -20 13.5 -30t38.5 -10h30q7 0 11.5 -3.5t3.5 -10.5l-2 -20q-1 -8 -6 -11.5t-12 -3.5h-44q-31 0 -59 16t-28 59q0 17 7.5 39.5t26.5 39.5h-241q-7 0 -10.5 4t-2.5 11l80 650q1 7 5.5 11t11.5 4h341q7 0 10.5 -3.5t2.5 -11.5
l-4 -31q-1 -8 -5 -11.5t-11 -3.5h-285l-28 -233h267q7 0 10 -3.5t2 -11.5l-3 -29q-1 -8 -5.5 -11.5t-11.5 -3.5h-267l-33 -266h296q8 0 11.5 -3.5t2.5 -10.5l-4 -32q-1 -8 -4.5 -11.5t-11.5 -3.5z" />
    <glyph glyph-name="Ecaron" unicode="&#x11a;" horiz-adv-x="520" 
d="M424 0h-354q-7 0 -10.5 4t-2.5 11l80 650q1 7 5.5 11t11.5 4h341q7 0 10.5 -3.5t2.5 -11.5l-4 -31q-1 -8 -5 -11.5t-11 -3.5h-285l-28 -233h267q7 0 10 -3.5t2 -11.5l-3 -29q-1 -8 -5.5 -11.5t-11.5 -3.5h-267l-33 -266h296q8 0 11.5 -3.5t2.5 -10.5l-4 -32
q-1 -8 -4.5 -11.5t-11.5 -3.5zM286 863l43 -82l63 82q4 6 9.5 10.5t12.5 4.5h33q7 0 9 -4.5t-3 -10.5l-91 -111q-5 -6 -11 -10t-14 -4h-25q-7 0 -12.5 4t-9.5 11l-63 110q-4 6 -1 10.5t11 4.5h31q7 0 11 -5t7 -10z" />
    <glyph glyph-name="F" unicode="F" horiz-adv-x="532" 
d="M154 680h367q7 0 10.5 -3.5t2.5 -11.5l-4 -31q-1 -8 -5 -11.5t-11 -3.5h-311l-29 -234h292q7 0 10.5 -4t2.5 -11l-4 -32q-1 -7 -5 -11t-11 -4h-292l-39 -308q-1 -7 -4 -11t-11 -4h-42q-7 0 -11 4t-3 11l80 650q1 7 5.5 11t11.5 4z" />
    <glyph glyph-name="G" unicode="G" horiz-adv-x="571" 
d="M302 327h188q9 0 11.5 -3.5t1.5 -10.5l-21 -175q-7 -60 -55 -103t-173 -43q-110 0 -153 36.5t-43 88.5q0 5 0.5 11.5t1.5 12.5l49 401q7 60 54.5 103t172.5 43q110 0 153 -37t43 -90v-9.5t-1 -13.5l-5 -44q-1 -7 -5 -10.5t-12 -3.5h-40q-7 0 -10.5 3.5t-2.5 10.5l5 37
q1 7 1 10.5v6.5q0 36 -29 57.5t-101 21.5q-78 0 -113 -26.5t-40 -69.5l-46 -378q-1 -5 -1.5 -10.5t-0.5 -9.5q0 -37 28.5 -58.5t100.5 -21.5q80 0 114 26t39 69l15 118h-133q-7 0 -10.5 4t-2.5 11l4 32q1 7 5 10.5t11 3.5z" />
    <glyph glyph-name="Gcircumflex" unicode="&#x11c;" horiz-adv-x="571" 
d="M355 834l-63 -82q-4 -5 -9 -9.5t-12 -4.5h-33q-8 0 -9.5 4t2.5 10l90 111q5 6 11.5 10.5t14.5 4.5h25q8 0 12.5 -4t8.5 -10l64 -112q4 -6 1 -10t-10 -4h-31q-7 0 -12 4t-8 10zM302 327h188q9 0 11.5 -3.5t1.5 -10.5l-21 -175q-7 -60 -55 -103t-173 -43q-110 0 -153 36.5
t-43 88.5q0 5 0.5 11.5t1.5 12.5l49 401q7 60 54.5 103t172.5 43q110 0 153 -37t43 -90v-9.5t-1 -13.5l-5 -44q-1 -7 -5 -10.5t-12 -3.5h-40q-7 0 -10.5 3.5t-2.5 10.5l5 37q1 7 1 10.5v6.5q0 36 -29 57.5t-101 21.5q-78 0 -113 -26.5t-40 -69.5l-46 -378q-1 -5 -1.5 -10.5
t-0.5 -9.5q0 -37 28.5 -58.5t100.5 -21.5q80 0 114 26t39 69l15 118h-133q-7 0 -10.5 4t-2.5 11l4 32q1 7 5 10.5t11 3.5z" />
    <glyph glyph-name="Gbreve" unicode="&#x11e;" horiz-adv-x="571" 
d="M302 327h188q9 0 11.5 -3.5t1.5 -10.5l-21 -175q-7 -60 -55 -103t-173 -43q-110 0 -153 36.5t-43 88.5q0 5 0.5 11.5t1.5 12.5l49 401q7 60 54.5 103t172.5 43q110 0 153 -37t43 -90v-9.5t-1 -13.5l-5 -44q-1 -7 -5 -10.5t-12 -3.5h-40q-7 0 -10.5 3.5t-2.5 10.5l5 37
q1 7 1 10.5v6.5q0 36 -29 57.5t-101 21.5q-78 0 -113 -26.5t-40 -69.5l-46 -378q-1 -5 -1.5 -10.5t-0.5 -9.5q0 -37 28.5 -58.5t100.5 -21.5q80 0 114 26t39 69l15 118h-133q-7 0 -10.5 4t-2.5 11l4 32q1 7 5 10.5t11 3.5zM281 871l-2 -22q-1 -6 -1 -9v-4q0 -24 13.5 -37
t48.5 -13q43 0 57.5 20.5t16.5 51.5l1 13q1 7 4.5 10t11.5 3h25q7 0 9.5 -3t1.5 -10l-1 -12q-4 -54 -32 -85.5t-97 -31.5q-55 0 -83 23t-28 66v7.5t1 11.5l2 21q1 7 4.5 10t10.5 3h25q7 0 10 -3t2 -10z" />
    <glyph glyph-name="Gdotaccent" unicode="&#x120;" horiz-adv-x="571" 
d="M376 837l-9 -79q-1 -7 -4.5 -10.5t-10.5 -3.5h-42q-8 0 -11 3t-2 11l9 79q1 7 5 10.5t11 3.5h42q7 0 10 -3.5t2 -10.5zM302 327h188q9 0 11.5 -3.5t1.5 -10.5l-21 -175q-7 -60 -55 -103t-173 -43q-110 0 -153 36.5t-43 88.5q0 5 0.5 11.5t1.5 12.5l49 401q7 60 54.5 103
t172.5 43q110 0 153 -37t43 -90v-9.5t-1 -13.5l-5 -44q-1 -7 -5 -10.5t-12 -3.5h-40q-7 0 -10.5 3.5t-2.5 10.5l5 37q1 7 1 10.5v6.5q0 36 -29 57.5t-101 21.5q-78 0 -113 -26.5t-40 -69.5l-46 -378q-1 -5 -1.5 -10.5t-0.5 -9.5q0 -37 28.5 -58.5t100.5 -21.5q80 0 114 26
t39 69l15 118h-133q-7 0 -10.5 4t-2.5 11l4 32q1 7 5 10.5t11 3.5z" />
    <glyph glyph-name="Gcommaaccent" unicode="&#x122;" horiz-adv-x="571" 
d="M217 -92l4 27q1 7 5.5 11t11.5 4h30q8 0 10.5 -4t1.5 -11l-3 -31q-4 -38 -19 -65t-34 -52q-4 -7 -9 -8t-11 0l-23 6q-7 1 -8 6.5t3 12.5q18 31 27 50.5t14 53.5zM302 327h188q9 0 11.5 -3.5t1.5 -10.5l-21 -175q-7 -60 -55 -103t-173 -43q-110 0 -153 36.5t-43 88.5
q0 5 0.5 11.5t1.5 12.5l49 401q7 60 54.5 103t172.5 43q110 0 153 -37t43 -90v-9.5t-1 -13.5l-5 -44q-1 -7 -5 -10.5t-12 -3.5h-40q-7 0 -10.5 3.5t-2.5 10.5l5 37q1 7 1 10.5v6.5q0 36 -29 57.5t-101 21.5q-78 0 -113 -26.5t-40 -69.5l-46 -378q-1 -5 -1.5 -10.5t-0.5 -9.5
q0 -37 28.5 -58.5t100.5 -21.5q80 0 114 26t39 69l15 118h-133q-7 0 -10.5 4t-2.5 11l4 32q1 7 5 10.5t11 3.5z" />
    <glyph glyph-name="H" unicode="H" horiz-adv-x="614" 
d="M208 665l-33 -275h290l34 275q1 7 5 11t12 4h42q7 0 10 -4t2 -11l-80 -650q-1 -7 -4.5 -11t-10.5 -4h-42q-8 0 -11.5 4t-2.5 11l39 315h-290l-40 -315q-1 -7 -4 -11t-11 -4h-42q-7 0 -11 4t-3 11l80 650q1 7 5.5 11t11.5 4h42q8 0 10.5 -4t1.5 -11z" />
    <glyph glyph-name="Hcircumflex" unicode="&#x124;" horiz-adv-x="613" 
d="M208 665l-33 -275h290l34 275q1 7 5 11t12 4h42q7 0 10 -4t2 -11l-80 -650q-1 -7 -4.5 -11t-10.5 -4h-42q-8 0 -11.5 4t-2.5 11l39 315h-290l-40 -315q-1 -7 -4 -11t-11 -4h-42q-7 0 -11 4t-3 11l80 650q1 7 5.5 11t11.5 4h42q8 0 10.5 -4t1.5 -11zM367 834l-63 -82
q-4 -5 -9 -9.5t-12 -4.5h-33q-8 0 -9.5 4t2.5 10l90 111q5 6 11.5 10.5t14.5 4.5h25q8 0 12.5 -4t8.5 -10l64 -112q4 -6 1 -10t-10 -4h-31q-7 0 -12 4t-8 10z" />
    <glyph glyph-name="I" unicode="I" horiz-adv-x="252" 
d="M208 665l-80 -650q-1 -7 -4 -11t-11 -4h-42q-7 0 -11 4t-3 11l80 650q1 7 5.5 11t11.5 4h42q8 0 10.5 -4t1.5 -11z" />
    <glyph glyph-name="Igrave" unicode="&#xcc;" horiz-adv-x="252" 
d="M208 665l-80 -650q-1 -7 -4 -11t-11 -4h-42q-7 0 -11 4t-3 11l80 650q1 7 5.5 11t11.5 4h42q8 0 10.5 -4t1.5 -11zM146 747l-65 116q-3 6 -0.5 10.5t10.5 4.5h42q8 0 12 -3.5t7 -9.5l52 -113q3 -7 0.5 -10.5t-9.5 -3.5h-32q-7 0 -11 2.5t-6 6.5z" />
    <glyph glyph-name="Iacute" unicode="&#xcd;" horiz-adv-x="252" 
d="M208 665l-80 -650q-1 -7 -4 -11t-11 -4h-42q-7 0 -11 4t-3 11l80 650q1 7 5.5 11t11.5 4h42q8 0 10.5 -4t1.5 -11zM307 863l-92 -116q-3 -3 -7.5 -6t-11.5 -3h-35q-7 0 -9 3.5t3 10.5l81 112q4 6 9 10t12 4h45q8 0 9 -4.5t-4 -10.5z" />
    <glyph glyph-name="Icircumflex" unicode="&#xce;" horiz-adv-x="252" 
d="M208 665l-80 -650q-1 -7 -4 -11t-11 -4h-42q-7 0 -11 4t-3 11l80 650q1 7 5.5 11t11.5 4h42q8 0 10.5 -4t1.5 -11zM192 834l-63 -82q-4 -5 -9 -9.5t-12 -4.5h-33q-8 0 -9.5 4t2.5 10l90 111q5 6 11.5 10.5t14.5 4.5h25q8 0 12.5 -4t8.5 -10l64 -112q4 -6 1 -10t-10 -4
h-31q-7 0 -12 4t-8 10z" />
    <glyph glyph-name="Idieresis" unicode="&#xcf;" horiz-adv-x="252" 
d="M208 665l-80 -650q-1 -7 -4 -11t-11 -4h-42q-7 0 -11 4t-3 11l80 650q1 7 5.5 11t11.5 4h42q8 0 10.5 -4t1.5 -11zM276 856l-12 -97q-1 -8 -5 -11.5t-11 -3.5h-25q-7 0 -10 3.5t-2 11.5l12 97q1 7 5 10.5t11 3.5h25q7 0 10 -3.5t2 -10.5zM169 856l-12 -97q-1 -8 -5 -11.5
t-11 -3.5h-25q-7 0 -10 3.5t-2 11.5l11 97q1 7 5.5 10.5t11.5 3.5h25q7 0 10 -3.5t2 -10.5z" />
    <glyph glyph-name="Itilde" unicode="&#x128;" horiz-adv-x="252" 
d="M208 665l-80 -650q-1 -7 -4 -11t-11 -4h-42q-7 0 -11 4t-3 11l80 650q1 7 5.5 11t11.5 4h42q8 0 10.5 -4t1.5 -11zM118 819q-15 0 -20.5 -9.5t-9.5 -31.5l-3 -15q-1 -7 -5.5 -10t-11.5 -3h-21q-7 0 -9.5 5t-1.5 12l5 24q9 43 29 62t50 19q13 0 27.5 -5t27.5 -15l41 -32
q8 -7 16.5 -11.5t15.5 -4.5q16 0 22.5 9.5t9.5 37.5l1 9q1 7 5.5 10t11.5 3h22q8 0 10 -4.5t1 -12.5l-3 -24q-6 -45 -29.5 -63t-51.5 -18q-17 0 -30 5.5t-26 15.5l-41 32q-8 7 -16 11t-16 4z" />
    <glyph glyph-name="Imacron" unicode="&#x12a;" horiz-adv-x="252" 
d="M208 665l-80 -650q-1 -7 -4 -11t-11 -4h-42q-7 0 -11 4t-3 11l80 650q1 7 5.5 11t11.5 4h42q8 0 10.5 -4t1.5 -11zM64 827h251q7 0 10.5 -3.5t2.5 -10.5l-2 -26q-1 -7 -5.5 -10.5t-11.5 -3.5h-251q-7 0 -10.5 3.5t-2.5 10.5l2 25q1 8 5.5 11.5t11.5 3.5z" />
    <glyph glyph-name="Ibreve" unicode="&#x12c;" horiz-adv-x="252" 
d="M208 665l-80 -650q-1 -7 -4 -11t-11 -4h-42q-7 0 -11 4t-3 11l80 650q1 7 5.5 11t11.5 4h42q8 0 10.5 -4t1.5 -11zM122 871l-2 -22q-1 -6 -1 -9v-4q0 -24 13.5 -37t48.5 -13q43 0 57.5 20.5t16.5 51.5l1 13q1 7 4.5 10t11.5 3h25q7 0 9.5 -3t1.5 -10l-1 -12
q-4 -54 -32 -85.5t-97 -31.5q-55 0 -83 23t-28 66v7.5t1 11.5l2 21q1 7 4.5 10t10.5 3h25q7 0 10 -3t2 -10z" />
    <glyph glyph-name="Iogonek" unicode="&#x12e;" horiz-adv-x="254" 
d="M209 665l-80 -650q-1 -7 -4.5 -11t-11.5 -4h-9q-34 -4 -50 -25.5t-16 -41.5t13.5 -29t38.5 -9h24q7 0 11.5 -3.5t3.5 -10.5l-2 -20q-1 -8 -6 -11.5t-12 -3.5h-37q-30 0 -59 15.5t-29 57.5q0 31 17.5 59.5t57.5 50.5l79 636q1 7 5 11t11 4h42q8 0 11 -4t2 -11z" />
    <glyph glyph-name="Idotaccent" unicode="&#x130;" horiz-adv-x="252" 
d="M208 665l-80 -650q-1 -7 -4 -11t-11 -4h-42q-7 0 -11 4t-3 11l80 650q1 7 5.5 11t11.5 4h42q8 0 10.5 -4t1.5 -11zM229 839l-9 -79q-1 -7 -4.5 -10.5t-10.5 -3.5h-42q-8 0 -11 3t-2 11l9 79q1 7 5 10.5t11 3.5h42q7 0 10 -3.5t2 -10.5z" />
    <glyph glyph-name="J" unicode="J" horiz-adv-x="497" 
d="M84 183l-4 -32q-1 -6 -1.5 -12t-0.5 -10q0 -34 24.5 -55t87.5 -21q71 0 98 26.5t32 69.5l64 516q1 7 4.5 11t11.5 4h43q7 0 10 -4t2 -11l-64 -527q-7 -60 -48.5 -103t-157.5 -43q-99 0 -138.5 36t-39.5 87q0 6 0.5 14t1.5 15l5 39q1 8 5 12t12 4h41q8 0 10.5 -4.5
t1.5 -11.5z" />
    <glyph glyph-name="Jcircumflex" unicode="&#x134;" horiz-adv-x="497" 
d="M84 183l-4 -32q-1 -6 -1.5 -12t-0.5 -10q0 -34 24.5 -55t87.5 -21q71 0 98 26.5t32 69.5l64 516q1 7 4.5 11t11.5 4h43q7 0 10 -4t2 -11l-64 -527q-7 -60 -48.5 -103t-157.5 -43q-99 0 -138.5 36t-39.5 87q0 6 0.5 14t1.5 15l5 39q1 8 5 12t12 4h41q8 0 10.5 -4.5
t1.5 -11.5zM435 834l-63 -82q-4 -5 -9 -9.5t-12 -4.5h-33q-8 0 -9.5 4t2.5 10l90 111q5 6 11.5 10.5t14.5 4.5h25q8 0 12.5 -4t8.5 -10l64 -112q4 -6 1 -10t-10 -4h-31q-7 0 -12 4t-8 10z" />
    <glyph glyph-name="K" unicode="K" horiz-adv-x="548" 
d="M260 345l236 -330q4 -5 1.5 -10t-9.5 -5h-53q-8 0 -13.5 4.5t-9.5 10.5l-214 298h-33l-37 -298q-1 -7 -4 -11t-11 -4h-42q-8 0 -11.5 3.5t-2.5 11.5l80 650q1 8 5 11.5t12 3.5h42q8 0 10.5 -4t1.5 -11l-36 -298h29l268 299q5 5 11.5 9.5t14.5 4.5h48q7 0 8.5 -5t-3.5 -10
z" />
    <glyph glyph-name="Kcommaaccent" unicode="&#x136;" horiz-adv-x="548" 
d="M202 -92l4 27q1 7 5.5 11t11.5 4h30q8 0 10.5 -4t1.5 -11l-3 -31q-4 -38 -19 -65t-34 -52q-4 -7 -9 -8t-11 0l-23 6q-7 1 -8 6.5t3 12.5q18 31 27 50.5t14 53.5zM260 345l236 -330q4 -5 1.5 -10t-9.5 -5h-53q-8 0 -13.5 4.5t-9.5 10.5l-214 298h-33l-37 -298
q-1 -7 -4 -11t-11 -4h-42q-8 0 -11.5 3.5t-2.5 11.5l80 650q1 8 5 11.5t12 3.5h42q8 0 10.5 -4t1.5 -11l-36 -298h29l268 299q5 5 11.5 9.5t14.5 4.5h48q7 0 8.5 -5t-3.5 -10z" />
    <glyph glyph-name="L" unicode="L" horiz-adv-x="473" 
d="M208 665l-74 -604h280q7 0 10.5 -3.5t2.5 -10.5l-4 -32q-1 -8 -4.5 -11.5t-11.5 -3.5h-338q-7 0 -10 4t-2 11l80 650q1 7 5.5 11t11.5 4h42q8 0 10.5 -4t1.5 -11z" />
    <glyph glyph-name="Lacute" unicode="&#x139;" horiz-adv-x="472" 
d="M308 863l-92 -116q-3 -3 -7.5 -6t-11.5 -3h-35q-7 0 -9 3.5t3 10.5l81 112q4 6 9 10t12 4h45q8 0 9 -4.5t-4 -10.5zM208 665l-74 -604h280q7 0 10.5 -3.5t2.5 -10.5l-4 -32q-1 -8 -4.5 -11.5t-11.5 -3.5h-338q-7 0 -10 4t-2 11l80 650q1 7 5.5 11t11.5 4h42q8 0 10.5 -4
t1.5 -11z" />
    <glyph glyph-name="Lcommaaccent" unicode="&#x13b;" horiz-adv-x="472" 
d="M193 -92l4 27q1 7 5.5 11t11.5 4h30q8 0 10.5 -4t1.5 -11l-3 -31q-4 -38 -19 -65t-34 -52q-4 -7 -9 -8t-11 0l-23 6q-7 1 -8 6.5t3 12.5q18 31 27 50.5t14 53.5zM208 665l-74 -604h280q7 0 10.5 -3.5t2.5 -10.5l-4 -32q-1 -8 -4.5 -11.5t-11.5 -3.5h-338q-7 0 -10 4
t-2 11l80 650q1 7 5.5 11t11.5 4h42q8 0 10.5 -4t1.5 -11z" />
    <glyph glyph-name="Lcaron" unicode="&#x13d;" horiz-adv-x="475" 
d="M363 664l4 27q1 7 5.5 11t11.5 4h30q8 0 10.5 -4t1.5 -11l-3 -31q-4 -38 -19 -65t-34 -52q-4 -7 -9 -8t-11 0l-23 6q-7 1 -8 6.5t3 12.5q18 31 27 50.5t14 53.5zM208 665l-74 -604h280q7 0 10.5 -3.5t2.5 -10.5l-4 -32q-1 -8 -4.5 -11.5t-11.5 -3.5h-338q-7 0 -10 4
t-2 11l80 650q1 7 5.5 11t11.5 4h42q8 0 10.5 -4t1.5 -11z" />
    <glyph glyph-name="M" unicode="M" horiz-adv-x="725" 
d="M682 665l-80 -650q-1 -7 -4.5 -11t-10.5 -4h-41q-7 0 -10.5 4t-2.5 11l64 516q-5 -13 -13 -31t-15 -31l-188 -350q-4 -7 -9.5 -11t-12.5 -4h-35q-9 0 -13 4t-6 11l-107 359q-2 7 -5.5 21.5t-5.5 30.5l-63 -515q-1 -7 -4.5 -11t-10.5 -4h-39q-7 0 -10.5 4t-2.5 11l80 650
q1 7 4.5 11t11.5 4h37q5 0 8.5 -2t4.5 -6l133 -442l7.5 -25t6.5 -27q3 8 10 23.5t14 27.5l240 443q2 4 5.5 6t8.5 2h42q7 0 10 -4t2 -11z" />
    <glyph glyph-name="N" unicode="N" horiz-adv-x="611" 
d="M567 665l-80 -650q-1 -7 -4 -11t-11 -4h-36q-6 0 -9.5 1.5t-4.5 5.5l-208 470q-6 14 -13.5 33.5t-11.5 32.5l-65 -528q-1 -7 -4.5 -11t-10.5 -4h-39q-7 0 -10.5 4t-2.5 11l80 650q1 7 5 11t11 4h36q5 0 8 -1.5t4 -4.5l212 -477q5 -11 13.5 -32t9.5 -28l64 528q1 7 5.5 11
t11.5 4h38q8 0 10.5 -4t1.5 -11z" />
    <glyph glyph-name="Ntilde" unicode="&#xd1;" horiz-adv-x="611" 
d="M303 819q-15 0 -20.5 -9.5t-9.5 -31.5l-3 -15q-1 -7 -5.5 -10t-11.5 -3h-21q-7 0 -9.5 5t-1.5 12l5 24q9 43 29 62t50 19q13 0 27.5 -5t27.5 -15l41 -32q8 -7 16.5 -11.5t15.5 -4.5q16 0 22.5 9.5t9.5 37.5l1 9q1 7 5.5 10t11.5 3h22q8 0 10 -4.5t1 -12.5l-3 -24
q-6 -45 -29.5 -63t-51.5 -18q-17 0 -30 5.5t-26 15.5l-41 32q-8 7 -16 11t-16 4zM567 665l-80 -650q-1 -7 -4 -11t-11 -4h-36q-6 0 -9.5 1.5t-4.5 5.5l-208 470q-6 14 -13.5 33.5t-11.5 32.5l-65 -528q-1 -7 -4.5 -11t-10.5 -4h-39q-7 0 -10.5 4t-2.5 11l80 650q1 7 5 11
t11 4h36q5 0 8 -1.5t4 -4.5l212 -477q5 -11 13.5 -32t9.5 -28l64 528q1 7 5.5 11t11.5 4h38q8 0 10.5 -4t1.5 -11z" />
    <glyph glyph-name="Nacute" unicode="&#x143;" horiz-adv-x="611" 
d="M484 863l-92 -116q-3 -3 -7.5 -6t-11.5 -3h-35q-7 0 -9 3.5t3 10.5l81 112q4 6 9 10t12 4h45q8 0 9 -4.5t-4 -10.5zM567 665l-80 -650q-1 -7 -4 -11t-11 -4h-36q-6 0 -9.5 1.5t-4.5 5.5l-208 470q-6 14 -13.5 33.5t-11.5 32.5l-65 -528q-1 -7 -4.5 -11t-10.5 -4h-39
q-7 0 -10.5 4t-2.5 11l80 650q1 7 5 11t11 4h36q5 0 8 -1.5t4 -4.5l212 -477q5 -11 13.5 -32t9.5 -28l64 528q1 7 5.5 11t11.5 4h38q8 0 10.5 -4t1.5 -11z" />
    <glyph glyph-name="Ncommaaccent" unicode="&#x145;" horiz-adv-x="611" 
d="M238 -92l4 27q1 7 5.5 11t11.5 4h30q8 0 10.5 -4t1.5 -11l-3 -31q-4 -38 -19 -65t-34 -52q-4 -7 -9 -8t-11 0l-23 6q-7 1 -8 6.5t3 12.5q18 31 27 50.5t14 53.5zM567 665l-80 -650q-1 -7 -4 -11t-11 -4h-36q-6 0 -9.5 1.5t-4.5 5.5l-208 470q-6 14 -13.5 33.5t-11.5 32.5
l-65 -528q-1 -7 -4.5 -11t-10.5 -4h-39q-7 0 -10.5 4t-2.5 11l80 650q1 7 5 11t11 4h36q5 0 8 -1.5t4 -4.5l212 -477q5 -11 13.5 -32t9.5 -28l64 528q1 7 5.5 11t11.5 4h38q8 0 10.5 -4t1.5 -11z" />
    <glyph glyph-name="Ncaron" unicode="&#x147;" horiz-adv-x="611" 
d="M567 665l-80 -650q-1 -7 -4 -11t-11 -4h-36q-6 0 -9.5 1.5t-4.5 5.5l-208 470q-6 14 -13.5 33.5t-11.5 32.5l-65 -528q-1 -7 -4.5 -11t-10.5 -4h-39q-7 0 -10.5 4t-2.5 11l80 650q1 7 5 11t11 4h36q5 0 8 -1.5t4 -4.5l212 -477q5 -11 13.5 -32t9.5 -28l64 528q1 7 5.5 11
t11.5 4h38q8 0 10.5 -4t1.5 -11zM316 863l43 -82l63 82q4 6 9.5 10.5t12.5 4.5h33q7 0 9 -4.5t-3 -10.5l-91 -111q-5 -6 -11 -10t-14 -4h-25q-7 0 -12.5 4t-9.5 11l-63 110q-4 6 -1 10.5t11 4.5h31q7 0 11 -5t7 -10z" />
    <glyph glyph-name="O" unicode="O" horiz-adv-x="591" 
d="M60 141l49 401q7 60 57 103t175 43q110 0 156 -37.5t46 -89.5v-9t-1 -13l-49 -401q-7 -60 -57.5 -103t-175.5 -43q-110 0 -156 37t-46 89q0 5 0.5 11t1.5 12zM422 149l47 378q1 7 1 11v7q0 39 -30.5 60.5t-103.5 21.5q-78 0 -115 -26.5t-42 -69.5l-46 -378
q-1 -5 -1.5 -10t-0.5 -8q0 -38 31 -60t104 -22q79 0 115 26.5t41 69.5z" />
    <glyph glyph-name="Ograve" unicode="&#xd2;" horiz-adv-x="591" 
d="M315 747l-65 116q-3 6 -0.5 10.5t10.5 4.5h42q8 0 12 -3.5t7 -9.5l52 -113q3 -7 0.5 -10.5t-9.5 -3.5h-32q-7 0 -11 2.5t-6 6.5zM60 141l49 401q7 60 57 103t175 43q110 0 156 -37.5t46 -89.5v-9t-1 -13l-49 -401q-7 -60 -57.5 -103t-175.5 -43q-110 0 -156 37t-46 89
q0 5 0.5 11t1.5 12zM422 149l47 378q1 7 1 11v7q0 39 -30.5 60.5t-103.5 21.5q-78 0 -115 -26.5t-42 -69.5l-46 -378q-1 -5 -1.5 -10t-0.5 -8q0 -38 31 -60t104 -22q79 0 115 26.5t41 69.5z" />
    <glyph glyph-name="Oacute" unicode="&#xd3;" horiz-adv-x="591" 
d="M472 863l-92 -116q-3 -3 -7.5 -6t-11.5 -3h-35q-7 0 -9 3.5t3 10.5l81 112q4 6 9 10t12 4h45q8 0 9 -4.5t-4 -10.5zM60 141l49 401q7 60 57 103t175 43q110 0 156 -37.5t46 -89.5v-9t-1 -13l-49 -401q-7 -60 -57.5 -103t-175.5 -43q-110 0 -156 37t-46 89q0 5 0.5 11
t1.5 12zM422 149l47 378q1 7 1 11v7q0 39 -30.5 60.5t-103.5 21.5q-78 0 -115 -26.5t-42 -69.5l-46 -378q-1 -5 -1.5 -10t-0.5 -8q0 -38 31 -60t104 -22q79 0 115 26.5t41 69.5z" />
    <glyph glyph-name="Ocircumflex" unicode="&#xd4;" horiz-adv-x="591" 
d="M359 834l-63 -82q-4 -5 -9 -9.5t-12 -4.5h-33q-8 0 -9.5 4t2.5 10l90 111q5 6 11.5 10.5t14.5 4.5h25q8 0 12.5 -4t8.5 -10l64 -112q4 -6 1 -10t-10 -4h-31q-7 0 -12 4t-8 10zM60 141l49 401q7 60 57 103t175 43q110 0 156 -37.5t46 -89.5v-9t-1 -13l-49 -401
q-7 -60 -57.5 -103t-175.5 -43q-110 0 -156 37t-46 89q0 5 0.5 11t1.5 12zM422 149l47 378q1 7 1 11v7q0 39 -30.5 60.5t-103.5 21.5q-78 0 -115 -26.5t-42 -69.5l-46 -378q-1 -5 -1.5 -10t-0.5 -8q0 -38 31 -60t104 -22q79 0 115 26.5t41 69.5z" />
    <glyph glyph-name="Otilde" unicode="&#xd5;" horiz-adv-x="591" 
d="M60 141l49 401q7 60 57 103t175 43q110 0 156 -37.5t46 -89.5v-9t-1 -13l-49 -401q-7 -60 -57.5 -103t-175.5 -43q-110 0 -156 37t-46 89q0 5 0.5 11t1.5 12zM422 149l47 378q1 7 1 11v7q0 39 -30.5 60.5t-103.5 21.5q-78 0 -115 -26.5t-42 -69.5l-46 -378
q-1 -5 -1.5 -10t-0.5 -8q0 -38 31 -60t104 -22q79 0 115 26.5t41 69.5zM291 819q-15 0 -20.5 -9.5t-9.5 -31.5l-3 -15q-1 -7 -5.5 -10t-11.5 -3h-21q-7 0 -9.5 5t-1.5 12l5 24q9 43 29 62t50 19q13 0 27.5 -5t27.5 -15l41 -32q8 -7 16.5 -11.5t15.5 -4.5q16 0 22.5 9.5
t9.5 37.5l1 9q1 7 5.5 10t11.5 3h22q8 0 10 -4.5t1 -12.5l-3 -24q-6 -45 -29.5 -63t-51.5 -18q-17 0 -30 5.5t-26 15.5l-41 32q-8 7 -16 11t-16 4z" />
    <glyph glyph-name="Odieresis" unicode="&#xd6;" horiz-adv-x="591" 
d="M60 141l49 401q7 60 57 103t175 43q110 0 156 -37.5t46 -89.5v-9t-1 -13l-49 -401q-7 -60 -57.5 -103t-175.5 -43q-110 0 -156 37t-46 89q0 5 0.5 11t1.5 12zM422 149l47 378q1 7 1 11v7q0 39 -30.5 60.5t-103.5 21.5q-78 0 -115 -26.5t-42 -69.5l-46 -378
q-1 -5 -1.5 -10t-0.5 -8q0 -38 31 -60t104 -22q79 0 115 26.5t41 69.5zM444 856l-12 -97q-1 -8 -5 -11.5t-11 -3.5h-25q-7 0 -10 3.5t-2 11.5l12 97q1 7 5 10.5t11 3.5h25q7 0 10 -3.5t2 -10.5zM337 856l-12 -97q-1 -8 -5 -11.5t-11 -3.5h-25q-7 0 -10 3.5t-2 11.5l11 97
q1 7 5.5 10.5t11.5 3.5h25q7 0 10 -3.5t2 -10.5z" />
    <glyph glyph-name="Omacron" unicode="&#x14c;" horiz-adv-x="591" 
d="M60 141l49 401q7 60 57 103t175 43q110 0 156 -37.5t46 -89.5v-9t-1 -13l-49 -401q-7 -60 -57.5 -103t-175.5 -43q-110 0 -156 37t-46 89q0 5 0.5 11t1.5 12zM422 149l47 378q1 7 1 11v7q0 39 -30.5 60.5t-103.5 21.5q-78 0 -115 -26.5t-42 -69.5l-46 -378
q-1 -5 -1.5 -10t-0.5 -8q0 -38 31 -60t104 -22q79 0 115 26.5t41 69.5zM234 827h251q7 0 10.5 -3.5t2.5 -10.5l-2 -26q-1 -7 -5.5 -10.5t-11.5 -3.5h-251q-7 0 -10.5 3.5t-2.5 10.5l2 25q1 8 5.5 11.5t11.5 3.5z" />
    <glyph glyph-name="Obreve" unicode="&#x14e;" horiz-adv-x="591" 
d="M60 141l49 401q7 60 57 103t175 43q110 0 156 -37.5t46 -89.5v-9t-1 -13l-49 -401q-7 -60 -57.5 -103t-175.5 -43q-110 0 -156 37t-46 89q0 5 0.5 11t1.5 12zM422 149l47 378q1 7 1 11v7q0 39 -30.5 60.5t-103.5 21.5q-78 0 -115 -26.5t-42 -69.5l-46 -378
q-1 -5 -1.5 -10t-0.5 -8q0 -38 31 -60t104 -22q79 0 115 26.5t41 69.5zM300 871l-2 -22q-1 -6 -1 -9v-4q0 -24 13.5 -37t48.5 -13q43 0 57.5 20.5t16.5 51.5l1 13q1 7 4.5 10t11.5 3h25q7 0 9.5 -3t1.5 -10l-1 -12q-4 -54 -32 -85.5t-97 -31.5q-55 0 -83 23t-28 66v7.5
t1 11.5l2 21q1 7 4.5 10t10.5 3h25q7 0 10 -3t2 -10z" />
    <glyph glyph-name="Ohungarumlaut" unicode="&#x150;" horiz-adv-x="591" 
d="M408 863l-76 -111q-4 -7 -9 -10.5t-12 -3.5h-31q-7 0 -9 4t2 10l68 111q4 7 9.5 11t12.5 4h37q8 0 10 -4.5t-2 -10.5zM523 863l-90 -112q-4 -5 -10 -9t-13 -4h-31q-7 0 -8 3.5t3 10.5l83 111q4 7 10.5 11t13.5 4h37q8 0 9 -4.5t-4 -10.5zM60 141l49 401q7 60 57 103
t175 43q110 0 156 -37.5t46 -89.5v-9t-1 -13l-49 -401q-7 -60 -57.5 -103t-175.5 -43q-110 0 -156 37t-46 89q0 5 0.5 11t1.5 12zM422 149l47 378q1 7 1 11v7q0 39 -30.5 60.5t-103.5 21.5q-78 0 -115 -26.5t-42 -69.5l-46 -378q-1 -5 -1.5 -10t-0.5 -8q0 -38 31 -60
t104 -22q79 0 115 26.5t41 69.5z" />
    <glyph glyph-name="P" unicode="P" horiz-adv-x="569" 
d="M302 262h-143l-31 -247q-1 -7 -4 -11t-11 -4h-42q-7 0 -11 4t-3 11l80 650q1 7 5 11t11 4h196q111 0 155.5 -38.5t44.5 -93.5v-10t-1 -14l-13 -119q-7 -63 -57.5 -103t-175.5 -40zM345 619h-142l-36 -296h141q80 0 115.5 24.5t41.5 67.5l13 100q1 7 1 11.5v7.5
q0 40 -29.5 62.5t-104.5 22.5z" />
    <glyph glyph-name="Q" unicode="Q" horiz-adv-x="591" 
d="M420 -170q-5 -4 -11 -5t-10 4l-156 163q-101 3 -143 39.5t-42 86.5q0 5 0.5 10.5t1.5 12.5l49 401q7 60 57 103t175 43q110 0 156 -37.5t46 -89.5v-9t-1 -13l-49 -401q-7 -51 -43.5 -91t-123.5 -51l119 -122q5 -6 5 -10.5t-6 -10.5zM422 149l47 378q1 5 1.5 10t0.5 8
q0 38 -31 60t-104 22q-78 0 -115 -26.5t-42 -69.5l-46 -378q-1 -5 -1.5 -10t-0.5 -8q0 -38 31 -60t104 -22q79 0 115 26.5t41 69.5z" />
    <glyph glyph-name="R" unicode="R" horiz-adv-x="586" 
d="M345 619h-142l-35 -282h141q80 0 116.5 24.5t41.5 67.5l11 86q1 7 1 11v7q0 40 -30.5 63t-103.5 23zM128 15q-1 -7 -4 -11t-11 -4h-42q-7 0 -11 3t-3 12l80 650q1 7 5 11t11 4h195q110 0 156 -39.5t46 -93.5v-8t-1 -13l-12 -108q-5 -46 -36.5 -82.5t-103.5 -50.5l95 -270
q2 -7 -2 -11t-12 -4h-43q-8 0 -12 4.5t-6 10.5l-92 262h-164z" />
    <glyph glyph-name="Racute" unicode="&#x154;" horiz-adv-x="586" 
d="M345 619h-142l-35 -282h141q80 0 116.5 24.5t41.5 67.5l11 86q1 7 1 11v7q0 40 -30.5 63t-103.5 23zM128 15q-1 -7 -4 -11t-11 -4h-42q-7 0 -11 3t-3 12l80 650q1 7 5 11t11 4h195q110 0 156 -39.5t46 -93.5v-8t-1 -13l-12 -108q-5 -46 -36.5 -82.5t-103.5 -50.5l95 -270
q2 -7 -2 -11t-12 -4h-43q-8 0 -12 4.5t-6 10.5l-92 262h-164zM448 863l-92 -116q-3 -3 -7.5 -6t-11.5 -3h-35q-7 0 -9 3.5t3 10.5l81 112q4 6 9 10t12 4h45q8 0 9 -4.5t-4 -10.5z" />
    <glyph glyph-name="Rcommaaccent" unicode="&#x156;" horiz-adv-x="586" 
d="M222 -92l4 27q1 7 5.5 11t11.5 4h30q8 0 10.5 -4t1.5 -11l-3 -31q-4 -38 -19 -65t-34 -52q-4 -7 -9 -8t-11 0l-23 6q-7 1 -8 6.5t3 12.5q18 31 27 50.5t14 53.5zM345 619h-142l-35 -282h141q80 0 116.5 24.5t41.5 67.5l11 86q1 7 1 11v7q0 40 -30.5 63t-103.5 23zM128 15
q-1 -7 -4 -11t-11 -4h-42q-7 0 -11 3t-3 12l80 650q1 7 5 11t11 4h195q110 0 156 -39.5t46 -93.5v-8t-1 -13l-12 -108q-5 -46 -36.5 -82.5t-103.5 -50.5l95 -270q2 -7 -2 -11t-12 -4h-43q-8 0 -12 4.5t-6 10.5l-92 262h-164z" />
    <glyph glyph-name="Rcaron" unicode="&#x158;" horiz-adv-x="586" 
d="M345 619h-142l-35 -282h141q80 0 116.5 24.5t41.5 67.5l11 86q1 7 1 11v7q0 40 -30.5 63t-103.5 23zM128 15q-1 -7 -4 -11t-11 -4h-42q-7 0 -11 3t-3 12l80 650q1 7 5 11t11 4h195q110 0 156 -39.5t46 -93.5v-8t-1 -13l-12 -108q-5 -46 -36.5 -82.5t-103.5 -50.5l95 -270
q2 -7 -2 -11t-12 -4h-43q-8 0 -12 4.5t-6 10.5l-92 262h-164zM286 863l43 -82l63 82q4 6 9.5 10.5t12.5 4.5h33q7 0 9 -4.5t-3 -10.5l-91 -111q-5 -6 -11 -10t-14 -4h-25q-7 0 -12.5 4t-9.5 11l-63 110q-4 6 -1 10.5t11 4.5h31q7 0 11 -5t7 -10z" />
    <glyph glyph-name="S" unicode="S" horiz-adv-x="551" 
d="M438 495l4 38q1 7 1 10.5v6.5q0 36 -28 57.5t-99 21.5q-78 0 -111 -26t-38 -69l-4 -34q-1 -5 -1 -8.5v-4.5q0 -27 15 -40.5t34 -20.5l177 -71q43 -17 67.5 -46t24.5 -71v-8.5t-1 -11.5l-9 -80q-7 -60 -56.5 -103t-174.5 -43q-110 0 -154.5 37t-44.5 89v9.5t1 13.5l6 52
q1 8 5 11.5t11 3.5h41q8 0 11 -4t2 -11l-6 -43q-1 -6 -1 -11v-8q0 -37 30.5 -58.5t103.5 -21.5q79 0 115 26.5t41 69.5l8 64q1 7 1 9.5v3.5q0 29 -23 45.5t-51 27.5l-157 64q-39 16 -63 44.5t-24 66.5v7.5t1 11.5l6 51q7 60 53 103t170 43q108 0 150.5 -37t42.5 -88v-8.5
t-1 -12.5l-5 -47q-1 -7 -5.5 -11t-11.5 -4h-41q-7 0 -10 3t-2 12z" />
    <glyph glyph-name="Sacute" unicode="&#x15a;" horiz-adv-x="553" 
d="M438 495l4 38q1 7 1 10.5v6.5q0 36 -28 57.5t-99 21.5q-78 0 -111 -26t-38 -69l-4 -34q-1 -5 -1 -8.5v-4.5q0 -27 15 -40.5t34 -20.5l177 -71q43 -17 67.5 -46t24.5 -71v-8.5t-1 -11.5l-9 -80q-7 -60 -56.5 -103t-174.5 -43q-110 0 -154.5 37t-44.5 89v9.5t1 13.5l6 52
q1 8 5 11.5t11 3.5h41q8 0 11 -4t2 -11l-6 -43q-1 -6 -1 -11v-8q0 -37 30.5 -58.5t103.5 -21.5q79 0 115 26.5t41 69.5l8 64q1 7 1 9.5v3.5q0 29 -23 45.5t-51 27.5l-157 64q-39 16 -63 44.5t-24 66.5v7.5t1 11.5l6 51q7 60 53 103t170 43q108 0 150.5 -37t42.5 -88v-8.5
t-1 -12.5l-5 -47q-1 -7 -5.5 -11t-11.5 -4h-41q-7 0 -10 3t-2 12zM450 863l-92 -116q-3 -3 -7.5 -6t-11.5 -3h-35q-7 0 -9 3.5t3 10.5l81 112q4 6 9 10t12 4h45q8 0 9 -4.5t-4 -10.5z" />
    <glyph glyph-name="Scircumflex" unicode="&#x15c;" horiz-adv-x="553" 
d="M438 495l4 38q1 7 1 10.5v6.5q0 36 -28 57.5t-99 21.5q-78 0 -111 -26t-38 -69l-4 -34q-1 -5 -1 -8.5v-4.5q0 -27 15 -40.5t34 -20.5l177 -71q43 -17 67.5 -46t24.5 -71v-8.5t-1 -11.5l-9 -80q-7 -60 -56.5 -103t-174.5 -43q-110 0 -154.5 37t-44.5 89v9.5t1 13.5l6 52
q1 8 5 11.5t11 3.5h41q8 0 11 -4t2 -11l-6 -43q-1 -6 -1 -11v-8q0 -37 30.5 -58.5t103.5 -21.5q79 0 115 26.5t41 69.5l8 64q1 7 1 9.5v3.5q0 29 -23 45.5t-51 27.5l-157 64q-39 16 -63 44.5t-24 66.5v7.5t1 11.5l6 51q7 60 53 103t170 43q108 0 150.5 -37t42.5 -88v-8.5
t-1 -12.5l-5 -47q-1 -7 -5.5 -11t-11.5 -4h-41q-7 0 -10 3t-2 12zM335 834l-63 -82q-4 -5 -9 -9.5t-12 -4.5h-33q-8 0 -9.5 4t2.5 10l90 111q5 6 11.5 10.5t14.5 4.5h25q8 0 12.5 -4t8.5 -10l64 -112q4 -6 1 -10t-10 -4h-31q-7 0 -12 4t-8 10z" />
    <glyph glyph-name="Scedilla" unicode="&#x15e;" horiz-adv-x="554" 
d="M249 -211h-116q-9 0 -11 4.5t-1 10.5l2 15q1 7 4.5 10.5t10.5 3.5h106q17 0 32 7.5t15 32.5q0 18 -12.5 24t-25.5 6h-61q-10 0 -16 4.5t-2 14.5l28 71q-90 7 -126 42t-36 83v9.5t1 13.5l6 52q1 8 5 11.5t11 3.5h41q8 0 11 -4t2 -11l-6 -43q-1 -6 -1 -11v-8
q0 -37 30.5 -58.5t103.5 -21.5q79 0 115 26.5t41 69.5l8 64q1 7 1 9.5v3.5q0 29 -23 45.5t-51 27.5l-157 64q-39 16 -63 44.5t-24 66.5v7.5t1 11.5l6 51q7 60 53 103t170 43q108 0 150.5 -37t42.5 -88v-8.5t-1 -12.5l-5 -47q-1 -7 -5.5 -11t-11.5 -4h-41q-7 0 -10 3t-2 12
l4 38q1 7 1 10.5v6.5q0 36 -28 57.5t-99 21.5q-78 0 -111 -26t-38 -69l-4 -34q-1 -5 -1 -8.5v-4.5q0 -27 15 -40.5t34 -20.5l177 -71q43 -17 67.5 -46t24.5 -71v-8.5t-1 -11.5l-9 -80q-7 -58 -54.5 -101t-165.5 -45l-18 -45h36q28 0 51 -16.5t23 -53.5q0 -49 -29 -68.5
t-64 -19.5z" />
    <glyph glyph-name="Scaron" unicode="&#x160;" horiz-adv-x="553" 
d="M438 495l4 38q1 7 1 10.5v6.5q0 36 -28 57.5t-99 21.5q-78 0 -111 -26t-38 -69l-4 -34q-1 -5 -1 -8.5v-4.5q0 -27 15 -40.5t34 -20.5l177 -71q43 -17 67.5 -46t24.5 -71v-8.5t-1 -11.5l-9 -80q-7 -60 -56.5 -103t-174.5 -43q-110 0 -154.5 37t-44.5 89v9.5t1 13.5l6 52
q1 8 5 11.5t11 3.5h41q8 0 11 -4t2 -11l-6 -43q-1 -6 -1 -11v-8q0 -37 30.5 -58.5t103.5 -21.5q79 0 115 26.5t41 69.5l8 64q1 7 1 9.5v3.5q0 29 -23 45.5t-51 27.5l-157 64q-39 16 -63 44.5t-24 66.5v7.5t1 11.5l6 51q7 60 53 103t170 43q108 0 150.5 -37t42.5 -88v-8.5
t-1 -12.5l-5 -47q-1 -7 -5.5 -11t-11.5 -4h-41q-7 0 -10 3t-2 12zM282 863l43 -82l63 82q4 6 9.5 10.5t12.5 4.5h33q7 0 9 -4.5t-3 -10.5l-91 -111q-5 -6 -11 -10t-14 -4h-25q-7 0 -12.5 4t-9.5 11l-63 110q-4 6 -1 10.5t11 4.5h31q7 0 11 -5t7 -10z" />
    <glyph glyph-name="Scommaaccent" unicode="&#x218;" horiz-adv-x="551" 
d="M208 -92l4 27q1 7 5.5 11t11.5 4h30q8 0 10.5 -4t1.5 -11l-3 -31q-4 -38 -19 -65t-34 -52q-4 -7 -9 -8t-11 0l-23 6q-7 1 -8 6.5t3 12.5q18 31 27 50.5t14 53.5zM438 495l4 38q1 7 1 10.5v6.5q0 36 -28 57.5t-99 21.5q-78 0 -111 -26t-38 -69l-4 -34q-1 -5 -1 -8.5v-4.5
q0 -27 15 -40.5t34 -20.5l177 -71q43 -17 67.5 -46t24.5 -71v-8.5t-1 -11.5l-9 -80q-7 -60 -56.5 -103t-174.5 -43q-110 0 -154.5 37t-44.5 89v9.5t1 13.5l6 52q1 8 5 11.5t11 3.5h41q8 0 11 -4t2 -11l-6 -43q-1 -6 -1 -11v-8q0 -37 30.5 -58.5t103.5 -21.5q79 0 115 26.5
t41 69.5l8 64q1 7 1 9.5v3.5q0 29 -23 45.5t-51 27.5l-157 64q-39 16 -63 44.5t-24 66.5v7.5t1 11.5l6 51q7 60 53 103t170 43q108 0 150.5 -37t42.5 -88v-8.5t-1 -12.5l-5 -47q-1 -7 -5.5 -11t-11.5 -4h-41q-7 0 -10 3t-2 12z" />
    <glyph glyph-name="T" unicode="T" horiz-adv-x="488" 
d="M83 680h417q7 0 10.5 -3.5t2.5 -11.5l-3 -31q-1 -8 -5.5 -11.5t-11.5 -3.5h-172l-75 -604q-1 -7 -4.5 -11t-11.5 -4h-42q-7 0 -11 4t-3 11l75 604h-172q-7 0 -10.5 3.5t-2.5 11.5l3 31q1 8 5 11.5t11 3.5z" />
    <glyph glyph-name="Tcommaaccent" unicode="&#x162;" horiz-adv-x="489" 
d="M165 -92l4 27q1 7 5.5 11t11.5 4h30q8 0 10.5 -4t1.5 -11l-3 -31q-4 -38 -19 -65t-34 -52q-4 -7 -9 -8t-11 0l-23 6q-7 1 -8 6.5t3 12.5q18 31 27 50.5t14 53.5zM83 680h417q7 0 10.5 -3.5t2.5 -11.5l-3 -31q-1 -8 -5.5 -11.5t-11.5 -3.5h-172l-75 -604q-1 -7 -4.5 -11
t-11.5 -4h-42q-7 0 -11 4t-3 11l75 604h-172q-7 0 -10.5 3.5t-2.5 11.5l3 31q1 8 5 11.5t11 3.5z" />
    <glyph glyph-name="Tcaron" unicode="&#x164;" horiz-adv-x="489" 
d="M83 680h417q7 0 10.5 -3.5t2.5 -11.5l-3 -31q-1 -8 -5.5 -11.5t-11.5 -3.5h-172l-75 -604q-1 -7 -4.5 -11t-11.5 -4h-42q-7 0 -11 4t-3 11l75 604h-172q-7 0 -10.5 3.5t-2.5 11.5l3 31q1 8 5 11.5t11 3.5zM256 863l43 -82l63 82q4 6 9.5 10.5t12.5 4.5h33q7 0 9 -4.5
t-3 -10.5l-91 -111q-5 -6 -11 -10t-14 -4h-25q-7 0 -12.5 4t-9.5 11l-63 110q-4 6 -1 10.5t11 4.5h31q7 0 11 -5t7 -10z" />
    <glyph glyph-name="U" unicode="U" horiz-adv-x="607" 
d="M204 665l-63 -506q-1 -10 -1.5 -14.5t-0.5 -9.5q0 -38 31.5 -60t103.5 -22q79 0 115.5 26.5t41.5 69.5l64 516q1 7 4.5 11t10.5 4h43q6 0 10 -3.5t3 -11.5l-65 -527q-7 -60 -56.5 -103t-175.5 -43q-110 0 -156 37t-46 91q0 4 0.5 11t1.5 13l64 521q1 7 4.5 11t11.5 4h42
q6 0 10 -3.5t3 -11.5z" />
    <glyph glyph-name="Ugrave" unicode="&#xd9;" horiz-adv-x="606" 
d="M323 747l-65 116q-3 6 -0.5 10.5t10.5 4.5h42q8 0 12 -3.5t7 -9.5l52 -113q3 -7 0.5 -10.5t-9.5 -3.5h-32q-7 0 -11 2.5t-6 6.5zM204 665l-63 -506q-1 -10 -1.5 -14.5t-0.5 -9.5q0 -38 31.5 -60t103.5 -22q79 0 115.5 26.5t41.5 69.5l64 516q1 7 4.5 11t10.5 4h43
q6 0 10 -3.5t3 -11.5l-65 -527q-7 -60 -56.5 -103t-175.5 -43q-110 0 -156 37t-46 91q0 4 0.5 11t1.5 13l64 521q1 7 4.5 11t11.5 4h42q6 0 10 -3.5t3 -11.5z" />
    <glyph glyph-name="Uacute" unicode="&#xda;" horiz-adv-x="606" 
d="M204 665l-63 -506q-1 -10 -1.5 -14.5t-0.5 -9.5q0 -38 31.5 -60t103.5 -22q79 0 115.5 26.5t41.5 69.5l64 516q1 7 4.5 11t10.5 4h43q6 0 10 -3.5t3 -11.5l-65 -527q-7 -60 -56.5 -103t-175.5 -43q-110 0 -156 37t-46 91q0 4 0.5 11t1.5 13l64 521q1 7 4.5 11t11.5 4h42
q6 0 10 -3.5t3 -11.5zM480 863l-92 -116q-3 -3 -7.5 -6t-11.5 -3h-35q-7 0 -9 3.5t3 10.5l81 112q4 6 9 10t12 4h45q8 0 9 -4.5t-4 -10.5z" />
    <glyph glyph-name="Ucircumflex" unicode="&#xdb;" horiz-adv-x="606" 
d="M367 834l-63 -82q-4 -5 -9 -9.5t-12 -4.5h-33q-8 0 -9.5 4t2.5 10l90 111q5 6 11.5 10.5t14.5 4.5h25q8 0 12.5 -4t8.5 -10l64 -112q4 -6 1 -10t-10 -4h-31q-7 0 -12 4t-8 10zM204 665l-63 -506q-1 -10 -1.5 -14.5t-0.5 -9.5q0 -38 31.5 -60t103.5 -22q79 0 115.5 26.5
t41.5 69.5l64 516q1 7 4.5 11t10.5 4h43q6 0 10 -3.5t3 -11.5l-65 -527q-7 -60 -56.5 -103t-175.5 -43q-110 0 -156 37t-46 91q0 4 0.5 11t1.5 13l64 521q1 7 4.5 11t11.5 4h42q6 0 10 -3.5t3 -11.5z" />
    <glyph glyph-name="Udieresis" unicode="&#xdc;" horiz-adv-x="606" 
d="M204 665l-63 -506q-1 -10 -1.5 -14.5t-0.5 -9.5q0 -38 31.5 -60t103.5 -22q79 0 115.5 26.5t41.5 69.5l64 516q1 7 4.5 11t10.5 4h43q6 0 10 -3.5t3 -11.5l-65 -527q-7 -60 -56.5 -103t-175.5 -43q-110 0 -156 37t-46 91q0 4 0.5 11t1.5 13l64 521q1 7 4.5 11t11.5 4h42
q6 0 10 -3.5t3 -11.5zM449 856l-12 -97q-1 -8 -5 -11.5t-11 -3.5h-25q-7 0 -10 3.5t-2 11.5l12 97q1 7 5 10.5t11 3.5h25q7 0 10 -3.5t2 -10.5zM342 856l-12 -97q-1 -8 -5 -11.5t-11 -3.5h-25q-7 0 -10 3.5t-2 11.5l11 97q1 7 5.5 10.5t11.5 3.5h25q7 0 10 -3.5t2 -10.5z
" />
    <glyph glyph-name="Utilde" unicode="&#x168;" horiz-adv-x="606" 
d="M204 665l-63 -506q-1 -10 -1.5 -14.5t-0.5 -9.5q0 -38 31.5 -60t103.5 -22q79 0 115.5 26.5t41.5 69.5l64 516q1 7 4.5 11t10.5 4h43q6 0 10 -3.5t3 -11.5l-65 -527q-7 -60 -56.5 -103t-175.5 -43q-110 0 -156 37t-46 91q0 4 0.5 11t1.5 13l64 521q1 7 4.5 11t11.5 4h42
q6 0 10 -3.5t3 -11.5zM296 819q-15 0 -20.5 -9.5t-9.5 -31.5l-3 -15q-1 -7 -5.5 -10t-11.5 -3h-21q-7 0 -9.5 5t-1.5 12l5 24q9 43 29 62t50 19q13 0 27.5 -5t27.5 -15l41 -32q8 -7 16.5 -11.5t15.5 -4.5q16 0 22.5 9.5t9.5 37.5l1 9q1 7 5.5 10t11.5 3h22q8 0 10 -4.5
t1 -12.5l-3 -24q-6 -45 -29.5 -63t-51.5 -18q-17 0 -30 5.5t-26 15.5l-41 32q-8 7 -16 11t-16 4z" />
    <glyph glyph-name="Umacron" unicode="&#x16a;" horiz-adv-x="606" 
d="M204 665l-63 -506q-1 -10 -1.5 -14.5t-0.5 -9.5q0 -38 31.5 -60t103.5 -22q79 0 115.5 26.5t41.5 69.5l64 516q1 7 4.5 11t10.5 4h43q6 0 10 -3.5t3 -11.5l-65 -527q-7 -60 -56.5 -103t-175.5 -43q-110 0 -156 37t-46 91q0 4 0.5 11t1.5 13l64 521q1 7 4.5 11t11.5 4h42
q6 0 10 -3.5t3 -11.5zM240 827h251q7 0 10.5 -3.5t2.5 -10.5l-2 -26q-1 -7 -5.5 -10.5t-11.5 -3.5h-251q-7 0 -10.5 3.5t-2.5 10.5l2 25q1 8 5.5 11.5t11.5 3.5z" />
    <glyph glyph-name="Ubreve" unicode="&#x16c;" horiz-adv-x="606" 
d="M204 665l-63 -506q-1 -10 -1.5 -14.5t-0.5 -9.5q0 -38 31.5 -60t103.5 -22q79 0 115.5 26.5t41.5 69.5l64 516q1 7 4.5 11t10.5 4h43q6 0 10 -3.5t3 -11.5l-65 -527q-7 -60 -56.5 -103t-175.5 -43q-110 0 -156 37t-46 91q0 4 0.5 11t1.5 13l64 521q1 7 4.5 11t11.5 4h42
q6 0 10 -3.5t3 -11.5zM301 871l-2 -22q-1 -6 -1 -9v-4q0 -24 13.5 -37t48.5 -13q43 0 57.5 20.5t16.5 51.5l1 13q1 7 4.5 10t11.5 3h25q7 0 9.5 -3t1.5 -10l-1 -12q-4 -54 -32 -85.5t-97 -31.5q-55 0 -83 23t-28 66v7.5t1 11.5l2 21q1 7 4.5 10t10.5 3h25q7 0 10 -3t2 -10z
" />
    <glyph glyph-name="Uring" unicode="&#x16e;" horiz-adv-x="606" 
d="M458 813l-2 -26q-2 -29 -25.5 -47.5t-71.5 -18.5t-69.5 17.5t-18.5 54.5l2 26q2 29 26.5 48.5t73.5 19.5q47 0 67.5 -19.5t17.5 -54.5zM416 794l1 20q1 15 -9 25.5t-39 10.5q-28 0 -41.5 -10.5t-14.5 -26.5l-1 -15q-1 -22 9 -31.5t38 -9.5t42 10t15 27zM204 665l-63 -506
q-1 -10 -1.5 -14.5t-0.5 -9.5q0 -38 31.5 -60t103.5 -22q79 0 115.5 26.5t41.5 69.5l64 516q1 7 4.5 11t10.5 4h43q6 0 10 -3.5t3 -11.5l-65 -527q-7 -60 -56.5 -103t-175.5 -43q-110 0 -156 37t-46 91q0 4 0.5 11t1.5 13l64 521q1 7 4.5 11t11.5 4h42q6 0 10 -3.5t3 -11.5z
" />
    <glyph glyph-name="Uhungarumlaut" unicode="&#x170;" horiz-adv-x="606" 
d="M413 863l-76 -111q-4 -7 -9 -10.5t-12 -3.5h-31q-7 0 -9 4t2 10l68 111q4 7 9.5 11t12.5 4h37q8 0 10 -4.5t-2 -10.5zM528 863l-90 -112q-4 -5 -10 -9t-13 -4h-31q-7 0 -8 3.5t3 10.5l83 111q4 7 10.5 11t13.5 4h37q8 0 9 -4.5t-4 -10.5zM204 665l-63 -506
q-1 -10 -1.5 -14.5t-0.5 -9.5q0 -38 31.5 -60t103.5 -22q79 0 115.5 26.5t41.5 69.5l64 516q1 7 4.5 11t10.5 4h43q6 0 10 -3.5t3 -11.5l-65 -527q-7 -60 -56.5 -103t-175.5 -43q-110 0 -156 37t-46 91q0 4 0.5 11t1.5 13l64 521q1 7 4.5 11t11.5 4h42q6 0 10 -3.5t3 -11.5z
" />
    <glyph glyph-name="Uogonek" unicode="&#x172;" horiz-adv-x="607" 
d="M204 665l-63 -506q-1 -10 -1.5 -14.5t-0.5 -9.5q0 -38 31.5 -60t103.5 -22q79 0 115.5 26.5t41.5 69.5l64 516q1 7 4.5 11t10.5 4h43q6 0 10 -3.5t3 -11.5l-65 -527q-4 -29 -14.5 -52.5t-28.5 -39.5q-22 -19 -50 -44t-28 -67q0 -21 13.5 -30.5t41.5 -9.5h33
q7 0 11.5 -3.5t3.5 -10.5l-2 -20q-1 -8 -6.5 -11.5t-12.5 -3.5h-46q-34 0 -61.5 16.5t-27.5 58.5q0 19 6 39.5t21 39.5q-18 -4 -39 -6t-46 -2q-110 0 -156 37t-46 91q0 4 0.5 11t1.5 13l64 521q1 7 4.5 11t11.5 4h42q6 0 10 -3.5t3 -11.5z" />
    <glyph glyph-name="V" unicode="V" horiz-adv-x="532" 
d="M210 0q-8 0 -12.5 4t-5.5 11l-119 650q-1 7 2.5 11t10.5 4h45q8 0 11.5 -4t4.5 -11l85 -469q4 -26 6.5 -59.5t3.5 -46.5q3 10 15.5 47t20.5 57l201 471q3 7 7.5 11t12.5 4h44q7 0 9.5 -4t-0.5 -11l-279 -650q-3 -7 -8 -11t-12 -4h-43z" />
    <glyph glyph-name="W" unicode="W" horiz-adv-x="816" 
d="M495 665l61 -470q2 -19 4 -43.5t2 -36.5q2 12 10.5 36.5t15.5 43.5l177 470q3 7 7.5 11t12.5 4h38q7 0 9.5 -4t-0.5 -11l-244 -650q-3 -7 -8 -11t-12 -4h-42q-7 0 -11 4t-5 11l-62 478q-1 13 -3.5 35.5t-1.5 35.5q-3 -13 -9.5 -35t-12.5 -37l-181 -477q-3 -7 -7.5 -11
t-12.5 -4h-42q-7 0 -11 4t-5 11l-85 650q-1 7 2.5 11t11.5 4h42q8 0 11.5 -4t4.5 -11l61 -470q2 -15 4 -39.5t3 -34.5q2 9 10.5 33.5t14.5 40.5l178 470q3 7 7.5 11t11.5 4h40q8 0 11.5 -4t4.5 -11z" />
    <glyph glyph-name="Wcircumflex" unicode="&#x174;" horiz-adv-x="816" 
d="M471 834l-63 -82q-4 -5 -9 -9.5t-12 -4.5h-33q-8 0 -9.5 4t2.5 10l90 111q5 6 11.5 10.5t14.5 4.5h25q8 0 12.5 -4t8.5 -10l64 -112q4 -6 1 -10t-10 -4h-31q-7 0 -12 4t-8 10zM495 665l61 -470q2 -19 4 -43.5t2 -36.5q2 12 10.5 36.5t15.5 43.5l177 470q3 7 7.5 11
t12.5 4h38q7 0 9.5 -4t-0.5 -11l-244 -650q-3 -7 -8 -11t-12 -4h-42q-7 0 -11 4t-5 11l-62 478q-1 13 -3.5 35.5t-1.5 35.5q-3 -13 -9.5 -35t-12.5 -37l-181 -477q-3 -7 -7.5 -11t-12.5 -4h-42q-7 0 -11 4t-5 11l-85 650q-1 7 2.5 11t11.5 4h42q8 0 11.5 -4t4.5 -11l61 -470
q2 -15 4 -39.5t3 -34.5q2 9 10.5 33.5t14.5 40.5l178 470q3 7 7.5 11t11.5 4h40q8 0 11.5 -4t4.5 -11z" />
    <glyph glyph-name="Wgrave" unicode="&#x1e80;" horiz-adv-x="818" 
d="M426 747l-65 116q-3 6 -0.5 10.5t10.5 4.5h42q8 0 12 -3.5t7 -9.5l52 -113q3 -7 0.5 -10.5t-9.5 -3.5h-32q-7 0 -11 2.5t-6 6.5zM495 665l61 -470q2 -19 4 -43.5t2 -36.5q2 12 10.5 36.5t15.5 43.5l177 470q3 7 7.5 11t12.5 4h38q7 0 9.5 -4t-0.5 -11l-244 -650
q-3 -7 -8 -11t-12 -4h-42q-7 0 -11 4t-5 11l-62 478q-1 13 -3.5 35.5t-1.5 35.5q-3 -13 -9.5 -35t-12.5 -37l-181 -477q-3 -7 -7.5 -11t-12.5 -4h-42q-7 0 -11 4t-5 11l-85 650q-1 7 2.5 11t11.5 4h42q8 0 11.5 -4t4.5 -11l61 -470q2 -15 4 -39.5t3 -34.5q2 9 10.5 33.5
t14.5 40.5l178 470q3 7 7.5 11t11.5 4h40q8 0 11.5 -4t4.5 -11z" />
    <glyph glyph-name="Wacute" unicode="&#x1e82;" horiz-adv-x="818" 
d="M591 863l-92 -116q-3 -3 -7.5 -6t-11.5 -3h-35q-7 0 -9 3.5t3 10.5l81 112q4 6 9 10t12 4h45q8 0 9 -4.5t-4 -10.5zM495 665l61 -470q2 -19 4 -43.5t2 -36.5q2 12 10.5 36.5t15.5 43.5l177 470q3 7 7.5 11t12.5 4h38q7 0 9.5 -4t-0.5 -11l-244 -650q-3 -7 -8 -11t-12 -4
h-42q-7 0 -11 4t-5 11l-62 478q-1 13 -3.5 35.5t-1.5 35.5q-3 -13 -9.5 -35t-12.5 -37l-181 -477q-3 -7 -7.5 -11t-12.5 -4h-42q-7 0 -11 4t-5 11l-85 650q-1 7 2.5 11t11.5 4h42q8 0 11.5 -4t4.5 -11l61 -470q2 -15 4 -39.5t3 -34.5q2 9 10.5 33.5t14.5 40.5l178 470
q3 7 7.5 11t11.5 4h40q8 0 11.5 -4t4.5 -11z" />
    <glyph glyph-name="Wdieresis" unicode="&#x1e84;" horiz-adv-x="818" 
d="M495 665l61 -470q2 -19 4 -43.5t2 -36.5q2 12 10.5 36.5t15.5 43.5l177 470q3 7 7.5 11t12.5 4h38q7 0 9.5 -4t-0.5 -11l-244 -650q-3 -7 -8 -11t-12 -4h-42q-7 0 -11 4t-5 11l-62 478q-1 13 -3.5 35.5t-1.5 35.5q-3 -13 -9.5 -35t-12.5 -37l-181 -477q-3 -7 -7.5 -11
t-12.5 -4h-42q-7 0 -11 4t-5 11l-85 650q-1 7 2.5 11t11.5 4h42q8 0 11.5 -4t4.5 -11l61 -470q2 -15 4 -39.5t3 -34.5q2 9 10.5 33.5t14.5 40.5l178 470q3 7 7.5 11t11.5 4h40q8 0 11.5 -4t4.5 -11zM552 856l-12 -97q-1 -8 -5 -11.5t-11 -3.5h-25q-7 0 -10 3.5t-2 11.5
l12 97q1 7 5 10.5t11 3.5h25q7 0 10 -3.5t2 -10.5zM445 856l-12 -97q-1 -8 -5 -11.5t-11 -3.5h-25q-7 0 -10 3.5t-2 11.5l11 97q1 7 5.5 10.5t11.5 3.5h25q7 0 10 -3.5t2 -10.5z" />
    <glyph glyph-name="X" unicode="X" horiz-adv-x="530" 
d="M312 345l154 -330q3 -6 1 -10.5t-10 -4.5h-48q-8 0 -13 4.5t-8 10.5l-126 268l-186 -268q-4 -6 -9.5 -10.5t-13.5 -4.5h-47q-7 0 -8.5 5.5t2.5 11.5l233 330l-148 317q-3 6 -1 11t9 5h49q7 0 12 -4.5t8 -10.5l122 -258l178 258q4 7 10 11t13 4h48q7 0 8 -4t-3 -11z" />
    <glyph glyph-name="Y" unicode="Y" horiz-adv-x="521" 
d="M147 665l111 -290q3 -7 6 -17.5t4 -20.5q3 7 8 18t11 20l187 290q4 6 8 10.5t12 4.5h43q8 0 10.5 -4t-1.5 -11l-249 -388l-33 -262q-1 -7 -4 -11t-11 -4h-42q-8 0 -11.5 4t-2.5 11l32 254l-155 396q-3 7 1.5 11t11.5 4h47q8 0 11.5 -4t5.5 -11z" />
    <glyph glyph-name="Yacute" unicode="&#xdd;" horiz-adv-x="521" 
d="M147 665l111 -290q3 -7 6 -17.5t4 -20.5q3 7 8 18t11 20l187 290q4 6 8 10.5t12 4.5h43q8 0 10.5 -4t-1.5 -11l-249 -388l-33 -262q-1 -7 -4 -11t-11 -4h-42q-8 0 -11.5 4t-2.5 11l32 254l-155 396q-3 7 1.5 11t11.5 4h47q8 0 11.5 -4t5.5 -11zM442 863l-92 -116
q-3 -3 -7.5 -6t-11.5 -3h-35q-7 0 -9 3.5t3 10.5l81 112q4 6 9 10t12 4h45q8 0 9 -4.5t-4 -10.5z" />
    <glyph glyph-name="Ycircumflex" unicode="&#x176;" horiz-adv-x="521" 
d="M147 665l111 -290q3 -7 6 -17.5t4 -20.5q3 7 8 18t11 20l187 290q4 6 8 10.5t12 4.5h43q8 0 10.5 -4t-1.5 -11l-249 -388l-33 -262q-1 -7 -4 -11t-11 -4h-42q-8 0 -11.5 4t-2.5 11l32 254l-155 396q-3 7 1.5 11t11.5 4h47q8 0 11.5 -4t5.5 -11zM325 834l-63 -82
q-4 -5 -9 -9.5t-12 -4.5h-33q-8 0 -9.5 4t2.5 10l90 111q5 6 11.5 10.5t14.5 4.5h25q8 0 12.5 -4t8.5 -10l64 -112q4 -6 1 -10t-10 -4h-31q-7 0 -12 4t-8 10z" />
    <glyph glyph-name="Ydieresis" unicode="&#x178;" horiz-adv-x="521" 
d="M147 665l111 -290q3 -7 6 -17.5t4 -20.5q3 7 8 18t11 20l187 290q4 6 8 10.5t12 4.5h43q8 0 10.5 -4t-1.5 -11l-249 -388l-33 -262q-1 -7 -4 -11t-11 -4h-42q-8 0 -11.5 4t-2.5 11l32 254l-155 396q-3 7 1.5 11t11.5 4h47q8 0 11.5 -4t5.5 -11zM402 856l-12 -97
q-1 -8 -5 -11.5t-11 -3.5h-25q-7 0 -10 3.5t-2 11.5l12 97q1 7 5 10.5t11 3.5h25q7 0 10 -3.5t2 -10.5zM295 856l-12 -97q-1 -8 -5 -11.5t-11 -3.5h-25q-7 0 -10 3.5t-2 11.5l11 97q1 7 5.5 10.5t11.5 3.5h25q7 0 10 -3.5t2 -10.5z" />
    <glyph glyph-name="Ygrave" unicode="&#x1ef2;" horiz-adv-x="522" 
d="M147 665l111 -290q3 -7 6 -17.5t4 -20.5q3 7 8 18t11 20l187 290q4 6 8 10.5t12 4.5h43q8 0 10.5 -4t-1.5 -11l-249 -388l-33 -262q-1 -7 -4 -11t-11 -4h-42q-8 0 -11.5 4t-2.5 11l32 254l-155 396q-3 7 1.5 11t11.5 4h47q8 0 11.5 -4t5.5 -11zM278 747l-65 116
q-3 6 -0.5 10.5t10.5 4.5h42q8 0 12 -3.5t7 -9.5l52 -113q3 -7 0.5 -10.5t-9.5 -3.5h-32q-7 0 -11 2.5t-6 6.5z" />
    <glyph glyph-name="Z" unicode="Z" horiz-adv-x="480" 
d="M115 680h349q7 0 10.5 -3.5t2.5 -11.5l-4 -31q-1 -4 -3 -8t-3 -7l-373 -558h310q7 0 10.5 -3.5t2.5 -10.5l-4 -32q-1 -8 -5 -11.5t-11 -3.5h-383q-7 0 -11 3.5t-3 10.5l4 31q1 4 3 8l4 8l373 558h-277q-7 0 -10.5 3.5t-2.5 11.5l4 31q1 8 5.5 11.5t11.5 3.5z" />
    <glyph glyph-name="Zacute" unicode="&#x179;" horiz-adv-x="475" 
d="M115 680h349q7 0 10.5 -3.5t2.5 -11.5l-4 -31q-1 -4 -3 -8t-3 -7l-373 -558h310q7 0 10.5 -3.5t2.5 -10.5l-4 -32q-1 -8 -5 -11.5t-11 -3.5h-383q-7 0 -11 3.5t-3 10.5l4 31q1 4 3 8l4 8l373 558h-277q-7 0 -10.5 3.5t-2.5 11.5l4 31q1 8 5.5 11.5t11.5 3.5zM407 863
l-92 -116q-3 -3 -7.5 -6t-11.5 -3h-35q-7 0 -9 3.5t3 10.5l81 112q4 6 9 10t12 4h45q8 0 9 -4.5t-4 -10.5z" />
    <glyph glyph-name="Zdotaccent" unicode="&#x17b;" horiz-adv-x="475" 
d="M333 839l-9 -79q-1 -7 -4.5 -10.5t-10.5 -3.5h-42q-8 0 -11 3t-2 11l9 79q1 7 5 10.5t11 3.5h42q7 0 10 -3.5t2 -10.5zM115 680h349q7 0 10.5 -3.5t2.5 -11.5l-4 -31q-1 -4 -3 -8t-3 -7l-373 -558h310q7 0 10.5 -3.5t2.5 -10.5l-4 -32q-1 -8 -5 -11.5t-11 -3.5h-383
q-7 0 -11 3.5t-3 10.5l4 31q1 4 3 8l4 8l373 558h-277q-7 0 -10.5 3.5t-2.5 11.5l4 31q1 8 5.5 11.5t11.5 3.5z" />
    <glyph glyph-name="Zcaron" unicode="&#x17d;" horiz-adv-x="475" 
d="M115 680h349q7 0 10.5 -3.5t2.5 -11.5l-4 -31q-1 -4 -3 -8t-3 -7l-373 -558h310q7 0 10.5 -3.5t2.5 -10.5l-4 -32q-1 -8 -5 -11.5t-11 -3.5h-383q-7 0 -11 3.5t-3 10.5l4 31q1 4 3 8l4 8l373 558h-277q-7 0 -10.5 3.5t-2.5 11.5l4 31q1 8 5.5 11.5t11.5 3.5zM248 863
l43 -82l63 82q4 6 9.5 10.5t12.5 4.5h33q7 0 9 -4.5t-3 -10.5l-91 -111q-5 -6 -11 -10t-14 -4h-25q-7 0 -12.5 4t-9.5 11l-63 110q-4 6 -1 10.5t11 4.5h31q7 0 11 -5t7 -10z" />
    <glyph glyph-name="AE" unicode="&#xc6;" horiz-adv-x="827" 
d="M396 502l-176 -252h178l39 313q-10 -17 -21.5 -33.5t-19.5 -27.5zM-7 0q-7 0 -11 4t1 11l459 650q3 4 9.5 9.5t16.5 5.5h336q7 0 10.5 -3.5t2.5 -10.5l-4 -30q-1 -7 -5 -11t-12 -4h-284l-29 -236h267q7 0 10.5 -3.5t2.5 -10.5l-4 -28q-1 -8 -5 -11.5t-11 -3.5h-267
l-34 -269h297q7 0 10.5 -3.5t2.5 -10.5l-4 -30q-1 -8 -4.5 -11.5t-11.5 -3.5h-346q-8 0 -13 3t-4 13l22 177h-212l-125 -178q-4 -6 -8.5 -10.5t-11.5 -4.5h-41z" />
    <glyph glyph-name="AEacute" unicode="&#x1fc;" horiz-adv-x="827" 
d="M396 502l-176 -252h178l39 313q-10 -17 -21.5 -33.5t-19.5 -27.5zM-7 0q-7 0 -11 4t1 11l459 650q3 4 9.5 9.5t16.5 5.5h336q7 0 10.5 -3.5t2.5 -10.5l-4 -30q-1 -7 -5 -11t-12 -4h-284l-29 -236h267q7 0 10.5 -3.5t2.5 -10.5l-4 -28q-1 -8 -5 -11.5t-11 -3.5h-267
l-34 -269h297q7 0 10.5 -3.5t2.5 -10.5l-4 -30q-1 -8 -4.5 -11.5t-11.5 -3.5h-346q-8 0 -13 3t-4 13l22 177h-212l-125 -178q-4 -6 -8.5 -10.5t-11.5 -4.5h-41zM645 863l-92 -116q-3 -3 -7.5 -6t-11.5 -3h-35q-7 0 -9 3.5t3 10.5l81 112q4 6 9 10t12 4h45q8 0 9 -4.5
t-4 -10.5z" />
    <glyph glyph-name="Eth" unicode="&#xd0;" horiz-adv-x="615" 
d="M289 0h-207q-6 0 -9.5 4t-2.5 11l37 302h-69q-7 0 -10.5 3.5t-2.5 10.5l3 26q1 7 5.5 10.5t11.5 3.5h69l36 294q1 7 5 11t11 4h199q112 0 157.5 -37.5t45.5 -90.5v-10.5t-1 -14.5l-47 -381q-7 -60 -56.5 -103t-174.5 -43zM147 61h145q80 0 116.5 26.5t41.5 69.5l44 360
q1 6 1.5 11.5t0.5 8.5q0 38 -30.5 60t-104.5 22h-145l-31 -248h128q7 0 10.5 -3.5t2.5 -10.5l-3 -26q-1 -7 -5 -10.5t-12 -3.5h-127z" />
    <glyph glyph-name="Oslash" unicode="&#xd8;" horiz-adv-x="591" 
d="M134 153q-1 -11 -1 -19.5t1 -16.5l301 492q-16 9 -40 13.5t-58 4.5q-78 0 -115 -26.5t-42 -69.5zM267 53q79 0 115 26.5t41 69.5l47 378q1 13 1 22t-1 16l-302 -493q16 -9 40.5 -14t58.5 -5zM118 -10q-7 -12 -13.5 -17.5t-17.5 -5.5h-25q-9 0 -10 7t4 16l32 53
q-15 16 -22 35t-7 40q0 5 0.5 10.5t1.5 12.5l49 401q7 60 57 103t175 43q41 0 73 -6t56 -16l14 24q5 9 11.5 15.5t17.5 6.5h26q10 0 10 -7.5t-4 -14.5l-32 -52q16 -16 23 -35.5t7 -41.5v-9.5t-1 -12.5l-49 -401q-7 -60 -57.5 -103t-175.5 -43q-41 0 -73.5 5.5t-55.5 15.5z
" />
    <glyph glyph-name="Oslashacute" unicode="&#x1fe;" horiz-adv-x="591" 
d="M478 863l-92 -116q-3 -3 -7.5 -6t-11.5 -3h-35q-7 0 -9 3.5t3 10.5l81 112q4 6 9 10t12 4h45q8 0 9 -4.5t-4 -10.5zM134 153q-1 -11 -1 -19.5t1 -16.5l301 492q-16 9 -40 13.5t-58 4.5q-78 0 -115 -26.5t-42 -69.5zM267 53q79 0 115 26.5t41 69.5l47 378q1 13 1 22t-1 16
l-302 -493q16 -9 40.5 -14t58.5 -5zM118 -10q-7 -12 -13.5 -17.5t-17.5 -5.5h-25q-9 0 -10 7t4 16l32 53q-15 16 -22 35t-7 40q0 5 0.5 10.5t1.5 12.5l49 401q7 60 57 103t175 43q41 0 73 -6t56 -16l14 24q5 9 11.5 15.5t17.5 6.5h26q10 0 10 -7.5t-4 -14.5l-32 -52
q16 -16 23 -35.5t7 -41.5v-9.5t-1 -12.5l-49 -401q-7 -60 -57.5 -103t-175.5 -43q-41 0 -73.5 5.5t-55.5 15.5z" />
    <glyph glyph-name="Thorn" unicode="&#xde;" horiz-adv-x="574" 
d="M208 665l-20 -171h139q110 0 155.5 -37.5t45.5 -89.5v-9t-1 -11l-13 -101q-7 -60 -56.5 -102.5t-175.5 -42.5h-143l-11 -86q-1 -7 -4 -11t-11 -4h-42q-7 0 -11 3t-3 12l80 650q1 7 5 11t12 4h42q7 0 10 -4t2 -11zM321 434h-141l-34 -274h142q79 0 115.5 26.5t41.5 70.5
l10 80q1 5 1 9v6q0 38 -30.5 60t-104.5 22z" />
    <glyph glyph-name="Dcroat" unicode="&#x110;" horiz-adv-x="615" 
d="M289 0h-207q-6 0 -9.5 4t-2.5 11l37 302h-69q-7 0 -10.5 3.5t-2.5 10.5l3 26q1 7 5.5 10.5t11.5 3.5h69l36 294q1 7 5 11t11 4h199q112 0 157.5 -37.5t45.5 -90.5v-10.5t-1 -14.5l-47 -381q-7 -60 -56.5 -103t-174.5 -43zM147 61h145q80 0 116.5 26.5t41.5 69.5l44 360
q1 6 1.5 11.5t0.5 8.5q0 38 -30.5 60t-104.5 22h-145l-31 -248h128q7 0 10.5 -3.5t2.5 -10.5l-3 -26q-1 -7 -5 -10.5t-12 -3.5h-127z" />
    <glyph glyph-name="Hbar" unicode="&#x126;" horiz-adv-x="623" 
d="M181 390h290l13 105h-290zM134 15q-1 -7 -4 -11t-11 -4h-42q-7 0 -11 4t-3 11l59 480h-35q-7 0 -11 3.5t-3 11.5l3 21q1 8 4.5 11t11.5 3h36l15 120q1 7 5.5 11t11.5 4h42q8 0 10.5 -4t1.5 -11l-14 -120h290l15 120q1 7 5 11t12 4h42q7 0 10 -4t2 -11l-15 -120h37
q7 0 10.5 -3t2.5 -11l-2 -21q-1 -8 -5 -11.5t-11 -3.5h-38l-59 -480q-1 -7 -4.5 -11t-10.5 -4h-42q-8 0 -11.5 4t-2.5 11l39 315h-290z" />
    <glyph glyph-name="IJ" unicode="&#x132;" horiz-adv-x="751" 
d="M208 665l-80 -650q-1 -7 -4 -11t-11 -4h-42q-7 0 -11 4t-3 11l80 650q1 7 5.5 11t11.5 4h42q8 0 10.5 -4t1.5 -11zM338 183l-4 -32q-1 -6 -1.5 -12t-0.5 -10q0 -34 24.5 -55t87.5 -21q71 0 98 26.5t32 69.5l64 516q1 7 4.5 11t11.5 4h43q7 0 10 -4t2 -11l-64 -527
q-7 -60 -48.5 -103t-157.5 -43q-99 0 -138.5 36t-39.5 87q0 6 0.5 14t1.5 15l5 39q1 8 5 12t12 4h41q8 0 10.5 -4.5t1.5 -11.5z" />
    <glyph glyph-name="Ldot" unicode="&#x13f;" horiz-adv-x="480" 
d="M208 665l-74 -604h280q7 0 10.5 -3.5t2.5 -10.5l-4 -32q-1 -8 -4.5 -11.5t-11.5 -3.5h-338q-7 0 -10 4t-2 11l80 650q1 7 5.5 11t11.5 4h42q8 0 10.5 -4t1.5 -11zM411 393l-10 -78q-1 -8 -4.5 -11.5t-10.5 -3.5h-42q-7 0 -10 3.5t-2 11.5l9 78q1 7 5 11t11 4h42
q7 0 10 -4t2 -11z" />
    <glyph glyph-name="Lslash" unicode="&#x141;" horiz-adv-x="484" 
d="M419 0h-338q-7 0 -10 4t-2 11l35 287l-57 -22q-7 -2 -11 -0.5t-7 8.5l-5 14q-2 7 1 11.5t10 7.5l75 30l39 314q1 7 5.5 11t11.5 4h42q8 0 10.5 -4t1.5 -11l-35 -285l61 24q7 2 11.5 0.5t6.5 -8.5l5 -15q2 -6 -1 -11t-10 -8l-79 -31l-33 -270h280q7 0 10.5 -3.5t2.5 -10.5
l-4 -32q-1 -8 -4.5 -11.5t-11.5 -3.5z" />
    <glyph glyph-name="Eng" unicode="&#x14a;" horiz-adv-x="611" 
d="M568 665l-92 -743q-7 -59 -51.5 -94t-147.5 -35h-8q-7 0 -10.5 4t-2.5 11l3 28q1 7 5 11t12 4h6q64 0 94 21t34 56l10 84l-205 465q-6 14 -14 33.5t-12 32.5l-65 -528q-1 -7 -4.5 -11t-10.5 -4h-38q-8 0 -11.5 4t-2.5 11l80 650q1 7 5 11t12 4h35q5 0 8.5 -1t4.5 -5
l211 -477q5 -11 13.5 -32t10.5 -28l64 528q1 7 5 11t11 4h39q7 0 10 -4t2 -11z" />
    <glyph glyph-name="OE" unicode="&#x152;" horiz-adv-x="869" 
d="M422 147l47 381q1 6 1 10.5v8.5q0 37 -30.5 59.5t-104.5 22.5q-77 0 -114 -27t-42 -71l-47 -379q-1 -5 -1 -10v-9q0 -37 31 -59.5t104 -22.5q79 0 115 26.5t41 69.5zM406 15l2 16q-26 -18 -63 -28.5t-86 -10.5q-110 0 -155.5 36.5t-45.5 88.5q0 5 0.5 11t1.5 13l49 401
q7 59 55 102.5t169 43.5q49 0 87.5 -10t63.5 -29l2 16q1 7 5 11t11 4h342q7 0 10.5 -3.5t2.5 -10.5l-4 -31q-1 -7 -5 -10.5t-12 -3.5h-284l-29 -236h266q7 0 11 -3t3 -10l-4 -30q-1 -7 -5 -10.5t-11 -3.5h-267l-34 -269h297q7 0 10.5 -3t2.5 -11l-4 -30q-1 -8 -4.5 -11.5
t-10.5 -3.5h-354q-7 0 -10.5 4t-2.5 11z" />
    <glyph glyph-name="Tbar" unicode="&#x166;" horiz-adv-x="522" 
d="M262 15q-1 -7 -4.5 -11t-11.5 -4h-42q-7 0 -11 4t-3 11l47 382h-141q-7 0 -11 3.5t-3 11.5l3 21q1 7 5 10.5t11 3.5h143l21 172h-172q-7 0 -10.5 3.5t-2.5 11.5l3 31q1 8 5 11.5t11 3.5h417q7 0 10.5 -3.5t2.5 -11.5l-3 -31q-1 -8 -5.5 -11.5t-11.5 -3.5h-172l-21 -172
h143q8 0 11.5 -3.5t2.5 -10.5l-3 -21q-1 -8 -4.5 -11.5t-11.5 -3.5h-145z" />
    <glyph glyph-name="Delta" unicode="&#x394;" horiz-adv-x="379" 
d="M108 419h162q12 0 17.5 -5.5t5.5 -17.5v-162q0 -11 -5.5 -16.5t-17.5 -5.5h-162q-11 0 -16.5 5.5t-5.5 16.5v162q0 12 5.5 17.5t16.5 5.5z" />
    <glyph glyph-name="Omega" unicode="&#x3a9;" horiz-adv-x="379" 
d="M67 314q0 50 36 86t85 36q50 0 86 -36t36 -86q0 -49 -36 -85t-86 -36q-49 0 -85 36t-36 85zM85 314q0 -43 30 -73t73 -30t74 30t31 73t-31 74t-74 31t-73 -31t-30 -74z" />
    <glyph glyph-name="a" unicode="a" horiz-adv-x="524" 
d="M147 364l-30 -234q-1 -6 -1 -8.5v-5.5q0 -27 19 -44.5t62 -17.5q54 0 96.5 21.5t60.5 34.5l34 273q-15 13 -51.5 35t-91.5 22q-48 0 -71 -22.5t-27 -53.5zM349 52q-24 -17 -68.5 -38.5t-108.5 -21.5q-63 0 -94 29t-31 78v8.5t1 12.5l31 254q7 57 43 92.5t110 35.5
q62 0 104 -22t61 -39l7 38q1 7 4.5 11t11.5 4h37q6 0 9.5 -3.5t2.5 -11.5l-57 -464q-1 -7 -5 -11t-11 -4h-37q-7 0 -10.5 3.5t-2.5 11.5z" />
    <glyph glyph-name="agrave" unicode="&#xe0;" horiz-adv-x="524" 
d="M147 364l-30 -234q-1 -6 -1 -8.5v-5.5q0 -27 19 -44.5t62 -17.5q54 0 96.5 21.5t60.5 34.5l34 273q-15 13 -51.5 35t-91.5 22q-48 0 -71 -22.5t-27 -53.5zM349 52q-24 -17 -68.5 -38.5t-108.5 -21.5q-63 0 -94 29t-31 78v8.5t1 12.5l31 254q7 57 43 92.5t110 35.5
q62 0 104 -22t61 -39l7 38q1 7 4.5 11t11.5 4h37q6 0 9.5 -3.5t2.5 -11.5l-57 -464q-1 -7 -5 -11t-11 -4h-37q-7 0 -10.5 3.5t-2.5 11.5zM259 577l-65 116q-3 6 -0.5 10.5t10.5 4.5h42q8 0 11.5 -4t6.5 -10l53 -112q3 -7 0.5 -10.5t-9.5 -3.5h-32q-7 0 -11 2.5t-6 6.5z" />
    <glyph glyph-name="aacute" unicode="&#xe1;" horiz-adv-x="524" 
d="M147 364l-30 -234q-1 -6 -1 -8.5v-5.5q0 -27 19 -44.5t62 -17.5q54 0 96.5 21.5t60.5 34.5l34 273q-15 13 -51.5 35t-91.5 22q-48 0 -71 -22.5t-27 -53.5zM349 52q-24 -17 -68.5 -38.5t-108.5 -21.5q-63 0 -94 29t-31 78v8.5t1 12.5l31 254q7 57 43 92.5t110 35.5
q62 0 104 -22t61 -39l7 38q1 7 4.5 11t11.5 4h37q6 0 9.5 -3.5t2.5 -11.5l-57 -464q-1 -7 -5 -11t-11 -4h-37q-7 0 -10.5 3.5t-2.5 11.5zM406 693l-93 -116q-2 -3 -7 -6t-12 -3h-35q-6 0 -8 3.5t3 10.5l80 112q4 6 9 10t12 4h45q8 0 9.5 -4.5t-3.5 -10.5z" />
    <glyph glyph-name="acircumflex" unicode="&#xe2;" horiz-adv-x="524" 
d="M147 364l-30 -234q-1 -6 -1 -8.5v-5.5q0 -27 19 -44.5t62 -17.5q54 0 96.5 21.5t60.5 34.5l34 273q-15 13 -51.5 35t-91.5 22q-48 0 -71 -22.5t-27 -53.5zM349 52q-24 -17 -68.5 -38.5t-108.5 -21.5q-63 0 -94 29t-31 78v8.5t1 12.5l31 254q7 57 43 92.5t110 35.5
q62 0 104 -22t61 -39l7 38q1 7 4.5 11t11.5 4h37q6 0 9.5 -3.5t2.5 -11.5l-57 -464q-1 -7 -5 -11t-11 -4h-37q-7 0 -10.5 3.5t-2.5 11.5zM294 664l-63 -82q-4 -5 -9.5 -9.5t-12.5 -4.5h-33q-7 0 -8.5 4t2.5 10l90 111q5 6 11.5 10.5t13.5 4.5h26q8 0 12.5 -4t8.5 -10
l64 -112q4 -6 1 -10t-10 -4h-31q-7 0 -12 4t-8 10z" />
    <glyph glyph-name="atilde" unicode="&#xe3;" horiz-adv-x="524" 
d="M147 364l-30 -234q-1 -6 -1 -8.5v-5.5q0 -27 19 -44.5t62 -17.5q54 0 96.5 21.5t60.5 34.5l34 273q-15 13 -51.5 35t-91.5 22q-48 0 -71 -22.5t-27 -53.5zM349 52q-24 -17 -68.5 -38.5t-108.5 -21.5q-63 0 -94 29t-31 78v8.5t1 12.5l31 254q7 57 43 92.5t110 35.5
q62 0 104 -22t61 -39l7 38q1 7 4.5 11t11.5 4h37q6 0 9.5 -3.5t2.5 -11.5l-57 -464q-1 -7 -5 -11t-11 -4h-37q-7 0 -10.5 3.5t-2.5 11.5zM226 643q-16 0 -21.5 -9.5t-9.5 -31.5l-3 -14q-1 -8 -5.5 -11t-11.5 -3h-21q-7 0 -9.5 5t-1.5 12l5 25q8 43 28.5 62t50.5 19
q13 0 27.5 -5t27.5 -15l41 -33q8 -7 16.5 -11.5t15.5 -4.5q16 0 22.5 9.5t9.5 37.5l1 9q1 7 5.5 10t11.5 3h22q8 0 10.5 -4.5t1.5 -11.5l-4 -25q-7 -44 -30 -62t-51 -18q-17 0 -30.5 5t-25.5 15l-41 33q-8 7 -16 10.5t-15 3.5z" />
    <glyph glyph-name="adieresis" unicode="&#xe4;" horiz-adv-x="524" 
d="M147 364l-30 -234q-1 -6 -1 -8.5v-5.5q0 -27 19 -44.5t62 -17.5q54 0 96.5 21.5t60.5 34.5l34 273q-15 13 -51.5 35t-91.5 22q-48 0 -71 -22.5t-27 -53.5zM349 52q-24 -17 -68.5 -38.5t-108.5 -21.5q-63 0 -94 29t-31 78v8.5t1 12.5l31 254q7 57 43 92.5t110 35.5
q62 0 104 -22t61 -39l7 38q1 7 4.5 11t11.5 4h37q6 0 9.5 -3.5t2.5 -11.5l-57 -464q-1 -7 -5 -11t-11 -4h-37q-7 0 -10.5 3.5t-2.5 11.5zM378 688l-11 -97q-1 -7 -5 -10.5t-12 -3.5h-24q-8 0 -11 3.5t-2 10.5l12 97q1 7 5 11t11 4h25q8 0 10.5 -4t1.5 -11zM271 688l-12 -97
q-1 -7 -4.5 -10.5t-11.5 -3.5h-24q-8 0 -11 3.5t-2 10.5l12 97q1 7 5 11t11 4h25q7 0 10 -4t2 -11z" />
    <glyph glyph-name="aring" unicode="&#xe5;" horiz-adv-x="524" 
d="M147 364l-30 -234q-1 -6 -1 -8.5v-5.5q0 -27 19 -44.5t62 -17.5q54 0 96.5 21.5t60.5 34.5l34 273q-15 13 -51.5 35t-91.5 22q-48 0 -71 -22.5t-27 -53.5zM349 52q-24 -17 -68.5 -38.5t-108.5 -21.5q-63 0 -94 29t-31 78v8.5t1 12.5l31 254q7 57 43 92.5t110 35.5
q62 0 104 -22t61 -39l7 38q1 7 4.5 11t11.5 4h37q6 0 9.5 -3.5t2.5 -11.5l-57 -464q-1 -7 -5 -11t-11 -4h-37q-7 0 -10.5 3.5t-2.5 11.5zM397 646l-2 -26q-2 -29 -25.5 -47.5t-71.5 -18.5t-69.5 17.5t-18.5 54.5l2 26q2 29 26.5 48.5t73.5 19.5q47 0 67.5 -19.5t17.5 -54.5z
M355 627l1 20q1 15 -9 25.5t-39 10.5q-28 0 -41.5 -10.5t-14.5 -26.5l-1 -15q-1 -22 9 -31.5t38 -9.5t42 10t15 27z" />
    <glyph glyph-name="amacron" unicode="&#x101;" horiz-adv-x="524" 
d="M147 364l-30 -234q-1 -6 -1 -8.5v-5.5q0 -27 19 -44.5t62 -17.5q54 0 96.5 21.5t60.5 34.5l34 273q-15 13 -51.5 35t-91.5 22q-48 0 -71 -22.5t-27 -53.5zM349 52q-24 -17 -68.5 -38.5t-108.5 -21.5q-63 0 -94 29t-31 78v8.5t1 12.5l31 254q7 57 43 92.5t110 35.5
q62 0 104 -22t61 -39l7 38q1 7 4.5 11t11.5 4h37q6 0 9.5 -3.5t2.5 -11.5l-57 -464q-1 -7 -5 -11t-11 -4h-37q-7 0 -10.5 3.5t-2.5 11.5zM172 651h250q8 0 11.5 -3t2.5 -10l-3 -26q-1 -8 -5.5 -11.5t-11.5 -3.5h-251q-7 0 -10.5 3.5t-2.5 11.5l3 25q1 7 5 10.5t12 3.5z" />
    <glyph glyph-name="abreve" unicode="&#x103;" horiz-adv-x="524" 
d="M147 364l-30 -234q-1 -6 -1 -8.5v-5.5q0 -27 19 -44.5t62 -17.5q54 0 96.5 21.5t60.5 34.5l34 273q-15 13 -51.5 35t-91.5 22q-48 0 -71 -22.5t-27 -53.5zM349 52q-24 -17 -68.5 -38.5t-108.5 -21.5q-63 0 -94 29t-31 78v8.5t1 12.5l31 254q7 57 43 92.5t110 35.5
q62 0 104 -22t61 -39l7 38q1 7 4.5 11t11.5 4h37q6 0 9.5 -3.5t2.5 -11.5l-57 -464q-1 -7 -5 -11t-11 -4h-37q-7 0 -10.5 3.5t-2.5 11.5zM228 683l-2 -22q-1 -7 -1 -10v-4q0 -22 13.5 -35.5t48.5 -13.5q43 0 57.5 20.5t16.5 51.5l1 13q1 7 4.5 10t11.5 3h25q7 0 9.5 -3
t1.5 -10l-1 -12q-4 -54 -32 -85.5t-97 -31.5q-55 0 -83 23t-28 66v7.5t1 11.5l2 21q1 7 4.5 10t10.5 3h25q7 0 10 -3t2 -10z" />
    <glyph glyph-name="aogonek" unicode="&#x105;" horiz-adv-x="524" 
d="M390 -154h-26q-36 0 -62.5 17t-26.5 58q0 25 17.5 54t54.5 48l2 29q-24 -17 -68.5 -38.5t-108.5 -21.5q-63 0 -94.5 29t-31.5 78q0 5 0.5 10.5t1.5 10.5l31 254q7 57 43 92.5t110 35.5q62 0 103.5 -22t61.5 -39l7 38q1 7 4.5 11t11.5 4h37q6 0 9.5 -3.5t2.5 -11.5
l-57 -464q-1 -8 -5 -11.5t-11 -3.5h-3q-28 -4 -46 -25t-18 -41q0 -19 12.5 -29t40.5 -10h13q8 0 12 -3.5t3 -10.5l-2 -20q-1 -8 -6 -11.5t-12 -3.5zM147 364l-30 -234q-1 -6 -1 -9v-5q0 -27 19 -44.5t62 -17.5q54 0 96.5 21.5t60.5 34.5l34 273q-15 13 -51.5 35t-91.5 22
q-48 0 -71 -22.5t-27 -53.5z" />
    <glyph glyph-name="aringacute" unicode="&#x1fb;" horiz-adv-x="524" 
d="M295 554q-45 0 -67 16.5t-22 40.5v5.5t1 9.5l3 26q3 26 22 44.5t57 22.5l65 91q4 6 9 10t12 4h45q8 0 9.5 -4.5t-3.5 -10.5l-76 -95q22 -7 33.5 -21t11.5 -32v-6.5t-1 -8.5l-2 -26q-2 -29 -25.5 -47.5t-71.5 -18.5zM352 627l1 12v13q0 14 -12 22.5t-36 8.5
q-28 0 -41 -10.5t-15 -26.5l-2 -13q-1 -5 -1 -7.5v-3.5q0 -14 12 -23t37 -9q28 0 42 10t15 27zM147 364l-30 -234q-1 -6 -1 -8.5v-5.5q0 -27 19 -44.5t62 -17.5q54 0 96.5 21.5t60.5 34.5l34 273q-15 13 -51.5 35t-91.5 22q-48 0 -71 -22.5t-27 -53.5zM349 52
q-24 -17 -68.5 -38.5t-108.5 -21.5q-63 0 -94 29t-31 78v8.5t1 12.5l31 254q7 57 43 92.5t110 35.5q62 0 104 -22t61 -39l7 38q1 7 4.5 11t11.5 4h37q6 0 9.5 -3.5t2.5 -11.5l-57 -464q-1 -7 -5 -11t-11 -4h-37q-7 0 -10.5 3.5t-2.5 11.5z" />
    <glyph glyph-name="b" unicode="b" horiz-adv-x="524" 
d="M94 0h-37q-7 0 -10.5 4t-2.5 11l82 669q1 8 5.5 11.5t11.5 3.5h41q8 0 10 -4.5t1 -10.5l-29 -241q24 16 68 37.5t107 21.5q62 0 94 -29.5t32 -79.5v-8t-1 -11l-31 -254q-7 -57 -44.5 -92.5t-109.5 -35.5q-63 0 -104 21.5t-61 38.5l-6 -37q-1 -7 -5 -11t-11 -4zM366 130
l30 234q1 6 1 8.5v5.5q0 27 -18.5 44.5t-61.5 17.5q-55 0 -97.5 -22t-60.5 -35l-34 -273q15 -13 51.5 -34.5t91.5 -21.5q49 0 71.5 22.5t26.5 53.5z" />
    <glyph glyph-name="c" unicode="c" horiz-adv-x="481" 
d="M275 502q93 0 130.5 -30.5t37.5 -79.5v-7.5t-1 -12.5l-2 -18q-1 -7 -5 -11t-11 -4h-38q-7 0 -10.5 4t-2.5 11l2 15q1 6 1 9v6q0 28 -22.5 44.5t-82.5 16.5q-66 0 -92.5 -21t-30.5 -55l-30 -237q-1 -5 -1.5 -10.5t-0.5 -9.5q0 -29 23 -46t83 -17q66 0 91.5 21t31.5 56
l4 22q1 8 4.5 11.5t11.5 3.5h37q9 0 11.5 -4t1.5 -11l-4 -27q-8 -56 -49 -92.5t-147 -36.5q-91 0 -129.5 30.5t-38.5 79.5v8t1 11l31 252q7 57 49.5 93t146.5 36z" />
    <glyph glyph-name="ccedilla" unicode="&#xe7;" horiz-adv-x="480" 
d="M316 -123q0 -49 -29 -68.5t-64 -19.5h-116q-9 0 -11 4.5t-1 10.5l2 15q1 7 4.5 10.5t10.5 3.5h106q17 0 32 7.5t15 32.5q0 18 -12.5 24t-25.5 6h-61q-10 0 -16 4.5t-2 14.5l28 72q-70 6 -100 35t-30 73v8t1 11l31 252q7 57 49.5 93t146.5 36q93 0 130.5 -30.5t37.5 -79.5
v-7.5t-1 -12.5l-2 -18q-1 -7 -5 -11t-11 -4h-38q-7 0 -10.5 4t-2.5 11l2 15q1 6 1 9v6q0 28 -22.5 44.5t-82.5 16.5q-66 0 -92.5 -21t-30.5 -55l-30 -237q-1 -5 -1.5 -10.5t-0.5 -9.5q0 -29 23 -46t83 -17q66 0 91.5 21t31.5 56l4 22q1 8 4.5 11.5t11.5 3.5h37q9 0 11.5 -4
t1.5 -11l-4 -27q-8 -54 -47 -90.5t-139 -38.5l-18 -45h36q28 0 51 -16.5t23 -53.5z" />
    <glyph glyph-name="cacute" unicode="&#x107;" horiz-adv-x="481" 
d="M404 693l-93 -116q-2 -3 -7 -6t-12 -3h-35q-6 0 -8 3.5t3 10.5l80 112q4 6 9 10t12 4h45q8 0 9.5 -4.5t-3.5 -10.5zM275 502q93 0 130.5 -30.5t37.5 -79.5v-7.5t-1 -12.5l-2 -18q-1 -7 -5 -11t-11 -4h-38q-7 0 -10.5 4t-2.5 11l2 15q1 6 1 9v6q0 28 -22.5 44.5
t-82.5 16.5q-66 0 -92.5 -21t-30.5 -55l-30 -237q-1 -5 -1.5 -10.5t-0.5 -9.5q0 -29 23 -46t83 -17q66 0 91.5 21t31.5 56l4 22q1 8 4.5 11.5t11.5 3.5h37q9 0 11.5 -4t1.5 -11l-4 -27q-8 -56 -49 -92.5t-147 -36.5q-91 0 -129.5 30.5t-38.5 79.5v8t1 11l31 252
q7 57 49.5 93t146.5 36z" />
    <glyph glyph-name="ccircumflex" unicode="&#x109;" horiz-adv-x="481" 
d="M291 664l-63 -82q-4 -5 -9.5 -9.5t-12.5 -4.5h-33q-7 0 -8.5 4t2.5 10l90 111q5 6 11.5 10.5t13.5 4.5h26q8 0 12.5 -4t8.5 -10l64 -112q4 -6 1 -10t-10 -4h-31q-7 0 -12 4t-8 10zM275 502q93 0 130.5 -30.5t37.5 -79.5v-7.5t-1 -12.5l-2 -18q-1 -7 -5 -11t-11 -4h-38
q-7 0 -10.5 4t-2.5 11l2 15q1 6 1 9v6q0 28 -22.5 44.5t-82.5 16.5q-66 0 -92.5 -21t-30.5 -55l-30 -237q-1 -5 -1.5 -10.5t-0.5 -9.5q0 -29 23 -46t83 -17q66 0 91.5 21t31.5 56l4 22q1 8 4.5 11.5t11.5 3.5h37q9 0 11.5 -4t1.5 -11l-4 -27q-8 -56 -49 -92.5t-147 -36.5
q-91 0 -129.5 30.5t-38.5 79.5v8t1 11l31 252q7 57 49.5 93t146.5 36z" />
    <glyph glyph-name="cdotaccent" unicode="&#x10b;" horiz-adv-x="481" 
d="M275 502q93 0 130.5 -30.5t37.5 -79.5v-7.5t-1 -12.5l-2 -18q-1 -7 -5 -11t-11 -4h-38q-7 0 -10.5 4t-2.5 11l2 15q1 6 1 9v6q0 28 -22.5 44.5t-82.5 16.5q-66 0 -92.5 -21t-30.5 -55l-30 -237q-1 -5 -1.5 -10.5t-0.5 -9.5q0 -29 23 -46t83 -17q66 0 91.5 21t31.5 56
l4 22q1 8 4.5 11.5t11.5 3.5h37q9 0 11.5 -4t1.5 -11l-4 -27q-8 -56 -49 -92.5t-147 -36.5q-91 0 -129.5 30.5t-38.5 79.5v8t1 11l31 252q7 57 49.5 93t146.5 36zM328 675l-9 -77q-1 -8 -5 -11.5t-11 -3.5h-42q-7 0 -10.5 3.5t-2.5 11.5l10 77q1 7 4.5 11t11.5 4h42
q7 0 10 -3.5t2 -11.5z" />
    <glyph glyph-name="ccaron" unicode="&#x10d;" horiz-adv-x="481" 
d="M244 693l43 -82l63 82q4 6 9.5 10.5t12.5 4.5h33q7 0 9 -4.5t-3 -10.5l-91 -111q-5 -6 -11 -10t-14 -4h-25q-7 0 -12.5 4t-9.5 11l-63 110q-4 6 -1 10.5t11 4.5h31q7 0 11 -5t7 -10zM275 502q93 0 130.5 -30.5t37.5 -79.5v-7.5t-1 -12.5l-2 -18q-1 -7 -5 -11t-11 -4h-38
q-7 0 -10.5 4t-2.5 11l2 15q1 6 1 9v6q0 28 -22.5 44.5t-82.5 16.5q-66 0 -92.5 -21t-30.5 -55l-30 -237q-1 -5 -1.5 -10.5t-0.5 -9.5q0 -29 23 -46t83 -17q66 0 91.5 21t31.5 56l4 22q1 8 4.5 11.5t11.5 3.5h37q9 0 11.5 -4t1.5 -11l-4 -27q-8 -56 -49 -92.5t-147 -36.5
q-91 0 -129.5 30.5t-38.5 79.5v8t1 11l31 252q7 57 49.5 93t146.5 36z" />
    <glyph glyph-name="d" unicode="d" horiz-adv-x="524" 
d="M147 364l-29 -232q-1 -7 -1 -10v-6q0 -28 18.5 -45t61.5 -17q54 0 96.5 21.5t60.5 34.5l34 273q-15 13 -52 35t-91 22q-49 0 -71.5 -22.5t-26.5 -53.5zM348 52q-24 -17 -67.5 -38.5t-108.5 -21.5q-63 0 -94 29t-31 78v8.5t1 12.5l31 254q7 57 43 92.5t110 35.5
q60 0 102 -21.5t61 -37.5l29 241q1 7 5 11t12 4h41q7 0 10 -4t2 -11l-82 -669q-1 -7 -5 -11t-11 -4h-37q-7 0 -10.5 4t-2.5 11z" />
    <glyph glyph-name="dcaron" unicode="&#x10f;" horiz-adv-x="539" 
d="M571 676l4 27q1 7 5.5 11t11.5 4h30q8 0 10.5 -4t1.5 -11l-3 -31q-4 -38 -19 -65t-34 -52q-4 -7 -9 -8t-11 0l-23 6q-7 1 -8 6.5t3 12.5q18 31 27 50.5t14 53.5zM147 364l-29 -232q-1 -7 -1 -10v-6q0 -28 18.5 -45t61.5 -17q54 0 96.5 21.5t60.5 34.5l34 273
q-15 13 -52 35t-91 22q-49 0 -71.5 -22.5t-26.5 -53.5zM348 52q-24 -17 -67.5 -38.5t-108.5 -21.5q-63 0 -94 29t-31 78v8.5t1 12.5l31 254q7 57 43 92.5t110 35.5q60 0 102 -21.5t61 -37.5l29 241q1 7 5 11t12 4h41q7 0 10 -4t2 -11l-82 -669q-1 -7 -5 -11t-11 -4h-37
q-7 0 -10.5 4t-2.5 11z" />
    <glyph glyph-name="e" unicode="e" horiz-adv-x="496" 
d="M444 373l-15 -123q-1 -7 -5 -10.5t-11 -3.5h-284l-13 -106q-1 -5 -1.5 -10.5t-0.5 -8.5q0 -29 24 -46.5t84 -17.5q66 0 93.5 21t31.5 53l3 21q1 7 5.5 10.5t11.5 3.5h35q7 0 10 -3.5t2 -10.5l-2 -21q-5 -57 -47.5 -93t-147.5 -36q-92 0 -131.5 30.5t-39.5 79.5v8.5
t1 10.5l31 252q7 57 50.5 93t147.5 36q90 0 129.5 -30.5t39.5 -79.5v-8t-1 -11zM146 371l-10 -82h232l10 78q1 7 1 10v6q0 28 -24 46t-84 18q-66 0 -93.5 -21.5t-31.5 -54.5z" />
    <glyph glyph-name="egrave" unicode="&#xe8;" horiz-adv-x="496" 
d="M444 373l-15 -123q-1 -7 -5 -10.5t-11 -3.5h-284l-13 -106q-1 -5 -1.5 -10.5t-0.5 -8.5q0 -29 24 -46.5t84 -17.5q66 0 93.5 21t31.5 53l3 21q1 7 5.5 10.5t11.5 3.5h35q7 0 10 -3.5t2 -10.5l-2 -21q-5 -57 -47.5 -93t-147.5 -36q-92 0 -131.5 30.5t-39.5 79.5v8.5
t1 10.5l31 252q7 57 50.5 93t147.5 36q90 0 129.5 -30.5t39.5 -79.5v-8t-1 -11zM146 371l-10 -82h232l10 78q1 7 1 10v6q0 28 -24 46t-84 18q-66 0 -93.5 -21.5t-31.5 -54.5zM251 577l-65 116q-3 6 -0.5 10.5t10.5 4.5h42q8 0 11.5 -4t6.5 -10l53 -112q3 -7 0.5 -10.5
t-9.5 -3.5h-32q-7 0 -11 2.5t-6 6.5z" />
    <glyph glyph-name="eacute" unicode="&#xe9;" horiz-adv-x="496" 
d="M405 693l-93 -116q-2 -3 -7 -6t-12 -3h-35q-6 0 -8 3.5t3 10.5l80 112q4 6 9 10t12 4h45q8 0 9.5 -4.5t-3.5 -10.5zM444 373l-15 -123q-1 -7 -5 -10.5t-11 -3.5h-284l-13 -106q-1 -5 -1.5 -10.5t-0.5 -8.5q0 -29 24 -46.5t84 -17.5q66 0 93.5 21t31.5 53l3 21
q1 7 5.5 10.5t11.5 3.5h35q7 0 10 -3.5t2 -10.5l-2 -21q-5 -57 -47.5 -93t-147.5 -36q-92 0 -131.5 30.5t-39.5 79.5v8.5t1 10.5l31 252q7 57 50.5 93t147.5 36q90 0 129.5 -30.5t39.5 -79.5v-8t-1 -11zM146 371l-10 -82h232l10 78q1 7 1 10v6q0 28 -24 46t-84 18
q-66 0 -93.5 -21.5t-31.5 -54.5z" />
    <glyph glyph-name="ecircumflex" unicode="&#xea;" horiz-adv-x="496" 
d="M292 664l-63 -82q-4 -5 -9.5 -9.5t-12.5 -4.5h-33q-7 0 -8.5 4t2.5 10l90 111q5 6 11.5 10.5t13.5 4.5h26q8 0 12.5 -4t8.5 -10l64 -112q4 -6 1 -10t-10 -4h-31q-7 0 -12 4t-8 10zM444 373l-15 -123q-1 -7 -5 -10.5t-11 -3.5h-284l-13 -106q-1 -5 -1.5 -10.5t-0.5 -8.5
q0 -29 24 -46.5t84 -17.5q66 0 93.5 21t31.5 53l3 21q1 7 5.5 10.5t11.5 3.5h35q7 0 10 -3.5t2 -10.5l-2 -21q-5 -57 -47.5 -93t-147.5 -36q-92 0 -131.5 30.5t-39.5 79.5v8.5t1 10.5l31 252q7 57 50.5 93t147.5 36q90 0 129.5 -30.5t39.5 -79.5v-8t-1 -11zM146 371l-10 -82
h232l10 78q1 7 1 10v6q0 28 -24 46t-84 18q-66 0 -93.5 -21.5t-31.5 -54.5z" />
    <glyph glyph-name="edieresis" unicode="&#xeb;" horiz-adv-x="496" 
d="M371 688l-11 -97q-1 -7 -5 -10.5t-12 -3.5h-24q-8 0 -11 3.5t-2 10.5l12 97q1 7 5 11t11 4h25q8 0 10.5 -4t1.5 -11zM264 688l-12 -97q-1 -7 -4.5 -10.5t-11.5 -3.5h-24q-8 0 -11 3.5t-2 10.5l12 97q1 7 5 11t11 4h25q7 0 10 -4t2 -11zM444 373l-15 -123q-1 -7 -5 -10.5
t-11 -3.5h-284l-13 -106q-1 -5 -1.5 -10.5t-0.5 -8.5q0 -29 24 -46.5t84 -17.5q66 0 93.5 21t31.5 53l3 21q1 7 5.5 10.5t11.5 3.5h35q7 0 10 -3.5t2 -10.5l-2 -21q-5 -57 -47.5 -93t-147.5 -36q-92 0 -131.5 30.5t-39.5 79.5v8.5t1 10.5l31 252q7 57 50.5 93t147.5 36
q90 0 129.5 -30.5t39.5 -79.5v-8t-1 -11zM146 371l-10 -82h232l10 78q1 7 1 10v6q0 28 -24 46t-84 18q-66 0 -93.5 -21.5t-31.5 -54.5z" />
    <glyph glyph-name="emacron" unicode="&#x113;" horiz-adv-x="496" 
d="M444 373l-15 -123q-1 -7 -5 -10.5t-11 -3.5h-284l-13 -106q-1 -5 -1.5 -10.5t-0.5 -8.5q0 -29 24 -46.5t84 -17.5q66 0 93.5 21t31.5 53l3 21q1 7 5.5 10.5t11.5 3.5h35q7 0 10 -3.5t2 -10.5l-2 -21q-5 -57 -47.5 -93t-147.5 -36q-92 0 -131.5 30.5t-39.5 79.5v8.5
t1 10.5l31 252q7 57 50.5 93t147.5 36q90 0 129.5 -30.5t39.5 -79.5v-8t-1 -11zM146 371l-10 -82h232l10 78q1 7 1 10v6q0 28 -24 46t-84 18q-66 0 -93.5 -21.5t-31.5 -54.5zM165 651h250q8 0 11.5 -3t2.5 -10l-3 -26q-1 -8 -5.5 -11.5t-11.5 -3.5h-251q-7 0 -10.5 3.5
t-2.5 11.5l3 25q1 7 5 10.5t12 3.5z" />
    <glyph glyph-name="ebreve" unicode="&#x115;" horiz-adv-x="496" 
d="M444 373l-15 -123q-1 -7 -5 -10.5t-11 -3.5h-284l-13 -106q-1 -5 -1.5 -10.5t-0.5 -8.5q0 -29 24 -46.5t84 -17.5q66 0 93.5 21t31.5 53l3 21q1 7 5.5 10.5t11.5 3.5h35q7 0 10 -3.5t2 -10.5l-2 -21q-5 -57 -47.5 -93t-147.5 -36q-92 0 -131.5 30.5t-39.5 79.5v8.5
t1 10.5l31 252q7 57 50.5 93t147.5 36q90 0 129.5 -30.5t39.5 -79.5v-8t-1 -11zM146 371l-10 -82h232l10 78q1 7 1 10v6q0 28 -24 46t-84 18q-66 0 -93.5 -21.5t-31.5 -54.5zM224 683l-2 -22q-1 -7 -1 -10v-4q0 -22 13.5 -35.5t48.5 -13.5q43 0 57.5 20.5t16.5 51.5l1 13
q1 7 4.5 10t11.5 3h25q7 0 9.5 -3t1.5 -10l-1 -12q-4 -54 -32 -85.5t-97 -31.5q-55 0 -83 23t-28 66v7.5t1 11.5l2 21q1 7 4.5 10t10.5 3h25q7 0 10 -3t2 -10z" />
    <glyph glyph-name="edotaccent" unicode="&#x117;" horiz-adv-x="496" 
d="M444 373l-15 -123q-1 -7 -5 -10.5t-11 -3.5h-284l-13 -106q-1 -5 -1.5 -10.5t-0.5 -8.5q0 -29 24 -46.5t84 -17.5q66 0 93.5 21t31.5 53l3 21q1 7 5.5 10.5t11.5 3.5h35q7 0 10 -3.5t2 -10.5l-2 -21q-5 -57 -47.5 -93t-147.5 -36q-92 0 -131.5 30.5t-39.5 79.5v8.5
t1 10.5l31 252q7 57 50.5 93t147.5 36q90 0 129.5 -30.5t39.5 -79.5v-8t-1 -11zM146 371l-10 -82h232l10 78q1 7 1 10v6q0 28 -24 46t-84 18q-66 0 -93.5 -21.5t-31.5 -54.5zM321 675l-9 -77q-1 -8 -5 -11.5t-11 -3.5h-42q-7 0 -10.5 3.5t-2.5 11.5l10 77q1 7 4.5 11t11.5 4
h42q7 0 10 -3.5t2 -11.5z" />
    <glyph glyph-name="eogonek" unicode="&#x119;" horiz-adv-x="496" 
d="M444 373l-15 -123q-1 -7 -5 -10.5t-11 -3.5h-284l-13 -106q-1 -7 -1.5 -11.5t-0.5 -7.5q0 -29 24 -46.5t84 -17.5q66 0 93.5 21t31.5 53l3 21q1 7 5.5 10.5t11.5 3.5h35q7 0 10 -3.5t2 -10.5l-2 -21q-2 -27 -14 -51t-38 -45q-18 -14 -37 -33.5t-19 -53.5
q0 -20 13.5 -31.5t41.5 -11.5h29q7 0 11.5 -3.5t3.5 -10.5l-2 -20q-1 -8 -6 -11.5t-13 -3.5h-41q-35 0 -63 17.5t-28 59.5q0 18 6 36.5t19 36.5q-13 -1 -27.5 -2.5t-30.5 -1.5q-92 0 -131.5 30.5t-39.5 79.5v9.5t1 9.5l31 252q7 57 50.5 93t147.5 36q90 0 129.5 -30.5
t39.5 -79.5v-8.5t-1 -10.5zM146 371l-10 -82h232l10 78q1 5 1 9v7q0 28 -24 46t-84 18q-66 0 -93.5 -21.5t-31.5 -54.5z" />
    <glyph glyph-name="ecaron" unicode="&#x11b;" horiz-adv-x="496" 
d="M238 693l43 -82l63 82q4 6 9.5 10.5t12.5 4.5h33q7 0 9 -4.5t-3 -10.5l-91 -111q-5 -6 -11 -10t-14 -4h-25q-7 0 -12.5 4t-9.5 11l-63 110q-4 6 -1 10.5t11 4.5h31q7 0 11 -5t7 -10zM444 373l-15 -123q-1 -7 -5 -10.5t-11 -3.5h-284l-13 -106q-1 -5 -1.5 -10.5t-0.5 -8.5
q0 -29 24 -46.5t84 -17.5q66 0 93.5 21t31.5 53l3 21q1 7 5.5 10.5t11.5 3.5h35q7 0 10 -3.5t2 -10.5l-2 -21q-5 -57 -47.5 -93t-147.5 -36q-92 0 -131.5 30.5t-39.5 79.5v8.5t1 10.5l31 252q7 57 50.5 93t147.5 36q90 0 129.5 -30.5t39.5 -79.5v-8t-1 -11zM146 371l-10 -82
h232l10 78q1 7 1 10v6q0 28 -24 46t-84 18q-66 0 -93.5 -21.5t-31.5 -54.5z" />
    <glyph glyph-name="f" unicode="f" 
d="M127 492l11 82q7 57 52 93t149 36h8q7 0 10.5 -3.5t2.5 -11.5l-4 -29q-1 -8 -5.5 -11.5t-11.5 -3.5h-6q-66 0 -94.5 -21t-32.5 -56l-10 -75h109q8 0 11.5 -3.5t2.5 -10.5l-3 -28q-1 -7 -5 -11t-11 -4h-109l-78 -626q-1 -8 -5 -11.5t-11 -3.5h-41q-7 0 -10 3.5t-2 11.5
l78 626h-63q-8 0 -11 4t-2 11l2 24q1 7 5 10.5t12 4.5l54 3h8z" />
    <glyph glyph-name="g" unicode="g" horiz-adv-x="524" 
d="M173 -8q-63 0 -94.5 29.5t-31.5 78.5v8.5t1 11.5l31 254q7 57 43 92.5t110 35.5q63 0 104.5 -22t60.5 -39l7 38q1 8 5 11.5t11 3.5h37q8 0 10.5 -4t1.5 -11l-68 -556q-7 -57 -51 -93t-151 -36h-136q-7 0 -11 3.5t-3 10.5l3 30q1 7 5.5 10.5t11.5 3.5h136q67 0 95 21.5
t32 55.5l15 121q-24 -16 -67.5 -37t-106.5 -21zM147 364l-29 -230q-1 -7 -1 -10.5v-6.5q0 -28 18.5 -45.5t61.5 -17.5q54 0 96.5 21.5t61.5 34.5l33 273q-15 13 -52 35t-91 22q-48 0 -71 -22.5t-27 -53.5z" />
    <glyph glyph-name="gcircumflex" unicode="&#x11d;" horiz-adv-x="524" 
d="M303 664l-63 -82q-4 -5 -9.5 -9.5t-12.5 -4.5h-33q-7 0 -8.5 4t2.5 10l90 111q5 6 11.5 10.5t13.5 4.5h26q8 0 12.5 -4t8.5 -10l64 -112q4 -6 1 -10t-10 -4h-31q-7 0 -12 4t-8 10zM173 -8q-63 0 -94.5 29.5t-31.5 78.5v8.5t1 11.5l31 254q7 57 43 92.5t110 35.5
q63 0 104.5 -22t60.5 -39l7 38q1 8 5 11.5t11 3.5h37q8 0 10.5 -4t1.5 -11l-68 -556q-7 -57 -51 -93t-151 -36h-136q-7 0 -11 3.5t-3 10.5l3 30q1 7 5.5 10.5t11.5 3.5h136q67 0 95 21.5t32 55.5l15 121q-24 -16 -67.5 -37t-106.5 -21zM147 364l-29 -230q-1 -7 -1 -10.5
v-6.5q0 -28 18.5 -45.5t61.5 -17.5q54 0 96.5 21.5t61.5 34.5l33 273q-15 13 -52 35t-91 22q-48 0 -71 -22.5t-27 -53.5z" />
    <glyph glyph-name="gbreve" unicode="&#x11f;" horiz-adv-x="524" 
d="M173 -8q-63 0 -94.5 29.5t-31.5 78.5v8.5t1 11.5l31 254q7 57 43 92.5t110 35.5q63 0 104.5 -22t60.5 -39l7 38q1 8 5 11.5t11 3.5h37q8 0 10.5 -4t1.5 -11l-68 -556q-7 -57 -51 -93t-151 -36h-136q-7 0 -11 3.5t-3 10.5l3 30q1 7 5.5 10.5t11.5 3.5h136q67 0 95 21.5
t32 55.5l15 121q-24 -16 -67.5 -37t-106.5 -21zM147 364l-29 -230q-1 -7 -1 -10.5v-6.5q0 -28 18.5 -45.5t61.5 -17.5q54 0 96.5 21.5t61.5 34.5l33 273q-15 13 -52 35t-91 22q-48 0 -71 -22.5t-27 -53.5zM228 683l-2 -22q-1 -7 -1 -10v-4q0 -22 13.5 -35.5t48.5 -13.5
q43 0 57.5 20.5t16.5 51.5l1 13q1 7 4.5 10t11.5 3h25q7 0 9.5 -3t1.5 -10l-1 -12q-4 -54 -32 -85.5t-97 -31.5q-55 0 -83 23t-28 66v7.5t1 11.5l2 21q1 7 4.5 10t10.5 3h25q7 0 10 -3t2 -10z" />
    <glyph glyph-name="gdotaccent" unicode="&#x121;" horiz-adv-x="524" 
d="M173 -8q-63 0 -94.5 29.5t-31.5 78.5v8.5t1 11.5l31 254q7 57 43 92.5t110 35.5q63 0 104.5 -22t60.5 -39l7 38q1 8 5 11.5t11 3.5h37q8 0 10.5 -4t1.5 -11l-68 -556q-7 -57 -51 -93t-151 -36h-136q-7 0 -11 3.5t-3 10.5l3 30q1 7 5.5 10.5t11.5 3.5h136q67 0 95 21.5
t32 55.5l15 121q-24 -16 -67.5 -37t-106.5 -21zM147 364l-29 -230q-1 -7 -1 -10.5v-6.5q0 -28 18.5 -45.5t61.5 -17.5q54 0 96.5 21.5t61.5 34.5l33 273q-15 13 -52 35t-91 22q-48 0 -71 -22.5t-27 -53.5zM326 675l-9 -77q-1 -8 -5 -11.5t-11 -3.5h-42q-7 0 -10.5 3.5
t-2.5 11.5l10 77q1 7 4.5 11t11.5 4h42q7 0 10 -3.5t2 -11.5z" />
    <glyph glyph-name="gcommaaccent" unicode="&#x123;" horiz-adv-x="524" 
d="M173 -8q-63 0 -94.5 29.5t-31.5 78.5v8.5t1 11.5l31 254q7 57 43 92.5t110 35.5q63 0 104.5 -22t60.5 -39l7 38q1 8 5 11.5t11 3.5h37q8 0 10.5 -4t1.5 -11l-68 -556q-7 -57 -51 -93t-151 -36h-136q-7 0 -11 3.5t-3 10.5l3 30q1 7 5.5 10.5t11.5 3.5h136q67 0 95 21.5
t32 55.5l15 121q-24 -16 -67.5 -37t-106.5 -21zM147 364l-29 -230q-1 -7 -1 -10.5v-6.5q0 -28 18.5 -45.5t61.5 -17.5q54 0 96.5 21.5t61.5 34.5l33 273q-15 13 -52 35t-91 22q-48 0 -71 -22.5t-27 -53.5z" />
    <glyph glyph-name="h" unicode="h" horiz-adv-x="530" 
d="M195 684l-29 -241q23 18 68 38.5t107 20.5q61 0 93.5 -30t32.5 -76v-6.5t-1 -10.5l-44 -364q-1 -7 -5 -11t-12 -4h-40q-6 0 -9.5 3.5t-2.5 11.5l42 349q1 6 1 8.5v5.5q0 28 -19 45t-61 17q-54 0 -96.5 -21.5t-60.5 -34.5l-45 -369q-1 -7 -5 -11t-11 -4h-41
q-7 0 -10.5 3.5t-2.5 11.5l82 669q1 7 5.5 11t11.5 4h41q7 0 9.5 -4t1.5 -11z" />
    <glyph glyph-name="hcircumflex" unicode="&#x125;" horiz-adv-x="530" 
d="M195 684l-29 -241q23 18 68 38.5t107 20.5q61 0 93.5 -30t32.5 -76v-6.5t-1 -10.5l-44 -364q-1 -7 -5 -11t-12 -4h-40q-6 0 -9.5 3.5t-2.5 11.5l42 349q1 6 1 8.5v5.5q0 28 -19 45t-61 17q-54 0 -96.5 -21.5t-60.5 -34.5l-45 -369q-1 -7 -5 -11t-11 -4h-41
q-7 0 -10.5 3.5t-2.5 11.5l82 669q1 7 5.5 11t11.5 4h41q7 0 9.5 -4t1.5 -11zM178 834l-63 -82q-4 -5 -9 -9.5t-12 -4.5h-33q-8 0 -9.5 4t2.5 10l90 111q5 6 11.5 10.5t14.5 4.5h25q8 0 12.5 -4t8.5 -10l64 -112q4 -6 1 -10t-10 -4h-31q-7 0 -12 4t-8 10z" />
    <glyph glyph-name="i" unicode="i" horiz-adv-x="225" 
d="M195 684l-11 -93q-1 -7 -5 -11t-11 -4h-41q-7 0 -10 4t-2 11l11 93q1 7 5.5 11t11.5 4h41q7 0 9.5 -3.5t1.5 -11.5zM171 479l-57 -464q-1 -7 -5 -11t-11 -4h-41q-7 0 -10.5 3.5t-2.5 11.5l58 464q1 7 4.5 11t10.5 4h41q7 0 10.5 -4t2.5 -11z" />
    <glyph glyph-name="igrave" unicode="&#xec;" horiz-adv-x="224" 
d="M170 479l-57 -464q-1 -7 -5 -11t-11 -4h-41q-7 0 -10 3.5t-2 11.5l57 464q1 7 5 11t11 4h40q8 0 11 -4t2 -11zM110 577l-65 116q-3 6 -0.5 10.5t10.5 4.5h42q8 0 11.5 -4t6.5 -10l53 -112q3 -7 0.5 -10.5t-9.5 -3.5h-32q-7 0 -11 2.5t-6 6.5z" />
    <glyph glyph-name="iacute" unicode="&#xed;" horiz-adv-x="225" 
d="M272 693l-93 -116q-2 -3 -7 -6t-12 -3h-35q-6 0 -8 3.5t3 10.5l80 112q4 6 9 10t12 4h45q8 0 9.5 -4.5t-3.5 -10.5zM171 479l-57 -464q-1 -7 -5 -11t-11 -4h-41q-7 0 -10 3.5t-2 11.5l57 464q1 7 5 11t11 4h40q8 0 11 -4t2 -11z" />
    <glyph glyph-name="icircumflex" unicode="&#xee;" horiz-adv-x="224" 
d="M158 664l-63 -82q-4 -5 -9.5 -9.5t-12.5 -4.5h-33q-7 0 -8.5 4t2.5 10l90 111q5 6 11.5 10.5t13.5 4.5h26q8 0 12.5 -4t8.5 -10l64 -112q4 -6 1 -10t-10 -4h-31q-7 0 -12 4t-8 10zM170 479l-57 -464q-1 -7 -5 -11t-11 -4h-41q-7 0 -10 3.5t-2 11.5l57 464q1 7 5 11t11 4
h40q8 0 11 -4t2 -11z" />
    <glyph glyph-name="idieresis" unicode="&#xef;" horiz-adv-x="224" 
d="M243 688l-11 -97q-1 -7 -5 -10.5t-12 -3.5h-24q-8 0 -11 3.5t-2 10.5l12 97q1 7 5 11t11 4h25q8 0 10.5 -4t1.5 -11zM136 688l-12 -97q-1 -7 -4.5 -10.5t-11.5 -3.5h-24q-8 0 -11 3.5t-2 10.5l12 97q1 7 5 11t11 4h25q7 0 10 -4t2 -11zM170 479l-57 -464q-1 -7 -5 -11
t-11 -4h-41q-7 0 -10 3.5t-2 11.5l57 464q1 7 5 11t11 4h40q8 0 11 -4t2 -11z" />
    <glyph glyph-name="itilde" unicode="&#x129;" horiz-adv-x="224" 
d="M170 479l-57 -464q-1 -7 -5 -11t-11 -4h-41q-7 0 -10 3.5t-2 11.5l57 464q1 7 5 11t11 4h40q8 0 11 -4t2 -11zM86 643q-16 0 -21.5 -9.5t-9.5 -31.5l-3 -14q-1 -8 -5.5 -11t-11.5 -3h-21q-7 0 -9.5 5t-1.5 12l5 25q8 43 28.5 62t50.5 19q13 0 27.5 -5t27.5 -15l41 -33
q8 -7 16.5 -11.5t15.5 -4.5q16 0 22.5 9.5t9.5 37.5l1 9q1 7 5.5 10t11.5 3h22q8 0 10.5 -4.5t1.5 -11.5l-4 -25q-7 -44 -30 -62t-51 -18q-17 0 -30.5 5t-25.5 15l-41 33q-8 7 -16 10.5t-15 3.5z" />
    <glyph glyph-name="imacron" unicode="&#x12b;" horiz-adv-x="224" 
d="M170 479l-57 -464q-1 -7 -5 -11t-11 -4h-41q-7 0 -10 3.5t-2 11.5l57 464q1 7 5 11t11 4h40q8 0 11 -4t2 -11zM33 651h250q8 0 11.5 -3t2.5 -10l-3 -26q-1 -8 -5.5 -11.5t-11.5 -3.5h-251q-7 0 -10.5 3.5t-2.5 11.5l3 25q1 7 5 10.5t12 3.5z" />
    <glyph glyph-name="ibreve" unicode="&#x12d;" horiz-adv-x="224" 
d="M170 479l-57 -464q-1 -7 -5 -11t-11 -4h-41q-7 0 -10 3.5t-2 11.5l57 464q1 7 5 11t11 4h40q8 0 11 -4t2 -11zM90 683l-2 -22q-1 -7 -1 -10v-4q0 -22 13.5 -35.5t48.5 -13.5q43 0 57.5 20.5t16.5 51.5l1 13q1 7 4.5 10t11.5 3h25q7 0 9.5 -3t1.5 -10l-1 -12
q-4 -54 -32 -85.5t-97 -31.5q-55 0 -83 23t-28 66v7.5t1 11.5l2 21q1 7 4.5 10t10.5 3h25q7 0 10 -3t2 -10z" />
    <glyph glyph-name="iogonek" unicode="&#x12f;" horiz-adv-x="230" 
d="M199 684l-11 -93q-1 -7 -5 -11t-11 -4h-41q-7 0 -10 4t-2 11l11 93q1 7 5 11t11 4h41q7 0 10 -3.5t2 -11.5zM175 479l-57 -464q-1 -7 -5.5 -11t-11.5 -4h-5q-37 -4 -53 -26t-16 -42t13.5 -28.5t38.5 -8.5h24q7 0 11.5 -3.5t3.5 -10.5l-2 -20q-1 -8 -6 -11.5t-12 -3.5h-36
q-30 0 -59.5 15.5t-29.5 57.5q0 31 18.5 61t58.5 51l56 448q1 7 4.5 11t10.5 4h40q8 0 11.5 -4t2.5 -11z" />
    <glyph glyph-name="j" unicode="j" horiz-adv-x="225" 
d="M196 684l-11 -93q-1 -7 -4.5 -11t-11.5 -4h-40q-8 0 -11 4t-2 11l11 93q1 7 5 11t11 4h41q7 0 10 -4t2 -11zM171 479l-69 -556q-7 -60 -51.5 -94.5t-146.5 -34.5h-9q-7 0 -10.5 3.5t-2.5 10.5l4 30q1 7 5 10.5t11 3.5h6q65 0 93.5 21t32.5 56l68 550q1 7 4.5 11t11.5 4
h41q7 0 10 -4t2 -11z" />
    <glyph glyph-name="jcircumflex" unicode="&#x135;" horiz-adv-x="226" 
d="M171 479l-69 -557q-7 -59 -51.5 -94t-147.5 -35h-7q-8 0 -11.5 4t-2.5 11l4 28q1 7 5 11t11 4h6q65 0 93.5 21t32.5 56l68 551q1 7 4.5 11t11.5 4h41q7 0 10 -4t2 -11zM153 664l-63 -82q-4 -5 -9.5 -9.5t-12.5 -4.5h-33q-7 0 -8.5 4t2.5 10l90 111q5 6 11.5 10.5
t13.5 4.5h26q8 0 12.5 -4t8.5 -10l64 -112q4 -6 1 -10t-10 -4h-31q-7 0 -12 4t-8 10z" />
    <glyph glyph-name="k" unicode="k" horiz-adv-x="465" 
d="M98 0h-41q-8 0 -10.5 4t-1.5 11l82 669q1 7 5 11t11 4h41q8 0 10.5 -4t1.5 -11l-47 -380h31l189 175q7 7 13 11t14 4h48q9 0 10 -5t-4 -10l-214 -198l180 -266q4 -5 1 -10t-10 -5h-47q-8 0 -13 4t-9 11l-161 236h-34l-29 -236q-1 -7 -5 -11t-11 -4z" />
    <glyph glyph-name="kcommaaccent" unicode="&#x137;" horiz-adv-x="465" 
d="M171 -92l4 27q1 7 5.5 11t11.5 4h30q8 0 10.5 -4t1.5 -11l-3 -31q-4 -38 -19 -65t-34 -52q-4 -7 -9 -8t-11 0l-23 6q-7 1 -8 6.5t3 12.5q18 31 27 50.5t14 53.5zM98 0h-41q-8 0 -10.5 4t-1.5 11l82 669q1 7 5 11t11 4h41q8 0 10.5 -4t1.5 -11l-47 -380h31l189 175
q7 7 13 11t14 4h48q9 0 10 -5t-4 -10l-214 -198l180 -266q4 -5 1 -10t-10 -5h-47q-8 0 -13 4t-9 11l-161 236h-34l-29 -236q-1 -7 -5 -11t-11 -4z" />
    <glyph glyph-name="l" unicode="l" horiz-adv-x="225" 
d="M195 684l-81 -669q-1 -7 -4.5 -11t-11.5 -4h-41q-7 0 -10.5 4t-2.5 11l82 669q1 7 5.5 11t11.5 4h41q7 0 9.5 -4t1.5 -11z" />
    <glyph glyph-name="lacute" unicode="&#x13a;" horiz-adv-x="225" 
d="M295 863l-92 -116q-3 -3 -7.5 -6t-11.5 -3h-35q-7 0 -9 3.5t3 10.5l81 112q4 6 9 10t12 4h45q8 0 9 -4.5t-4 -10.5zM195 684l-81 -669q-1 -7 -4.5 -11t-11.5 -4h-41q-7 0 -10.5 4t-2.5 11l82 669q1 7 5.5 11t11.5 4h41q7 0 9.5 -4t1.5 -11z" />
    <glyph glyph-name="lcommaaccent" unicode="&#x13c;" horiz-adv-x="225" 
d="M37 -92l4 27q1 7 5.5 11t11.5 4h30q8 0 10.5 -4t1.5 -11l-3 -31q-4 -38 -19 -65t-34 -52q-4 -7 -9 -8t-11 0l-23 6q-7 1 -8 6.5t3 12.5q18 31 27 50.5t14 53.5zM195 684l-81 -669q-1 -7 -4.5 -11t-11.5 -4h-41q-7 0 -10.5 4t-2.5 11l82 669q1 7 5.5 11t11.5 4h41
q7 0 9.5 -4t1.5 -11z" />
    <glyph glyph-name="lcaron" unicode="&#x13e;" horiz-adv-x="240" 
d="M272 676l4 27q1 7 5.5 11t11.5 4h30q8 0 10.5 -4t1.5 -11l-3 -31q-4 -38 -19 -65t-34 -52q-4 -7 -9 -8t-11 0l-23 6q-7 1 -8 6.5t3 12.5q18 31 27 50.5t14 53.5zM195 684l-81 -669q-1 -7 -4.5 -11t-11.5 -4h-41q-7 0 -10.5 4t-2.5 11l82 669q1 7 5.5 11t11.5 4h41
q7 0 9.5 -4t1.5 -11z" />
    <glyph glyph-name="m" unicode="m" horiz-adv-x="826" 
d="M44 15l58 464q1 7 4.5 11t10.5 4h37q7 0 10.5 -4t2.5 -11l-3 -37q22 17 64.5 38.5t106.5 21.5q48 0 79.5 -18.5t41.5 -49.5q21 16 64.5 42t115.5 26q61 0 94.5 -29t33.5 -75v-9t-1 -10l-45 -364q-1 -7 -5 -11t-11 -4h-41q-6 0 -9.5 3.5t-2.5 11.5l42 345q1 7 1 10.5v6.5
q0 28 -19 45.5t-60 17.5q-57 0 -97 -22.5t-56 -35.5v-6t-1 -12l-43 -349q-1 -7 -5 -11t-11 -4h-41q-6 0 -9.5 3.5t-2.5 11.5l42 344q1 8 1 11.5v6.5q0 28 -19 45.5t-60 17.5q-54 0 -94.5 -21.5t-57.5 -34.5l-45 -369q-1 -7 -4.5 -11t-11.5 -4h-41q-7 0 -10.5 3.5t-2.5 11.5z
" />
    <glyph glyph-name="n" unicode="n" horiz-adv-x="530" 
d="M117 494h37q7 0 11 -4t3 -11l-3 -38q23 18 68 39.5t108 21.5q61 0 93.5 -30t32.5 -76v-8t-1 -12l-44 -361q-1 -7 -5 -11t-12 -4h-40q-6 0 -9.5 3t-2.5 12l42 345q1 7 1 10.5v6.5q0 29 -18 46t-61 17q-55 0 -97.5 -21.5t-60.5 -34.5l-45 -369q-1 -7 -5 -11t-11 -4h-41
q-7 0 -10.5 3t-2.5 12l58 464q1 7 4.5 11t10.5 4z" />
    <glyph glyph-name="ntilde" unicode="&#xf1;" horiz-adv-x="530" 
d="M117 494h37q7 0 11 -4t3 -11l-3 -38q23 18 68 39.5t108 21.5q61 0 93.5 -30t32.5 -76v-8t-1 -12l-44 -361q-1 -7 -5 -11t-12 -4h-40q-6 0 -9.5 3t-2.5 12l42 345q1 7 1 10.5v6.5q0 29 -18 46t-61 17q-55 0 -97.5 -21.5t-60.5 -34.5l-45 -369q-1 -7 -5 -11t-11 -4h-41
q-7 0 -10.5 3t-2.5 12l58 464q1 7 4.5 11t10.5 4zM239 643q-16 0 -21.5 -9.5t-9.5 -31.5l-3 -14q-1 -8 -5.5 -11t-11.5 -3h-21q-7 0 -9.5 5t-1.5 12l5 25q8 43 28.5 62t50.5 19q13 0 27.5 -5t27.5 -15l41 -33q8 -7 16.5 -11.5t15.5 -4.5q16 0 22.5 9.5t9.5 37.5l1 9
q1 7 5.5 10t11.5 3h22q8 0 10.5 -4.5t1.5 -11.5l-4 -25q-7 -44 -30 -62t-51 -18q-17 0 -30.5 5t-25.5 15l-41 33q-8 7 -16 10.5t-15 3.5z" />
    <glyph glyph-name="nacute" unicode="&#x144;" horiz-adv-x="530" 
d="M436 693l-93 -116q-2 -3 -7 -6t-12 -3h-35q-6 0 -8 3.5t3 10.5l80 112q4 6 9 10t12 4h45q8 0 9.5 -4.5t-3.5 -10.5zM117 494h37q7 0 11 -4t3 -11l-3 -38q23 18 68 39.5t108 21.5q61 0 93.5 -30t32.5 -76v-8t-1 -12l-44 -361q-1 -7 -5 -11t-12 -4h-40q-6 0 -9.5 3t-2.5 12
l42 345q1 7 1 10.5v6.5q0 29 -18 46t-61 17q-55 0 -97.5 -21.5t-60.5 -34.5l-45 -369q-1 -7 -5 -11t-11 -4h-41q-7 0 -10.5 3t-2.5 12l58 464q1 7 4.5 11t10.5 4z" />
    <glyph glyph-name="ncommaaccent" unicode="&#x146;" horiz-adv-x="530" 
d="M191 -92l4 27q1 7 5.5 11t11.5 4h30q8 0 10.5 -4t1.5 -11l-3 -31q-4 -38 -19 -65t-34 -52q-4 -7 -9 -8t-11 0l-23 6q-7 1 -8 6.5t3 12.5q18 31 27 50.5t14 53.5zM117 494h37q7 0 11 -4t3 -11l-3 -38q23 18 68 39.5t108 21.5q61 0 93.5 -30t32.5 -76v-8t-1 -12l-44 -361
q-1 -7 -5 -11t-12 -4h-40q-6 0 -9.5 3t-2.5 12l42 345q1 7 1 10.5v6.5q0 29 -18 46t-61 17q-55 0 -97.5 -21.5t-60.5 -34.5l-45 -369q-1 -7 -5 -11t-11 -4h-41q-7 0 -10.5 3t-2.5 12l58 464q1 7 4.5 11t10.5 4z" />
    <glyph glyph-name="ncaron" unicode="&#x148;" horiz-adv-x="530" 
d="M263 693l43 -82l63 82q4 6 9.5 10.5t12.5 4.5h33q7 0 9 -4.5t-3 -10.5l-91 -111q-5 -6 -11 -10t-14 -4h-25q-7 0 -12.5 4t-9.5 11l-63 110q-4 6 -1 10.5t11 4.5h31q7 0 11 -5t7 -10zM117 494h37q7 0 11 -4t3 -11l-3 -38q23 18 68 39.5t108 21.5q61 0 93.5 -30t32.5 -76
v-8t-1 -12l-44 -361q-1 -7 -5 -11t-12 -4h-40q-6 0 -9.5 3t-2.5 12l42 345q1 7 1 10.5v6.5q0 29 -18 46t-61 17q-55 0 -97.5 -21.5t-60.5 -34.5l-45 -369q-1 -7 -5 -11t-11 -4h-41q-7 0 -10.5 3t-2.5 12l58 464q1 7 4.5 11t10.5 4z" />
    <glyph glyph-name="o" unicode="o" horiz-adv-x="512" 
d="M47 121l31 252q7 57 52.5 93t150.5 36q91 0 133 -30.5t42 -80.5v-7.5t-1 -10.5l-31 -252q-7 -57 -52.5 -93t-150.5 -36q-92 0 -133.5 31t-41.5 80v8t1 10zM355 126l28 226q1 5 2 15t1 12q0 31 -26 48.5t-85 17.5q-66 0 -95 -21t-33 -56l-31 -242q-1 -5 -1 -7.5v-4.5
q0 -31 25.5 -48t85.5 -17q66 0 95.5 21t33.5 56z" />
    <glyph glyph-name="ograve" unicode="&#xf2;" horiz-adv-x="512" 
d="M47 121l31 252q7 57 52.5 93t150.5 36q91 0 133 -30.5t42 -80.5v-7.5t-1 -10.5l-31 -252q-7 -57 -52.5 -93t-150.5 -36q-92 0 -133.5 31t-41.5 80v8t1 10zM355 126l28 226q1 5 2 15t1 12q0 31 -26 48.5t-85 17.5q-66 0 -95 -21t-33 -56l-31 -242q-1 -5 -1 -7.5v-4.5
q0 -31 25.5 -48t85.5 -17q66 0 95.5 21t33.5 56zM251 577l-65 116q-3 6 -0.5 10.5t10.5 4.5h42q8 0 11.5 -4t6.5 -10l53 -112q3 -7 0.5 -10.5t-9.5 -3.5h-32q-7 0 -11 2.5t-6 6.5z" />
    <glyph glyph-name="oacute" unicode="&#xf3;" horiz-adv-x="512" 
d="M410 693l-93 -116q-2 -3 -7 -6t-12 -3h-35q-6 0 -8 3.5t3 10.5l80 112q4 6 9 10t12 4h45q8 0 9.5 -4.5t-3.5 -10.5zM47 121l31 252q7 57 52.5 93t150.5 36q91 0 133 -30.5t42 -80.5v-7.5t-1 -10.5l-31 -252q-7 -57 -52.5 -93t-150.5 -36q-92 0 -133.5 31t-41.5 80v8t1 10
zM355 126l28 226q1 5 2 15t1 12q0 31 -26 48.5t-85 17.5q-66 0 -95 -21t-33 -56l-31 -242q-1 -5 -1 -7.5v-4.5q0 -31 25.5 -48t85.5 -17q66 0 95.5 21t33.5 56z" />
    <glyph glyph-name="ocircumflex" unicode="&#xf4;" horiz-adv-x="512" 
d="M301 664l-63 -82q-4 -5 -9.5 -9.5t-12.5 -4.5h-33q-7 0 -8.5 4t2.5 10l90 111q5 6 11.5 10.5t13.5 4.5h26q8 0 12.5 -4t8.5 -10l64 -112q4 -6 1 -10t-10 -4h-31q-7 0 -12 4t-8 10zM47 121l31 252q7 57 52.5 93t150.5 36q91 0 133 -30.5t42 -80.5v-7.5t-1 -10.5l-31 -252
q-7 -57 -52.5 -93t-150.5 -36q-92 0 -133.5 31t-41.5 80v8t1 10zM355 126l28 226q1 5 2 15t1 12q0 31 -26 48.5t-85 17.5q-66 0 -95 -21t-33 -56l-31 -242q-1 -5 -1 -7.5v-4.5q0 -31 25.5 -48t85.5 -17q66 0 95.5 21t33.5 56z" />
    <glyph glyph-name="otilde" unicode="&#xf5;" horiz-adv-x="512" 
d="M47 121l31 252q7 57 52.5 93t150.5 36q91 0 133 -30.5t42 -80.5v-7.5t-1 -10.5l-31 -252q-7 -57 -52.5 -93t-150.5 -36q-92 0 -133.5 31t-41.5 80v8t1 10zM355 126l28 226q1 5 2 15t1 12q0 31 -26 48.5t-85 17.5q-66 0 -95 -21t-33 -56l-31 -242q-1 -5 -1 -7.5v-4.5
q0 -31 25.5 -48t85.5 -17q66 0 95.5 21t33.5 56zM222 643q-16 0 -21.5 -9.5t-9.5 -31.5l-3 -14q-1 -8 -5.5 -11t-11.5 -3h-21q-7 0 -9.5 5t-1.5 12l5 25q8 43 28.5 62t50.5 19q13 0 27.5 -5t27.5 -15l41 -33q8 -7 16.5 -11.5t15.5 -4.5q16 0 22.5 9.5t9.5 37.5l1 9
q1 7 5.5 10t11.5 3h22q8 0 10.5 -4.5t1.5 -11.5l-4 -25q-7 -44 -30 -62t-51 -18q-17 0 -30.5 5t-25.5 15l-41 33q-8 7 -16 10.5t-15 3.5z" />
    <glyph glyph-name="odieresis" unicode="&#xf6;" horiz-adv-x="512" 
d="M380 688l-11 -97q-1 -7 -5 -10.5t-12 -3.5h-24q-8 0 -11 3.5t-2 10.5l12 97q1 7 5 11t11 4h25q8 0 10.5 -4t1.5 -11zM273 688l-12 -97q-1 -7 -4.5 -10.5t-11.5 -3.5h-24q-8 0 -11 3.5t-2 10.5l12 97q1 7 5 11t11 4h25q7 0 10 -4t2 -11zM47 121l31 252q7 57 52.5 93
t150.5 36q91 0 133 -30.5t42 -80.5v-7.5t-1 -10.5l-31 -252q-7 -57 -52.5 -93t-150.5 -36q-92 0 -133.5 31t-41.5 80v8t1 10zM355 126l28 226q1 5 2 15t1 12q0 31 -26 48.5t-85 17.5q-66 0 -95 -21t-33 -56l-31 -242q-1 -5 -1 -7.5v-4.5q0 -31 25.5 -48t85.5 -17
q66 0 95.5 21t33.5 56z" />
    <glyph glyph-name="omacron" unicode="&#x14d;" horiz-adv-x="512" 
d="M175 651h250q8 0 11.5 -3t2.5 -10l-3 -26q-1 -8 -5.5 -11.5t-11.5 -3.5h-251q-7 0 -10.5 3.5t-2.5 11.5l3 25q1 7 5 10.5t12 3.5zM47 121l31 252q7 57 52.5 93t150.5 36q91 0 133 -30.5t42 -80.5v-7.5t-1 -10.5l-31 -252q-7 -57 -52.5 -93t-150.5 -36q-92 0 -133.5 31
t-41.5 80v8t1 10zM355 126l28 226q1 5 2 15t1 12q0 31 -26 48.5t-85 17.5q-66 0 -95 -21t-33 -56l-31 -242q-1 -5 -1 -7.5v-4.5q0 -31 25.5 -48t85.5 -17q66 0 95.5 21t33.5 56z" />
    <glyph glyph-name="obreve" unicode="&#x14f;" horiz-adv-x="512" 
d="M47 121l31 252q7 57 52.5 93t150.5 36q91 0 133 -30.5t42 -80.5v-7.5t-1 -10.5l-31 -252q-7 -57 -52.5 -93t-150.5 -36q-92 0 -133.5 31t-41.5 80v8t1 10zM355 126l28 226q1 5 2 15t1 12q0 31 -26 48.5t-85 17.5q-66 0 -95 -21t-33 -56l-31 -242q-1 -5 -1 -7.5v-4.5
q0 -31 25.5 -48t85.5 -17q66 0 95.5 21t33.5 56zM235 683l-2 -22q-1 -7 -1 -10v-4q0 -22 13.5 -35.5t48.5 -13.5q43 0 57.5 20.5t16.5 51.5l1 13q1 7 4.5 10t11.5 3h25q7 0 9.5 -3t1.5 -10l-1 -12q-4 -54 -32 -85.5t-97 -31.5q-55 0 -83 23t-28 66v7.5t1 11.5l2 21
q1 7 4.5 10t10.5 3h25q7 0 10 -3t2 -10z" />
    <glyph glyph-name="ohungarumlaut" unicode="&#x151;" horiz-adv-x="512" 
d="M347 693l-76 -111q-4 -7 -9 -10.5t-12 -3.5h-31q-7 0 -9 4t2 10l68 111q4 7 9.5 11t12.5 4h37q8 0 10 -4.5t-2 -10.5zM462 693l-91 -112q-4 -5 -9.5 -9t-12.5 -4h-31q-7 0 -8 3.5t3 10.5l82 111q5 7 11.5 11t13.5 4h37q8 0 9 -4.5t-4 -10.5zM47 121l31 252q7 57 52.5 93
t150.5 36q91 0 133 -30.5t42 -80.5v-7.5t-1 -10.5l-31 -252q-7 -57 -52.5 -93t-150.5 -36q-92 0 -133.5 31t-41.5 80v8t1 10zM355 126l28 226q1 5 2 15t1 12q0 31 -26 48.5t-85 17.5q-66 0 -95 -21t-33 -56l-31 -242q-1 -5 -1 -7.5v-4.5q0 -31 25.5 -48t85.5 -17
q66 0 95.5 21t33.5 56z" />
    <glyph glyph-name="p" unicode="p" horiz-adv-x="524" 
d="M366 130l29 232q1 7 1 9.5v6.5q0 27 -18.5 44.5t-61.5 17.5q-54 0 -96.5 -22t-60.5 -35l-34 -273q15 -13 51.5 -34.5t91.5 -21.5q49 0 71.5 22.5t26.5 53.5zM117 494h37q7 0 10.5 -3.5t2.5 -11.5l-3 -38q24 17 69 39t108 22t94.5 -29.5t31.5 -78.5v-8.5t-1 -11.5
l-32 -254q-7 -57 -42.5 -92.5t-109.5 -35.5q-60 0 -102.5 21t-61.5 37l-29 -241q-1 -8 -5 -11.5t-12 -3.5h-40q-6 0 -10 3t-3 12l83 670q1 7 4.5 11t10.5 4z" />
    <glyph glyph-name="q" unicode="q" horiz-adv-x="524" 
d="M420 494h37q8 0 10.5 -4t1.5 -11l-82 -670q-1 -8 -5 -11.5t-11 -3.5h-41q-9 0 -11 4.5t-1 10.5l29 241q-24 -16 -67.5 -37t-106.5 -21t-94.5 29.5t-31.5 78.5v9t1 11l31 254q7 57 43 92.5t110 35.5q63 0 104 -22t60 -39l7 38q1 7 5.5 11t11.5 4zM147 364l-29 -230
q-1 -7 -1 -10.5v-6.5q0 -28 18.5 -45.5t61.5 -17.5q54 0 96.5 21.5t61.5 34.5l33 273q-15 13 -51 35t-92 22q-48 0 -71 -22.5t-27 -53.5z" />
    <glyph glyph-name="r" unicode="r" horiz-adv-x="344" 
d="M336 501q7 0 11 -3.5t3 -11.5l-4 -33q-1 -8 -5.5 -10.5t-12.5 -3.5q-54 -2 -102 -27t-68 -40l-44 -357q-1 -7 -4.5 -11t-11.5 -4h-41q-7 0 -10.5 3.5t-2.5 11.5l58 464q1 7 4.5 11t10.5 4h37q7 0 11 -4t3 -11l-4 -49q24 19 69.5 45t102.5 26z" />
    <glyph glyph-name="racute" unicode="&#x155;" horiz-adv-x="343" 
d="M338 693l-93 -116q-2 -3 -7 -6t-12 -3h-35q-6 0 -8 3.5t3 10.5l80 112q4 6 9 10t12 4h45q8 0 9.5 -4.5t-3.5 -10.5zM336 501q7 0 11 -3.5t3 -11.5l-4 -33q-1 -8 -5.5 -10.5t-12.5 -3.5q-54 -2 -102 -27t-68 -40l-44 -357q-1 -7 -4.5 -11t-11.5 -4h-41q-7 0 -10.5 3.5
t-2.5 11.5l58 464q1 7 4.5 11t10.5 4h37q7 0 11 -4t3 -11l-4 -49q24 19 69.5 45t102.5 26z" />
    <glyph glyph-name="rcommaaccent" unicode="&#x157;" horiz-adv-x="343" 
d="M35 -92l4 27q1 7 5.5 11t11.5 4h30q8 0 10.5 -4t1.5 -11l-3 -31q-4 -38 -19 -65t-34 -52q-4 -7 -9 -8t-11 0l-23 6q-7 1 -8 6.5t3 12.5q18 31 27 50.5t14 53.5zM336 501q7 0 11 -3.5t3 -11.5l-4 -33q-1 -8 -5.5 -10.5t-12.5 -3.5q-54 -2 -102 -27t-68 -40l-44 -357
q-1 -7 -4.5 -11t-11.5 -4h-41q-7 0 -10.5 3.5t-2.5 11.5l58 464q1 7 4.5 11t10.5 4h37q7 0 11 -4t3 -11l-4 -49q24 19 69.5 45t102.5 26z" />
    <glyph glyph-name="rcaron" unicode="&#x159;" horiz-adv-x="343" 
d="M173 693l43 -82l63 82q4 6 9.5 10.5t12.5 4.5h33q7 0 9 -4.5t-3 -10.5l-91 -111q-5 -6 -11 -10t-14 -4h-25q-7 0 -12.5 4t-9.5 11l-63 110q-4 6 -1 10.5t11 4.5h31q7 0 11 -5t7 -10zM336 501q7 0 11 -3.5t3 -11.5l-4 -33q-1 -8 -5.5 -10.5t-12.5 -3.5q-54 -2 -102 -27
t-68 -40l-44 -357q-1 -7 -4.5 -11t-11.5 -4h-41q-7 0 -10.5 3.5t-2.5 11.5l58 464q1 7 4.5 11t10.5 4h37q7 0 11 -4t3 -11l-4 -49q24 19 69.5 45t102.5 26z" />
    <glyph glyph-name="s" unicode="s" horiz-adv-x="471" 
d="M352 359l3 21q1 7 1 11v7q0 22 -24.5 37.5t-78.5 15.5q-56 0 -84 -15t-32 -45l-3 -24q-1 -6 -1 -8.5v-3.5q0 -16 10 -29t33 -20l148 -49q37 -13 56 -34.5t19 -47.5v-8.5t-1 -12.5l-6 -54q-5 -45 -50.5 -76.5t-143.5 -31.5q-88 0 -129 29.5t-41 69.5v6t1 10l3 25
q1 7 5 10.5t11 3.5h37q6 0 9 -3t2 -11l-2 -22q-1 -7 -1 -9.5v-3.5q0 -25 28.5 -39t80.5 -14q57 0 89.5 16t36.5 46l5 35q1 7 1 10v6q0 16 -15 27.5t-37 18.5l-144 49q-31 10 -51 33t-20 54v5.5t1 10.5l5 37q6 45 46.5 77.5t137.5 32.5q86 0 124.5 -30.5t38.5 -70.5v-7
t-1 -11l-3 -24q-1 -7 -4.5 -10t-10.5 -3h-37q-7 0 -10 3t-2 10z" />
    <glyph glyph-name="sacute" unicode="&#x15b;" horiz-adv-x="472" 
d="M384 693l-93 -116q-2 -3 -7 -6t-12 -3h-35q-6 0 -8 3.5t3 10.5l80 112q4 6 9 10t12 4h45q8 0 9.5 -4.5t-3.5 -10.5zM352 359l3 21q1 7 1 11v7q0 22 -24.5 37.5t-78.5 15.5q-56 0 -84 -15t-32 -45l-3 -24q-1 -6 -1 -8.5v-3.5q0 -16 10 -29t33 -20l148 -49q37 -13 56 -34.5
t19 -47.5v-8.5t-1 -12.5l-6 -54q-5 -45 -50.5 -76.5t-143.5 -31.5q-88 0 -129 29.5t-41 69.5v6t1 10l3 25q1 7 5 10.5t11 3.5h37q6 0 9 -3t2 -11l-2 -22q-1 -7 -1 -9.5v-3.5q0 -25 28.5 -39t80.5 -14q57 0 89.5 16t36.5 46l5 35q1 7 1 10v6q0 16 -15 27.5t-37 18.5l-144 49
q-31 10 -51 33t-20 54v5.5t1 10.5l5 37q6 45 46.5 77.5t137.5 32.5q86 0 124.5 -30.5t38.5 -70.5v-7t-1 -11l-3 -24q-1 -7 -4.5 -10t-10.5 -3h-37q-7 0 -10 3t-2 10z" />
    <glyph glyph-name="scircumflex" unicode="&#x15d;" horiz-adv-x="472" 
d="M270 664l-63 -82q-4 -5 -9.5 -9.5t-12.5 -4.5h-33q-7 0 -8.5 4t2.5 10l90 111q5 6 11.5 10.5t13.5 4.5h26q8 0 12.5 -4t8.5 -10l64 -112q4 -6 1 -10t-10 -4h-31q-7 0 -12 4t-8 10zM352 359l3 21q1 7 1 11v7q0 22 -24.5 37.5t-78.5 15.5q-56 0 -84 -15t-32 -45l-3 -24
q-1 -6 -1 -8.5v-3.5q0 -16 10 -29t33 -20l148 -49q37 -13 56 -34.5t19 -47.5v-8.5t-1 -12.5l-6 -54q-5 -45 -50.5 -76.5t-143.5 -31.5q-88 0 -129 29.5t-41 69.5v6t1 10l3 25q1 7 5 10.5t11 3.5h37q6 0 9 -3t2 -11l-2 -22q-1 -7 -1 -9.5v-3.5q0 -25 28.5 -39t80.5 -14
q57 0 89.5 16t36.5 46l5 35q1 7 1 10v6q0 16 -15 27.5t-37 18.5l-144 49q-31 10 -51 33t-20 54v5.5t1 10.5l5 37q6 45 46.5 77.5t137.5 32.5q86 0 124.5 -30.5t38.5 -70.5v-7t-1 -11l-3 -24q-1 -7 -4.5 -10t-10.5 -3h-37q-7 0 -10 3t-2 10z" />
    <glyph glyph-name="scedilla" unicode="&#x15f;" horiz-adv-x="472" 
d="M211 -211h-116q-9 0 -11 4.5t-1 10.5l2 15q1 7 4.5 10.5t10.5 3.5h106q17 0 32 7.5t15 32.5q0 18 -12.5 24t-25.5 6h-61q-10 0 -16 4.5t-2 14.5l28 71q-70 6 -103 34t-33 64v6t1 10l3 25q1 7 5 10.5t11 3.5h37q6 0 9 -3t2 -11l-2 -22q-1 -7 -1 -9.5v-3.5q0 -25 28.5 -39
t80.5 -14q57 0 89.5 16t36.5 46l5 35q1 7 1 10v6q0 16 -15 27.5t-37 18.5l-144 49q-31 10 -51 33t-20 54v5.5t1 10.5l5 37q6 45 46.5 77.5t137.5 32.5q86 0 124.5 -30.5t38.5 -70.5v-7t-1 -11l-3 -24q-1 -7 -4.5 -10t-10.5 -3h-37q-7 0 -10 3t-2 10l3 21q1 7 1 11v7
q0 22 -24.5 37.5t-78.5 15.5q-56 0 -84 -15t-32 -45l-3 -24q-1 -6 -1 -8.5v-3.5q0 -16 10 -29t33 -20l148 -49q37 -13 56 -34.5t19 -47.5v-8.5t-1 -12.5l-6 -54q-5 -43 -47.5 -74t-132.5 -34l-18 -45h36q28 0 51 -16.5t23 -53.5q0 -49 -29 -68.5t-64 -19.5z" />
    <glyph glyph-name="scaron" unicode="&#x161;" horiz-adv-x="472" 
d="M215 693l43 -82l63 82q4 6 9.5 10.5t12.5 4.5h33q7 0 9 -4.5t-3 -10.5l-91 -111q-5 -6 -11 -10t-14 -4h-25q-7 0 -12.5 4t-9.5 11l-63 110q-4 6 -1 10.5t11 4.5h31q7 0 11 -5t7 -10zM352 359l3 21q1 7 1 11v7q0 22 -24.5 37.5t-78.5 15.5q-56 0 -84 -15t-32 -45l-3 -24
q-1 -6 -1 -8.5v-3.5q0 -16 10 -29t33 -20l148 -49q37 -13 56 -34.5t19 -47.5v-8.5t-1 -12.5l-6 -54q-5 -45 -50.5 -76.5t-143.5 -31.5q-88 0 -129 29.5t-41 69.5v6t1 10l3 25q1 7 5 10.5t11 3.5h37q6 0 9 -3t2 -11l-2 -22q-1 -7 -1 -9.5v-3.5q0 -25 28.5 -39t80.5 -14
q57 0 89.5 16t36.5 46l5 35q1 7 1 10v6q0 16 -15 27.5t-37 18.5l-144 49q-31 10 -51 33t-20 54v5.5t1 10.5l5 37q6 45 46.5 77.5t137.5 32.5q86 0 124.5 -30.5t38.5 -70.5v-7t-1 -11l-3 -24q-1 -7 -4.5 -10t-10.5 -3h-37q-7 0 -10 3t-2 10z" />
    <glyph glyph-name="scommaaccent" unicode="&#x219;" horiz-adv-x="471" 
d="M168 -91l4 27q1 7 5.5 11t11.5 4h30q8 0 10.5 -4t1.5 -11l-3 -31q-4 -38 -19 -65t-34 -52q-4 -7 -9 -8t-11 0l-23 6q-7 1 -8 6.5t3 12.5q18 31 27 50.5t14 53.5zM352 359l3 21q1 7 1 11v7q0 22 -24.5 37.5t-78.5 15.5q-56 0 -84 -15t-32 -45l-3 -24q-1 -6 -1 -8.5v-3.5
q0 -16 10 -29t33 -20l148 -49q37 -13 56 -34.5t19 -47.5v-8.5t-1 -12.5l-6 -54q-5 -45 -50.5 -76.5t-143.5 -31.5q-88 0 -129 29.5t-41 69.5v6t1 10l3 25q1 7 5 10.5t11 3.5h37q6 0 9 -3t2 -11l-2 -22q-1 -7 -1 -9.5v-3.5q0 -25 28.5 -39t80.5 -14q57 0 89.5 16t36.5 46
l5 35q1 7 1 10v6q0 16 -15 27.5t-37 18.5l-144 49q-31 10 -51 33t-20 54v5.5t1 10.5l5 37q6 45 46.5 77.5t137.5 32.5q86 0 124.5 -30.5t38.5 -70.5v-7t-1 -11l-3 -24q-1 -7 -4.5 -10t-10.5 -3h-37q-7 0 -10 3t-2 10z" />
    <glyph glyph-name="t" unicode="t" horiz-adv-x="331" 
d="M186 435l-37 -296q-1 -7 -1 -10.5v-6.5q0 -30 21.5 -46.5t83.5 -16.5h19q8 0 11 -4t2 -11l-2 -29q-1 -8 -5.5 -11.5t-11.5 -3.5h-27q-90 0 -125.5 28t-35.5 77v11t1 13l37 306h-60q-8 0 -10.5 4t-1.5 11l2 24q1 7 5.5 10.5t11.5 4.5l59 3h1l14 106q1 7 4.5 11t11.5 4h40
q8 0 11 -4t2 -11l-14 -106h113q8 0 11 -3.5t2 -10.5l-3 -29q-1 -7 -5 -10.5t-12 -3.5h-112z" />
    <glyph glyph-name="tcommaaccent" unicode="&#x163;" horiz-adv-x="327" 
d="M68 -92l4 27q1 7 5.5 11t11.5 4h30q8 0 10.5 -4t1.5 -11l-3 -31q-4 -38 -19 -65t-34 -52q-4 -7 -9 -8t-11 0l-23 6q-7 1 -8 6.5t3 12.5q18 31 27 50.5t14 53.5zM186 435l-37 -296q-1 -7 -1 -10.5v-6.5q0 -30 21.5 -46.5t83.5 -16.5h19q8 0 11 -4t2 -11l-2 -29
q-1 -8 -5.5 -11.5t-11.5 -3.5h-27q-90 0 -125.5 28t-35.5 77v11t1 13l37 306h-60q-8 0 -10.5 4t-1.5 11l2 24q1 7 5.5 10.5t11.5 4.5l59 3h1l14 106q1 7 4.5 11t11.5 4h40q8 0 11 -4t2 -11l-14 -106h113q8 0 11 -3.5t2 -10.5l-3 -29q-1 -7 -5 -10.5t-12 -3.5h-112z" />
    <glyph glyph-name="tcaron" unicode="&#x165;" horiz-adv-x="327" 
d="M294 676l4 27q1 7 5.5 11t11.5 4h30q8 0 10.5 -4t1.5 -11l-3 -31q-4 -38 -19 -65t-34 -52q-4 -7 -9 -8t-11 0l-23 6q-7 1 -8 6.5t3 12.5q18 31 27 50.5t14 53.5zM186 435l-37 -296q-1 -7 -1 -10.5v-6.5q0 -30 21.5 -46.5t83.5 -16.5h19q8 0 11 -4t2 -11l-2 -29
q-1 -8 -5.5 -11.5t-11.5 -3.5h-27q-90 0 -125.5 28t-35.5 77v11t1 13l37 306h-60q-8 0 -10.5 4t-1.5 11l2 24q1 7 5.5 10.5t11.5 4.5l59 3h1l14 106q1 7 4.5 11t11.5 4h40q8 0 11 -4t2 -11l-14 -106h113q8 0 11 -3.5t2 -10.5l-3 -29q-1 -7 -5 -10.5t-12 -3.5h-112z" />
    <glyph glyph-name="u" unicode="u" horiz-adv-x="524" 
d="M346 15l3 36q-22 -17 -64.5 -38t-105.5 -21q-62 0 -94.5 29.5t-32.5 75.5v7.5t1 9.5l45 365q1 7 5 11t11 4h41q5 0 9 -3t3 -12l-43 -349q-1 -6 -1 -8.5v-6.5q0 -28 18.5 -44.5t61.5 -16.5q54 0 94 21t58 34l45 370q1 7 5 11t11 4h41q8 0 11 -4t2 -11l-58 -464
q-1 -8 -4.5 -11.5t-11.5 -3.5h-36q-8 0 -11.5 3.5t-2.5 11.5z" />
    <glyph glyph-name="ugrave" unicode="&#xf9;" horiz-adv-x="524" 
d="M346 15l3 36q-22 -17 -64.5 -38t-105.5 -21q-62 0 -94.5 29.5t-32.5 75.5v7.5t1 9.5l45 365q1 7 5 11t11 4h41q5 0 9 -3t3 -12l-43 -349q-1 -6 -1 -8.5v-6.5q0 -28 18.5 -44.5t61.5 -16.5q54 0 94 21t58 34l45 370q1 7 5 11t11 4h41q8 0 11 -4t2 -11l-58 -464
q-1 -8 -4.5 -11.5t-11.5 -3.5h-36q-8 0 -11.5 3.5t-2.5 11.5zM259 577l-65 116q-3 6 -0.5 10.5t10.5 4.5h42q8 0 11.5 -4t6.5 -10l53 -112q3 -7 0.5 -10.5t-9.5 -3.5h-32q-7 0 -11 2.5t-6 6.5z" />
    <glyph glyph-name="uacute" unicode="&#xfa;" horiz-adv-x="524" 
d="M413 693l-93 -116q-2 -3 -7 -6t-12 -3h-35q-6 0 -8 3.5t3 10.5l80 112q4 6 9 10t12 4h45q8 0 9.5 -4.5t-3.5 -10.5zM346 15l3 36q-22 -17 -64.5 -38t-105.5 -21q-62 0 -94.5 29.5t-32.5 75.5v7.5t1 9.5l45 365q1 7 5 11t11 4h41q5 0 9 -3t3 -12l-43 -349q-1 -6 -1 -8.5
v-6.5q0 -28 18.5 -44.5t61.5 -16.5q54 0 94 21t58 34l45 370q1 7 5 11t11 4h41q8 0 11 -4t2 -11l-58 -464q-1 -8 -4.5 -11.5t-11.5 -3.5h-36q-8 0 -11.5 3.5t-2.5 11.5z" />
    <glyph glyph-name="ucircumflex" unicode="&#xfb;" horiz-adv-x="524" 
d="M301 664l-63 -82q-4 -5 -9.5 -9.5t-12.5 -4.5h-33q-7 0 -8.5 4t2.5 10l90 111q5 6 11.5 10.5t13.5 4.5h26q8 0 12.5 -4t8.5 -10l64 -112q4 -6 1 -10t-10 -4h-31q-7 0 -12 4t-8 10zM346 15l3 36q-22 -17 -64.5 -38t-105.5 -21q-62 0 -94.5 29.5t-32.5 75.5v7.5t1 9.5
l45 365q1 7 5 11t11 4h41q5 0 9 -3t3 -12l-43 -349q-1 -6 -1 -8.5v-6.5q0 -28 18.5 -44.5t61.5 -16.5q54 0 94 21t58 34l45 370q1 7 5 11t11 4h41q8 0 11 -4t2 -11l-58 -464q-1 -8 -4.5 -11.5t-11.5 -3.5h-36q-8 0 -11.5 3.5t-2.5 11.5z" />
    <glyph glyph-name="udieresis" unicode="&#xfc;" horiz-adv-x="524" 
d="M387 688l-11 -97q-1 -7 -5 -10.5t-12 -3.5h-24q-8 0 -11 3.5t-2 10.5l12 97q1 7 5 11t11 4h25q8 0 10.5 -4t1.5 -11zM280 688l-12 -97q-1 -7 -4.5 -10.5t-11.5 -3.5h-24q-8 0 -11 3.5t-2 10.5l12 97q1 7 5 11t11 4h25q7 0 10 -4t2 -11zM346 15l3 36q-22 -17 -64.5 -38
t-105.5 -21q-62 0 -94.5 29.5t-32.5 75.5v7.5t1 9.5l45 365q1 7 5 11t11 4h41q5 0 9 -3t3 -12l-43 -349q-1 -6 -1 -8.5v-6.5q0 -28 18.5 -44.5t61.5 -16.5q54 0 94 21t58 34l45 370q1 7 5 11t11 4h41q8 0 11 -4t2 -11l-58 -464q-1 -8 -4.5 -11.5t-11.5 -3.5h-36
q-8 0 -11.5 3.5t-2.5 11.5z" />
    <glyph glyph-name="utilde" unicode="&#x169;" horiz-adv-x="524" 
d="M346 15l3 36q-22 -17 -64.5 -38t-105.5 -21q-62 0 -94.5 29.5t-32.5 75.5v7.5t1 9.5l45 365q1 7 5 11t11 4h41q5 0 9 -3t3 -12l-43 -349q-1 -6 -1 -8.5v-6.5q0 -28 18.5 -44.5t61.5 -16.5q54 0 94 21t58 34l45 370q1 7 5 11t11 4h41q8 0 11 -4t2 -11l-58 -464
q-1 -8 -4.5 -11.5t-11.5 -3.5h-36q-8 0 -11.5 3.5t-2.5 11.5zM232 643q-16 0 -21.5 -9.5t-9.5 -31.5l-3 -14q-1 -8 -5.5 -11t-11.5 -3h-21q-7 0 -9.5 5t-1.5 12l5 25q8 43 28.5 62t50.5 19q13 0 27.5 -5t27.5 -15l41 -33q8 -7 16.5 -11.5t15.5 -4.5q16 0 22.5 9.5t9.5 37.5
l1 9q1 7 5.5 10t11.5 3h22q8 0 10.5 -4.5t1.5 -11.5l-4 -25q-7 -44 -30 -62t-51 -18q-17 0 -30.5 5t-25.5 15l-41 33q-8 7 -16 10.5t-15 3.5z" />
    <glyph glyph-name="umacron" unicode="&#x16b;" horiz-adv-x="524" 
d="M346 15l3 36q-22 -17 -64.5 -38t-105.5 -21q-62 0 -94.5 29.5t-32.5 75.5v7.5t1 9.5l45 365q1 7 5 11t11 4h41q5 0 9 -3t3 -12l-43 -349q-1 -6 -1 -8.5v-6.5q0 -28 18.5 -44.5t61.5 -16.5q54 0 94 21t58 34l45 370q1 7 5 11t11 4h41q8 0 11 -4t2 -11l-58 -464
q-1 -8 -4.5 -11.5t-11.5 -3.5h-36q-8 0 -11.5 3.5t-2.5 11.5zM173 651h250q8 0 11.5 -3t2.5 -10l-3 -26q-1 -8 -5.5 -11.5t-11.5 -3.5h-251q-7 0 -10.5 3.5t-2.5 11.5l3 25q1 7 5 10.5t12 3.5z" />
    <glyph glyph-name="ubreve" unicode="&#x16d;" horiz-adv-x="524" 
d="M346 15l3 36q-22 -17 -64.5 -38t-105.5 -21q-62 0 -94.5 29.5t-32.5 75.5v7.5t1 9.5l45 365q1 7 5 11t11 4h41q5 0 9 -3t3 -12l-43 -349q-1 -6 -1 -8.5v-6.5q0 -28 18.5 -44.5t61.5 -16.5q54 0 94 21t58 34l45 370q1 7 5 11t11 4h41q8 0 11 -4t2 -11l-58 -464
q-1 -8 -4.5 -11.5t-11.5 -3.5h-36q-8 0 -11.5 3.5t-2.5 11.5zM235 683l-2 -22q-1 -7 -1 -10v-4q0 -22 13.5 -35.5t48.5 -13.5q43 0 57.5 20.5t16.5 51.5l1 13q1 7 4.5 10t11.5 3h25q7 0 9.5 -3t1.5 -10l-1 -12q-4 -54 -32 -85.5t-97 -31.5q-55 0 -83 23t-28 66v7.5t1 11.5
l2 21q1 7 4.5 10t10.5 3h25q7 0 10 -3t2 -10z" />
    <glyph glyph-name="uring" unicode="&#x16f;" horiz-adv-x="524" 
d="M395 646l-2 -26q-2 -29 -25.5 -47.5t-71.5 -18.5t-69.5 17.5t-18.5 54.5l2 26q2 29 26.5 48.5t73.5 19.5q47 0 67.5 -19.5t17.5 -54.5zM353 627l1 20q1 15 -9 25.5t-39 10.5q-28 0 -41.5 -10.5t-14.5 -26.5l-1 -15q-1 -22 9 -31.5t38 -9.5t42 10t15 27zM346 15l3 36
q-22 -17 -64.5 -38t-105.5 -21q-62 0 -94.5 29.5t-32.5 75.5v7.5t1 9.5l45 365q1 7 5 11t11 4h41q5 0 9 -3t3 -12l-43 -349q-1 -6 -1 -8.5v-6.5q0 -28 18.5 -44.5t61.5 -16.5q54 0 94 21t58 34l45 370q1 7 5 11t11 4h41q8 0 11 -4t2 -11l-58 -464q-1 -8 -4.5 -11.5
t-11.5 -3.5h-36q-8 0 -11.5 3.5t-2.5 11.5z" />
    <glyph glyph-name="uhungarumlaut" unicode="&#x171;" horiz-adv-x="524" 
d="M346 15l3 36q-22 -17 -64.5 -38t-105.5 -21q-62 0 -94.5 29.5t-32.5 75.5v7.5t1 9.5l45 365q1 7 5 11t11 4h41q5 0 9 -3t3 -12l-43 -349q-1 -6 -1 -8.5v-6.5q0 -28 18.5 -44.5t61.5 -16.5q54 0 94 21t58 34l45 370q1 7 5 11t11 4h41q8 0 11 -4t2 -11l-58 -464
q-1 -8 -4.5 -11.5t-11.5 -3.5h-36q-8 0 -11.5 3.5t-2.5 11.5zM344 693l-76 -111q-4 -7 -9 -10.5t-12 -3.5h-31q-7 0 -9 4t2 10l68 111q4 7 9.5 11t12.5 4h37q8 0 10 -4.5t-2 -10.5zM459 693l-91 -112q-4 -5 -9.5 -9t-12.5 -4h-31q-7 0 -8 3.5t3 10.5l82 111q5 7 11.5 11
t13.5 4h37q8 0 9 -4.5t-4 -10.5z" />
    <glyph glyph-name="uogonek" unicode="&#x173;" horiz-adv-x="524" 
d="M390 -154h-26q-35 0 -62 17t-27 58q0 24 16.5 53t55.5 49l2 28q-22 -17 -64.5 -38t-105.5 -21q-62 0 -94.5 29.5t-32.5 75.5v7t1 10l45 365q1 7 5 11t11 4h41q5 0 9 -3t3 -12l-43 -349q-1 -6 -1 -9v-6q0 -28 18.5 -44.5t61.5 -16.5q54 0 94 21t58 34l45 370q1 7 5 11
t11 4h41q8 0 11 -4t2 -11l-58 -464q-1 -8 -4.5 -11.5t-11.5 -3.5h-3q-28 -4 -46 -25.5t-18 -42.5q0 -19 13 -28t41 -9h13q7 0 11.5 -3.5t3.5 -10.5l-2 -20q-1 -8 -6.5 -11.5t-12.5 -3.5z" />
    <glyph glyph-name="v" unicode="v" horiz-adv-x="447" 
d="M211 0h-46q-7 0 -10 3.5t-4 10.5l-101 464q-1 7 2.5 11.5t11.5 4.5h42q7 0 10 -4t4 -11l71 -331q4 -16 5.5 -34.5t2.5 -28.5q1 5 8 25.5t14 36.5l154 332q3 7 7.5 11t11.5 4h39q8 0 11.5 -4t0.5 -11l-217 -465q-4 -7 -7 -10.5t-10 -3.5z" />
    <glyph glyph-name="w" unicode="w" horiz-adv-x="673" 
d="M625 494h34q7 0 11 -4t1 -11l-188 -465q-3 -7 -6.5 -10.5t-10.5 -3.5h-48q-7 0 -10 3.5t-4 10.5l-47 338q-1 12 -2.5 27.5t-1.5 20.5q-2 -7 -8 -23t-10 -26l-137 -337q-3 -7 -7 -10.5t-11 -3.5h-47q-7 0 -9.5 3.5t-3.5 10.5l-68 465q-1 7 3 11t12 4h39q7 0 10.5 -4
t4.5 -11l50 -348q1 -10 2.5 -22t1.5 -19q1 5 5.5 18.5t8.5 22.5l139 348q3 7 7 11t11 4h44q7 0 10.5 -4t4.5 -11l46 -348q1 -10 2.5 -21.5t2.5 -18.5q1 6 5 18t8 22l137 348q3 7 7 11t12 4z" />
    <glyph glyph-name="wcircumflex" unicode="&#x175;" horiz-adv-x="673" 
d="M380 664l-63 -82q-4 -5 -9.5 -9.5t-12.5 -4.5h-33q-7 0 -8.5 4t2.5 10l90 111q5 6 11.5 10.5t13.5 4.5h26q8 0 12.5 -4t8.5 -10l64 -112q4 -6 1 -10t-10 -4h-31q-7 0 -12 4t-8 10zM625 494h34q7 0 11 -4t1 -11l-188 -465q-3 -7 -6.5 -10.5t-10.5 -3.5h-48q-7 0 -10 3.5
t-4 10.5l-47 338q-1 12 -2.5 27.5t-1.5 20.5q-2 -7 -8 -23t-10 -26l-137 -337q-3 -7 -7 -10.5t-11 -3.5h-47q-7 0 -9.5 3.5t-3.5 10.5l-68 465q-1 7 3 11t12 4h39q7 0 10.5 -4t4.5 -11l50 -348q1 -10 2.5 -22t1.5 -19q1 5 5.5 18.5t8.5 22.5l139 348q3 7 7 11t11 4h44
q7 0 10.5 -4t4.5 -11l46 -348q1 -10 2.5 -21.5t2.5 -18.5q1 6 5 18t8 22l137 348q3 7 7 11t12 4z" />
    <glyph glyph-name="wgrave" unicode="&#x1e81;" horiz-adv-x="675" 
d="M625 494h34q7 0 11 -4t1 -11l-188 -465q-3 -7 -6.5 -10.5t-10.5 -3.5h-48q-7 0 -10 3.5t-4 10.5l-47 338q-1 12 -2.5 27.5t-1.5 20.5q-2 -7 -8 -23t-10 -26l-137 -337q-3 -7 -7 -10.5t-11 -3.5h-47q-7 0 -9.5 3.5t-3.5 10.5l-68 465q-1 7 3 11t12 4h39q7 0 10.5 -4
t4.5 -11l50 -348q1 -10 2.5 -22t1.5 -19q1 5 5.5 18.5t8.5 22.5l139 348q3 7 7 11t11 4h44q7 0 10.5 -4t4.5 -11l46 -348q1 -10 2.5 -21.5t2.5 -18.5q1 6 5 18t8 22l137 348q3 7 7 11t12 4zM334 577l-65 116q-3 6 -0.5 10.5t10.5 4.5h42q8 0 11.5 -4t6.5 -10l53 -112
q3 -7 0.5 -10.5t-9.5 -3.5h-32q-7 0 -11 2.5t-6 6.5z" />
    <glyph glyph-name="wacute" unicode="&#x1e83;" horiz-adv-x="675" 
d="M500 693l-93 -116q-2 -3 -7 -6t-12 -3h-35q-6 0 -8 3.5t3 10.5l80 112q4 6 9 10t12 4h45q8 0 9.5 -4.5t-3.5 -10.5zM625 494h34q7 0 11 -4t1 -11l-188 -465q-3 -7 -6.5 -10.5t-10.5 -3.5h-48q-7 0 -10 3.5t-4 10.5l-47 338q-1 12 -2.5 27.5t-1.5 20.5q-2 -7 -8 -23
t-10 -26l-137 -337q-3 -7 -7 -10.5t-11 -3.5h-47q-7 0 -9.5 3.5t-3.5 10.5l-68 465q-1 7 3 11t12 4h39q7 0 10.5 -4t4.5 -11l50 -348q1 -10 2.5 -22t1.5 -19q1 5 5.5 18.5t8.5 22.5l139 348q3 7 7 11t11 4h44q7 0 10.5 -4t4.5 -11l46 -348q1 -10 2.5 -21.5t2.5 -18.5
q1 6 5 18t8 22l137 348q3 7 7 11t12 4z" />
    <glyph glyph-name="wdieresis" unicode="&#x1e85;" horiz-adv-x="675" 
d="M463 688l-11 -97q-1 -7 -5 -10.5t-12 -3.5h-24q-8 0 -11 3.5t-2 10.5l12 97q1 7 5 11t11 4h25q8 0 10.5 -4t1.5 -11zM356 688l-12 -97q-1 -7 -4.5 -10.5t-11.5 -3.5h-24q-8 0 -11 3.5t-2 10.5l12 97q1 7 5 11t11 4h25q7 0 10 -4t2 -11zM625 494h34q7 0 11 -4t1 -11
l-188 -465q-3 -7 -6.5 -10.5t-10.5 -3.5h-48q-7 0 -10 3.5t-4 10.5l-47 338q-1 12 -2.5 27.5t-1.5 20.5q-2 -7 -8 -23t-10 -26l-137 -337q-3 -7 -7 -10.5t-11 -3.5h-47q-7 0 -9.5 3.5t-3.5 10.5l-68 465q-1 7 3 11t12 4h39q7 0 10.5 -4t4.5 -11l50 -348q1 -10 2.5 -22
t1.5 -19q1 5 5.5 18.5t8.5 22.5l139 348q3 7 7 11t11 4h44q7 0 10.5 -4t4.5 -11l46 -348q1 -10 2.5 -21.5t2.5 -18.5q1 6 5 18t8 22l137 348q3 7 7 11t12 4z" />
    <glyph glyph-name="x" unicode="x" horiz-adv-x="462" 
d="M116 494q8 0 12 -4.5t8 -10.5l102 -179l138 179q4 6 10.5 10.5t13.5 4.5h43q7 0 7.5 -5t-3.5 -10l-183 -230l132 -233q3 -6 1 -11t-10 -5h-45q-8 0 -12.5 5t-7.5 10l-105 186l-148 -186q-4 -5 -10 -10t-14 -5h-41q-7 0 -8.5 5t2.5 10l191 237l-127 227q-3 5 -1.5 10
t10.5 5h45z" />
    <glyph glyph-name="y" unicode="y" horiz-adv-x="446" 
d="M445 479l-311 -671q-3 -6 -7.5 -10.5t-11.5 -4.5h-32q-7 0 -10.5 4t-0.5 11l84 188l-107 483q-1 7 3.5 11t11.5 4h41q7 0 10.5 -4t4.5 -11l72 -332q3 -13 5.5 -31.5t2.5 -28.5q5 16 10.5 30.5t11.5 27.5l154 334q3 7 7.5 11t11.5 4h38q7 0 11.5 -4t0.5 -11z" />
    <glyph glyph-name="yacute" unicode="&#xfd;" horiz-adv-x="446" 
d="M445 479l-311 -671q-3 -6 -7.5 -10.5t-11.5 -4.5h-32q-7 0 -10.5 4t-0.5 11l84 188l-107 483q-1 7 3.5 11t11.5 4h41q7 0 10.5 -4t4.5 -11l72 -332q3 -13 5.5 -31.5t2.5 -28.5q5 16 10.5 30.5t11.5 27.5l154 334q3 7 7.5 11t11.5 4h38q7 0 11.5 -4t0.5 -11zM377 693
l-93 -116q-2 -3 -7 -6t-12 -3h-35q-6 0 -8 3.5t3 10.5l80 112q4 6 9 10t12 4h45q8 0 9.5 -4.5t-3.5 -10.5z" />
    <glyph glyph-name="ydieresis" unicode="&#xff;" horiz-adv-x="446" 
d="M445 479l-311 -671q-3 -6 -7.5 -10.5t-11.5 -4.5h-32q-7 0 -10.5 4t-0.5 11l84 188l-107 483q-1 7 3.5 11t11.5 4h41q7 0 10.5 -4t4.5 -11l72 -332q3 -13 5.5 -31.5t2.5 -28.5q5 16 10.5 30.5t11.5 27.5l154 334q3 7 7.5 11t11.5 4h38q7 0 11.5 -4t0.5 -11zM342 688
l-11 -97q-1 -7 -5 -10.5t-12 -3.5h-24q-8 0 -11 3.5t-2 10.5l12 97q1 7 5 11t11 4h25q8 0 10.5 -4t1.5 -11zM235 688l-12 -97q-1 -7 -4.5 -10.5t-11.5 -3.5h-24q-8 0 -11 3.5t-2 10.5l12 97q1 7 5 11t11 4h25q7 0 10 -4t2 -11z" />
    <glyph glyph-name="ycircumflex" unicode="&#x177;" horiz-adv-x="446" 
d="M445 479l-311 -671q-3 -6 -7.5 -10.5t-11.5 -4.5h-32q-7 0 -10.5 4t-0.5 11l84 188l-107 483q-1 7 3.5 11t11.5 4h41q7 0 10.5 -4t4.5 -11l72 -332q3 -13 5.5 -31.5t2.5 -28.5q5 16 10.5 30.5t11.5 27.5l154 334q3 7 7.5 11t11.5 4h38q7 0 11.5 -4t0.5 -11zM263 664
l-63 -82q-4 -5 -9.5 -9.5t-12.5 -4.5h-33q-7 0 -8.5 4t2.5 10l90 111q5 6 11.5 10.5t13.5 4.5h26q8 0 12.5 -4t8.5 -10l64 -112q4 -6 1 -10t-10 -4h-31q-7 0 -12 4t-8 10z" />
    <glyph glyph-name="ygrave" unicode="&#x1ef3;" horiz-adv-x="447" 
d="M445 479l-311 -671q-3 -6 -7.5 -10.5t-11.5 -4.5h-32q-7 0 -10.5 4t-0.5 11l84 188l-107 483q-1 7 3.5 11t11.5 4h41q7 0 10.5 -4t4.5 -11l72 -332q3 -13 5.5 -31.5t2.5 -28.5q5 16 10.5 30.5t11.5 27.5l154 334q3 7 7.5 11t11.5 4h38q7 0 11.5 -4t0.5 -11zM213 577
l-65 116q-3 6 -0.5 10.5t10.5 4.5h42q8 0 11.5 -4t6.5 -10l53 -112q3 -7 0.5 -10.5t-9.5 -3.5h-32q-7 0 -11 2.5t-6 6.5z" />
    <glyph glyph-name="z" unicode="z" horiz-adv-x="427" 
d="M89 494h300q8 0 11 -3.5t2 -10.5l-3 -28q-1 -4 -3 -8l-3 -6l-302 -380h258q8 0 11.5 -3.5t2.5 -11.5l-4 -28q-1 -8 -5 -11.5t-12 -3.5h-327q-7 0 -10.5 3.5t-2.5 11.5l4 28q1 4 2.5 7.5t3.5 6.5l300 379h-230q-7 0 -10.5 3.5t-2.5 11.5l3 29q1 7 5.5 10.5t11.5 3.5z" />
    <glyph glyph-name="zacute" unicode="&#x17a;" horiz-adv-x="427" 
d="M361 693l-93 -116q-2 -3 -7 -6t-12 -3h-35q-6 0 -8 3.5t3 10.5l80 112q4 6 9 10t12 4h45q8 0 9.5 -4.5t-3.5 -10.5zM89 494h300q8 0 11 -3.5t2 -10.5l-3 -28q-1 -4 -3 -8l-3 -6l-302 -380h258q8 0 11.5 -3.5t2.5 -11.5l-4 -28q-1 -8 -5 -11.5t-12 -3.5h-327
q-7 0 -10.5 3.5t-2.5 11.5l4 28q1 4 2.5 7.5t3.5 6.5l300 379h-230q-7 0 -10.5 3.5t-2.5 11.5l3 29q1 7 5.5 10.5t11.5 3.5z" />
    <glyph glyph-name="zdotaccent" unicode="&#x17c;" horiz-adv-x="427" 
d="M89 494h300q8 0 11 -3.5t2 -10.5l-3 -28q-1 -4 -3 -8l-3 -6l-302 -380h258q8 0 11.5 -3.5t2.5 -11.5l-4 -28q-1 -8 -5 -11.5t-12 -3.5h-327q-7 0 -10.5 3.5t-2.5 11.5l4 28q1 4 2.5 7.5t3.5 6.5l300 379h-230q-7 0 -10.5 3.5t-2.5 11.5l3 29q1 7 5.5 10.5t11.5 3.5z
M287 675l-9 -77q-1 -8 -5 -11.5t-11 -3.5h-42q-7 0 -10.5 3.5t-2.5 11.5l10 77q1 7 4.5 11t11.5 4h42q7 0 10 -3.5t2 -11.5z" />
    <glyph glyph-name="zcaron" unicode="&#x17e;" horiz-adv-x="427" 
d="M197 693l43 -82l63 82q4 6 9.5 10.5t12.5 4.5h33q7 0 9 -4.5t-3 -10.5l-91 -111q-5 -6 -11 -10t-14 -4h-25q-7 0 -12.5 4t-9.5 11l-63 110q-4 6 -1 10.5t11 4.5h31q7 0 11 -5t7 -10zM89 494h300q8 0 11 -3.5t2 -10.5l-3 -28q-1 -4 -3 -8l-3 -6l-302 -380h258
q8 0 11.5 -3.5t2.5 -11.5l-4 -28q-1 -8 -5 -11.5t-12 -3.5h-327q-7 0 -10.5 3.5t-2.5 11.5l4 28q1 4 2.5 7.5t3.5 6.5l300 379h-230q-7 0 -10.5 3.5t-2.5 11.5l3 29q1 7 5.5 10.5t11.5 3.5z" />
    <glyph glyph-name="ordfeminine" unicode="&#xaa;" horiz-adv-x="386" 
d="M160 600l-15 -124q-1 -7 -1 -9.5v-6.5q0 -16 9.5 -25.5t33.5 -9.5q32 0 55.5 14t31.5 21l17 148q-6 7 -25.5 20.5t-50.5 13.5q-28 0 -40.5 -12t-14.5 -30zM269 417q-14 -10 -40 -23t-64 -13q-37 0 -58.5 17t-21.5 47v8t1 11l18 146q4 35 28 56.5t69 21.5q36 0 60.5 -12.5
t36.5 -22.5l5 18q1 7 4 9.5t8 2.5h34q4 0 6.5 -3t1.5 -7l-34 -278q-1 -4 -3.5 -6.5t-7.5 -2.5h-36q-4 0 -6 2.5t-2 6.5z" />
    <glyph glyph-name="ordmasculine" unicode="&#xba;" horiz-adv-x="371" 
d="M86 475l16 131q4 37 33 59.5t95 22.5q56 0 85.5 -19.5t29.5 -51.5q0 -3 -0.5 -9t-1.5 -11l-17 -135q-4 -37 -33.5 -59t-95.5 -22q-56 0 -85 19t-29 51q0 4 1 12t2 12zM268 467l16 130q1 6 1 8.5v3.5q0 16 -13.5 24.5t-44.5 8.5q-34 0 -49.5 -10t-17.5 -29l-16 -126
q-1 -6 -1.5 -10t-0.5 -7q0 -16 14 -25t45 -9q34 0 49.5 11t17.5 30z" />
    <glyph glyph-name="germandbls" unicode="&#xdf;" horiz-adv-x="606" 
d="M365 -8q-86 0 -118 27t-32 73v9t1 12l2 14q1 8 5 12t12 4h28q7 0 10 -4.5t2 -11.5l-1 -13q-1 -7 -1 -10v-5q0 -27 20.5 -43.5t74.5 -16.5q62 0 85 21t27 54l5 46q1 7 1 11.5v8.5q0 25 -21.5 36t-33.5 15l-108 42q-21 8 -46 29.5t-25 58.5v5t1 12l1 13q3 43 33 60t53 24
l55 16q16 4 39 16.5t25 39.5l2 23q1 8 1 13.5v6.5q0 28 -26 47.5t-92 19.5q-71 0 -102 -23t-35 -58l-68 -561q-1 -7 -5.5 -11t-11.5 -4h-41q-7 0 -10 3.5t-2 11.5l52 420h-63q-6 0 -9.5 3.5t-2.5 10.5l2 25q1 7 5.5 11t11.5 4l61 3h1l11 87q7 57 55.5 93t155.5 36
q95 0 136.5 -30.5t41.5 -79.5v-10t-1 -15l-3 -30q-4 -40 -34.5 -60.5t-52.5 -27.5l-66 -20q-13 -4 -35 -12.5t-22 -32.5v-15q0 -19 18 -31t28 -16l113 -46q21 -8 50.5 -29t29.5 -58v-7t-1 -11l-7 -59q-7 -55 -42.5 -90.5t-136.5 -35.5z" />
    <glyph glyph-name="ae" unicode="&#xe6;" horiz-adv-x="784" 
d="M732 373l-15 -123q-1 -7 -4.5 -10.5t-10.5 -3.5h-284l-14 -108q-1 -7 -1 -11v-7q0 -29 23.5 -46t83.5 -17q67 0 94 20.5t31 53.5l3 21q1 7 5.5 10.5t11.5 3.5h34q7 0 10 -3.5t2 -10.5l-2 -23q-5 -56 -47 -91.5t-146 -35.5q-72 0 -111 19t-52 51q-23 -19 -68 -44.5
t-112 -25.5q-54 0 -93 25t-39 76v6.5t1 10.5l6 49q5 46 41 80.5t103 34.5h171l12 91q1 7 1 11.5v8.5q0 28 -22.5 46t-81.5 18q-66 0 -92.5 -20.5t-30.5 -54.5l-2 -16q-1 -8 -4.5 -12t-11.5 -4h-36q-7 0 -10.5 3.5t-2.5 12.5l2 17q7 57 48.5 92t144.5 35q60 0 93.5 -15
t46.5 -39q19 24 56.5 39t101.5 15q90 0 129 -30.5t39 -79.5v-8t-1 -11zM434 371l-11 -82h233l10 77q1 7 1 11v6q0 28 -24 46t-84 18q-66 0 -93.5 -21.5t-31.5 -54.5zM179 49q54 0 95 24.5t60 38.5l13 107h-160q-38 0 -58.5 -20t-24.5 -50l-3 -25q-1 -7 -1 -9.5v-3.5
q0 -33 20.5 -47.5t58.5 -14.5z" />
    <glyph glyph-name="aeacute" unicode="&#x1fd;" horiz-adv-x="784" 
d="M553 693l-93 -116q-2 -3 -7 -6t-12 -3h-35q-6 0 -8 3.5t3 10.5l80 112q4 6 9 10t12 4h45q8 0 9.5 -4.5t-3.5 -10.5zM732 373l-15 -123q-1 -7 -4.5 -10.5t-10.5 -3.5h-284l-14 -108q-1 -7 -1 -11v-7q0 -29 23.5 -46t83.5 -17q67 0 94 20.5t31 53.5l3 21q1 7 5.5 10.5
t11.5 3.5h34q7 0 10 -3.5t2 -10.5l-2 -23q-5 -56 -47 -91.5t-146 -35.5q-72 0 -111 19t-52 51q-23 -19 -68 -44.5t-112 -25.5q-54 0 -93 25t-39 76v6.5t1 10.5l6 49q5 46 41 80.5t103 34.5h171l12 91q1 7 1 11.5v8.5q0 28 -22.5 46t-81.5 18q-66 0 -92.5 -20.5t-30.5 -54.5
l-2 -16q-1 -8 -4.5 -12t-11.5 -4h-36q-7 0 -10.5 3.5t-2.5 12.5l2 17q7 57 48.5 92t144.5 35q60 0 93.5 -15t46.5 -39q19 24 56.5 39t101.5 15q90 0 129 -30.5t39 -79.5v-8t-1 -11zM434 371l-11 -82h233l10 77q1 7 1 11v6q0 28 -24 46t-84 18q-66 0 -93.5 -21.5t-31.5 -54.5
zM179 49q54 0 95 24.5t60 38.5l13 107h-160q-38 0 -58.5 -20t-24.5 -50l-3 -25q-1 -7 -1 -9.5v-3.5q0 -33 20.5 -47.5t58.5 -14.5z" />
    <glyph glyph-name="eth" unicode="&#xf0;" horiz-adv-x="517" 
d="M316 598l79 33q-11 11 -33.5 17.5t-57.5 6.5h-90q-6 0 -10 3t-3 10l2 22q1 8 5.5 11.5t11.5 3.5h90q56 0 91.5 -11.5t53.5 -31.5l54 24q5 2 11 1.5t8 -6.5l4 -10q2 -5 0 -10.5t-9 -8.5l-50 -22q5 -13 5 -29t-1 -24l-56 -457q-7 -57 -51 -92.5t-148 -35.5q-92 0 -134 31
t-42 80v6.5t1 10.5l31 254q7 57 43 92.5t110 35.5q62 0 103 -21.5t61 -38.5l15 122q2 16 -1 24l-3 8l-76 -31q-6 -2 -11.5 -2t-7.5 7l-3 10q-1 5 1 10.5t7 7.5zM356 125l32 259q-15 13 -52 35.5t-91 22.5q-49 0 -72 -23t-27 -54l-29 -240q-1 -6 -1 -8.5v-3.5
q0 -30 25.5 -47.5t85.5 -17.5q66 0 95.5 21t33.5 56z" />
    <glyph glyph-name="oslash" unicode="&#xf8;" horiz-adv-x="512" 
d="M117 126q-1 -11 -0.5 -18t2.5 -14l229 340q-13 5 -31 8t-41 3q-66 0 -95 -21t-33 -56zM227 49q66 0 95.5 21t33.5 56l30 236q2 15 0.5 23t-2.5 15l-229 -341q13 -4 31 -7t41 -3zM108 -11q-7 -11 -13.5 -16.5t-18.5 -5.5h-23q-10 0 -9 7.5t5 14.5l28 42q-15 14 -22.5 32.5
t-7.5 39.5v8t1 10l31 252q7 57 52.5 93t150.5 36q31 0 56.5 -3.5t44.5 -10.5l14 20q5 8 12 15t17 7h25q10 0 10.5 -7t-5.5 -15l-30 -45q16 -13 23.5 -31.5t7.5 -40.5v-7t-1 -11l-31 -252q-7 -57 -52.5 -93t-150.5 -36q-31 0 -57 4t-45 11z" />
    <glyph glyph-name="oslashacute" unicode="&#x1ff;" horiz-adv-x="512" 
d="M117 126q-1 -11 -0.5 -18t2.5 -14l229 340q-13 5 -31 8t-41 3q-66 0 -95 -21t-33 -56zM227 49q66 0 95.5 21t33.5 56l30 236q2 15 0.5 23t-2.5 15l-229 -341q13 -4 31 -7t41 -3zM108 -11q-7 -11 -13.5 -16.5t-18.5 -5.5h-23q-10 0 -9 7.5t5 14.5l28 42q-15 14 -22.5 32.5
t-7.5 39.5v8t1 10l31 252q7 57 52.5 93t150.5 36q31 0 56.5 -3.5t44.5 -10.5l14 20q5 8 12 15t17 7h25q10 0 10.5 -7t-5.5 -15l-30 -45q16 -13 23.5 -31.5t7.5 -40.5v-7t-1 -11l-31 -252q-7 -57 -52.5 -93t-150.5 -36q-31 0 -57 4t-45 11zM411 693l-93 -116q-2 -3 -7 -6
t-12 -3h-35q-6 0 -8 3.5t3 10.5l80 112q4 6 9 10t12 4h45q8 0 9.5 -4.5t-3.5 -10.5z" />
    <glyph glyph-name="thorn" unicode="&#xfe;" horiz-adv-x="524" 
d="M269 52q49 0 71.5 23t26.5 54l29 231q1 7 1 12v7q0 27 -18.5 45t-61.5 18q-56 0 -97.5 -22.5t-59.5 -35.5l-34 -275q15 -13 50.5 -35t92.5 -22zM119 51l-30 -243q-1 -7 -4.5 -11t-11.5 -4h-40q-7 0 -11 3.5t-3 11.5l109 876q1 7 4.5 11t10.5 4h41q7 0 10.5 -4t2.5 -11
l-30 -242q24 17 68 38.5t107 21.5t94.5 -29.5t31.5 -77.5q0 -4 -0.5 -11.5t-1.5 -14.5l-31 -249q-7 -57 -42.5 -92.5t-109.5 -35.5q-63 0 -104 21t-60 38z" />
    <glyph glyph-name="dcroat" unicode="&#x111;" horiz-adv-x="524" 
d="M147 364l-29 -232q-1 -7 -1 -10v-6q0 -28 18.5 -45t61.5 -17q54 0 96.5 21.5t60.5 34.5l34 273q-15 13 -52 35t-91 22q-49 0 -71.5 -22.5t-26.5 -53.5zM348 52q-24 -17 -67.5 -38.5t-108.5 -21.5q-63 0 -94 29t-31 78v8.5t1 12.5l31 254q7 57 43 92.5t110 35.5
q60 0 102 -21.5t61 -37.5l14 116h-147q-8 0 -11.5 3.5t-2.5 11.5l3 21q1 7 4.5 10.5t11.5 3.5h148l9 75q1 7 5 11t12 4h41q7 0 10 -4t2 -11l-9 -75h41q8 0 11.5 -3.5t2.5 -10.5l-3 -21q-1 -8 -4.5 -11.5t-11.5 -3.5h-42l-67 -544q-1 -7 -5 -11t-11 -4h-37q-7 0 -10.5 4
t-2.5 11z" />
    <glyph glyph-name="hbar" unicode="&#x127;" horiz-adv-x="530" 
d="M114 15q-1 -7 -5 -11t-11 -4h-41q-7 0 -10.5 3.5t-2.5 11.5l67 544h-45q-7 0 -11 3.5t-3 11.5l3 21q1 7 4.5 10.5t11.5 3.5h46l9 75q1 7 5.5 11t11.5 4h41q7 0 9.5 -4t1.5 -11l-9 -75h144q8 0 11.5 -3.5t2.5 -10.5l-2 -21q-1 -8 -5 -11.5t-11 -3.5h-146l-14 -116
q23 18 68 38.5t107 20.5q61 0 93.5 -30t32.5 -76v-6.5t-1 -10.5l-44 -364q-1 -7 -5 -11t-12 -4h-40q-6 0 -9.5 3.5t-2.5 11.5l42 349q1 6 1 8.5v5.5q0 28 -19 45t-61 17q-54 0 -96.5 -21.5t-60.5 -34.5z" />
    <glyph glyph-name="dotlessi" unicode="&#x131;" horiz-adv-x="225" 
d="M171 479l-57 -464q-1 -7 -5 -11t-11 -4h-41q-7 0 -10 3.5t-2 11.5l57 464q1 7 5 11t11 4h40q8 0 11 -4t2 -11z" />
    <glyph glyph-name="ij" unicode="&#x133;" horiz-adv-x="451" 
d="M195 684l-11 -93q-1 -7 -5 -11t-11 -4h-41q-7 0 -10 4t-2 11l11 93q1 7 5.5 11t11.5 4h41q7 0 9.5 -3.5t1.5 -11.5zM171 479l-57 -464q-1 -7 -5 -11t-11 -4h-41q-7 0 -10.5 3.5t-2.5 11.5l58 464q1 7 4.5 11t10.5 4h41q7 0 10.5 -4t2.5 -11zM422 684l-11 -93
q-1 -7 -4.5 -11t-11.5 -4h-40q-8 0 -11 4t-2 11l11 93q1 7 5 11t11 4h41q7 0 10 -4t2 -11zM397 479l-69 -556q-7 -60 -51.5 -94.5t-146.5 -34.5h-9q-7 0 -10.5 3.5t-2.5 10.5l4 30q1 7 5 10.5t11 3.5h6q65 0 93.5 21t32.5 56l68 550q1 7 4.5 11t11.5 4h41q7 0 10 -4t2 -11z
" />
    <glyph glyph-name="kgreenlandic" unicode="&#x138;" horiz-adv-x="465" 
d="M98 0h-40q-8 0 -11 4t-2 11l57 464q1 7 5 11t11 4h41q8 0 10.5 -4t1.5 -11l-22 -175h31l189 175l12 10t14 5h49q7 0 9 -5t-3 -10l-214 -198l180 -266q4 -5 1 -10t-10 -5h-47q-8 0 -13 4t-9 11l-161 236h-34l-29 -236q-1 -7 -5 -11t-11 -4z" />
    <glyph glyph-name="ldot" unicode="&#x140;" horiz-adv-x="285" 
d="M195 684l-81 -669q-1 -7 -4.5 -11t-11.5 -4h-41q-7 0 -10.5 4t-2.5 11l82 669q1 7 5.5 11t11.5 4h41q7 0 9.5 -4t1.5 -11zM304 393l-10 -78q-1 -8 -4.5 -11.5t-10.5 -3.5h-42q-7 0 -10 3.5t-2 11.5l9 78q1 7 5 11t11 4h42q7 0 10 -4t2 -11z" />
    <glyph glyph-name="lslash" unicode="&#x142;" horiz-adv-x="269" 
d="M118 0h-41q-7 0 -10.5 4t-2.5 11l35 288l-59 -23q-7 -2 -11.5 -0.5t-6.5 8.5l-4 15q-1 7 1 11.5t9 6.5l77 30l41 333q1 7 5.5 11t11.5 4h41q7 0 9.5 -4t1.5 -11l-37 -304l61 24q6 2 11 0.5t7 -8.5l5 -15q2 -6 -1 -11t-10 -8l-79 -31l-38 -316q-1 -7 -4.5 -11t-11.5 -4z
" />
    <glyph glyph-name="napostrophe" unicode="&#x149;" horiz-adv-x="529" 
d="M120 676l4 27q1 7 5.5 11t11.5 4h30q8 0 10.5 -4t1.5 -11l-3 -31q-4 -38 -19 -65t-34 -52q-4 -7 -9 -8t-11 0l-23 6q-7 1 -8 6.5t3 12.5q18 31 27 50.5t14 53.5zM116 494h37q7 0 11 -4t3 -11l-3 -38q23 18 68 39.5t108 21.5q61 0 93.5 -30t32.5 -76v-8t-1 -12l-44 -361
q-1 -7 -5 -11t-12 -4h-40q-6 0 -9.5 3t-2.5 12l42 345q1 7 1 10.5v6.5q0 29 -18 46t-61 17q-55 0 -97.5 -21.5t-60.5 -34.5l-45 -369q-1 -7 -5 -11t-11 -4h-41q-7 0 -10.5 3t-2.5 12l58 464q1 7 4.5 11t10.5 4z" />
    <glyph glyph-name="eng" unicode="&#x14b;" horiz-adv-x="530" 
d="M467 397v-9t-1 -12l-55 -454q-7 -59 -51.5 -94t-147.5 -35h-8q-8 0 -11 4t-2 11l3 28q1 7 5 11t11 4h6q65 0 93.5 21t32.5 56l53 434q1 6 1 9.5v6.5q0 28 -18 46t-61 18q-54 0 -97 -22t-61 -35l-45 -370q-1 -7 -5 -11t-11 -4h-41q-6 0 -9.5 3t-2.5 12l57 464q1 7 4.5 11
t10.5 4h37q8 0 11.5 -4t2.5 -11l-3 -38q23 18 68 39.5t108 21.5q61 0 93.5 -29t32.5 -76z" />
    <glyph glyph-name="oe" unicode="&#x153;" horiz-adv-x="804" 
d="M525 -8q-57 0 -93.5 12t-55.5 34q-21 -22 -58 -34t-97 -12q-93 0 -134.5 31t-41.5 80v7.5t1 9.5l31 253q7 57 51 93t149 36q60 0 96 -13.5t53 -36.5q21 22 58.5 36t99.5 14q90 0 129 -30t39 -79v-8.5t-1 -11.5l-15 -120q-1 -7 -4.5 -10.5t-10.5 -3.5h-284l-15 -116
q-1 -5 -1 -7.5v-5.5q0 -29 24 -47t84 -18q66 0 93 21t32 55l3 20q1 7 5.5 11t11.5 4h34q7 0 10.5 -3.5t2.5 -11.5l-3 -22q-7 -56 -47.5 -91.5t-145.5 -35.5zM675 286l10 77q1 8 1 12v8q0 29 -23.5 47.5t-83.5 18.5q-67 0 -94.5 -22t-31.5 -56l-11 -85h233zM354 125l30 236
q1 7 1 10.5v8.5q0 31 -25.5 48.5t-84.5 17.5q-66 0 -95.5 -21.5t-33.5 -55.5l-30 -244q-1 -5 -1 -7v-5q0 -31 25.5 -48t85.5 -17q66 0 95 21t33 56z" />
    <glyph glyph-name="tbar" unicode="&#x167;" horiz-adv-x="334" 
d="M288 15q-1 -8 -5.5 -11.5t-11.5 -3.5h-27q-90 0 -125.5 28t-35.5 77v11t1 13l19 153h-60q-8 0 -11.5 3.5t-2.5 10.5l2 22q1 7 5 10.5t11 3.5h62l12 103h-60q-8 0 -10.5 4t-1.5 11l2 24q1 7 5.5 10.5t11.5 4.5l59 3h1l14 106q1 7 4.5 11t11.5 4h40q8 0 11 -4t2 -11
l-14 -106h113q8 0 11 -3.5t2 -10.5l-3 -29q-1 -7 -5 -10.5t-12 -3.5h-112l-13 -103h111q8 0 11.5 -3.5t2.5 -10.5l-3 -22q-1 -7 -4.5 -10.5t-11.5 -3.5h-112l-18 -143q-1 -5 -1 -9v-8q0 -28 23.5 -45.5t83.5 -17.5h17q8 0 11 -4t2 -11z" />
    <glyph glyph-name="longs" unicode="&#x17f;" horiz-adv-x="268" 
d="M206 568l-94 -760q-1 -7 -5 -10.5t-11 -3.5h-40q-8 0 -11 3.5t-2 10.5l78 628h-63q-7 0 -10.5 4t-2.5 11l3 23q1 7 4.5 10.5t11.5 4.5l54 3h9l11 83q7 57 51.5 92.5t148.5 35.5h8q7 0 10.5 -3.5t2.5 -11.5l-3 -28q-1 -8 -5.5 -11t-12.5 -3h-5q-66 0 -94.5 -21.5
t-32.5 -56.5z" />
    <glyph glyph-name="dotlessj" unicode="&#x237;" horiz-adv-x="225" 
d="M171 479l-69 -557q-7 -59 -51.5 -94t-147.5 -35h-7q-8 0 -11.5 4t-2.5 11l4 28q1 7 5 11t11 4h6q65 0 93.5 21t32.5 56l68 551q1 7 4.5 11t11.5 4h41q7 0 10 -4t2 -11z" />
    <glyph glyph-name="mu" unicode="&#x3bc;" horiz-adv-x="525" 
d="M350 15l2 36q-22 -17 -64.5 -38t-104.5 -21q-29 0 -47.5 9.5t-25.5 25.5l-22 -219q-1 -7 -5 -11t-11 -4h-41q-7 0 -10.5 4t-2.5 11l83 671q1 7 5.5 11t11.5 4h40q6 0 9.5 -3t2.5 -12l-41 -338q-1 -4 -1.5 -13.5t-0.5 -12.5q0 -28 18.5 -45.5t61.5 -17.5q54 0 93.5 21.5
t57.5 34.5l45 371q1 7 5 11t12 4h40q8 0 11 -4t2 -11l-58 -464q-1 -8 -4.5 -11.5t-11.5 -3.5h-36q-7 0 -10.5 3.5t-2.5 11.5z" />
    <glyph glyph-name="pi" unicode="&#x3c0;" horiz-adv-x="357" 
d="M66 432h245q12 0 13 -10.5t-5 -20.5l-115 -186q-5 -9 -15 -9t-16 9l-114 186q-6 10 -5.5 20.5t12.5 10.5z" />
    <glyph glyph-name="zero" unicode="0" horiz-adv-x="564" 
d="M58 141l49 401q7 60 52.5 103t168.5 43q107 0 149.5 -36.5t42.5 -87.5v-10.5t-1 -14.5l-49 -401q-7 -60 -53 -103t-169 -43q-107 0 -149.5 36t-42.5 87q0 5 0.5 12.5t1.5 13.5zM400 149l47 378q1 8 1 13v8q0 37 -27.5 58t-97.5 21q-78 0 -110 -26.5t-37 -69.5l-46 -376
q-1 -6 -1.5 -12.5t-0.5 -10.5q0 -37 27.5 -58t97.5 -21q78 0 110 26.5t37 69.5z" />
    <glyph glyph-name="one" unicode="1" horiz-adv-x="496" 
d="M112 631l222 52q5 1 9.5 -1.5t3.5 -11.5l-76 -609h158q8 0 11.5 -3.5t2.5 -10.5l-4 -32q-1 -8 -5 -11.5t-12 -3.5h-388q-7 0 -10 3.5t-2 11.5l3 32q1 7 5 10.5t11 3.5h159l69 551l-164 -42q-7 -1 -10.5 2t-2.5 11l3 32q1 7 5.5 11t11.5 5z" />
    <glyph glyph-name="two" unicode="2" horiz-adv-x="539" 
d="M119 61h314q8 0 11 -4t2 -10l-3 -32q-1 -8 -5.5 -11.5t-11.5 -3.5h-371q-8 0 -10.5 4t-1.5 11l22 179q7 54 42 77.5t57 30.5l190 61q14 4 38 19.5t28 49.5l13 97q1 7 1.5 12.5t0.5 9.5q0 35 -27.5 56t-96.5 21q-79 0 -109 -26.5t-36 -70.5l-6 -46q-1 -8 -5 -12t-11 -4
h-41q-7 0 -10 4.5t-2 11.5l7 57q7 60 51 103t167 43q107 0 148.5 -36t41.5 -87q0 -7 -0.5 -13.5t-1.5 -12.5l-13 -108q-7 -61 -41.5 -87.5t-62.5 -35.5l-178 -55q-22 -7 -46 -19.5t-28 -45.5z" />
    <glyph glyph-name="three" unicode="3" horiz-adv-x="538" 
d="M190 389h82q79 0 107 24.5t34 68.5l7 52q1 6 1.5 10.5t0.5 8.5q0 35 -26 55.5t-93 20.5q-75 0 -106 -26t-34 -69l-1 -13q-1 -7 -5 -10.5t-11 -3.5h-40q-8 0 -11 3.5t-2 10.5l2 22q5 59 49.5 102t165.5 43q104 0 144 -34.5t40 -85.5q0 -6 -0.5 -13t-1.5 -14l-9 -70
q-5 -43 -26 -70t-73 -40q46 -12 62.5 -36t16.5 -57q0 -7 -0.5 -13.5t-1.5 -13.5l-13 -107q-7 -60 -52 -101t-166 -41q-107 0 -148.5 35.5t-41.5 87.5v9t1 13l2 22q1 7 5.5 10.5t11.5 3.5h40q9 0 11 -4t1 -10l-1 -13q-1 -7 -1 -11v-8q0 -35 27.5 -55.5t96.5 -20.5
q77 0 109 26t37 69l11 91q1 7 1 12.5v9.5q0 33 -25.5 52t-94.5 19h-90q-7 0 -10.5 3.5t-2.5 10.5l3 30q1 8 5.5 11.5t12.5 3.5z" />
    <glyph glyph-name="four" unicode="4" horiz-adv-x="531" 
d="M300 665l-186 -389h264l48 389q1 7 5 11t12 4h42q7 0 10 -4t2 -11l-79 -650q-1 -7 -5 -11t-11 -4h-42q-8 0 -11 4t-2 11l24 200h-325q-7 0 -10.5 3.5t-2.5 10.5l3 29q1 7 2.5 11t2.5 8l187 388q4 7 8.5 11t11.5 4h44q7 0 9 -4t-1 -11z" />
    <glyph glyph-name="five" unicode="5" horiz-adv-x="523" 
d="M141 680h334q7 0 10.5 -3t2.5 -12l-4 -31q-1 -8 -5 -11.5t-11 -3.5h-276l-26 -204h107q91 0 138.5 -32t47.5 -86q0 -4 -0.5 -11t-1.5 -14l-16 -136q-7 -60 -50 -102.5t-165 -42.5q-107 0 -145 36t-38 87v10.5t1 11.5l3 22q1 8 4.5 11.5t10.5 3.5h41q7 0 10.5 -3.5
t2.5 -11.5l-1 -12q-1 -7 -1 -11.5v-8.5q0 -34 24.5 -54.5t93.5 -20.5q78 0 105.5 25.5t32.5 69.5l14 115q1 13 1.5 16.5t0.5 5.5q0 30 -25 51.5t-95 21.5h-164q-7 0 -10 4t-2 11l36 294q1 7 4.5 11t10.5 4z" />
    <glyph glyph-name="six" unicode="6" horiz-adv-x="547" 
d="M58 138l50 409q7 52 49 96.5t165 44.5q107 0 145.5 -37.5t38.5 -83.5v-6t-1 -14l-2 -18q-1 -7 -5 -11t-11 -4h-41q-7 0 -10.5 3.5t-2.5 11.5l1 9q1 7 1 9.5v5.5q0 31 -23.5 53.5t-94.5 22.5q-78 0 -107 -27t-33 -64l-23 -183q18 22 53.5 36t92.5 14q99 0 139 -36t40 -87
q0 -4 -0.5 -11.5t-1.5 -14.5l-14 -118q-7 -60 -52 -103t-167 -43q-106 0 -147 35.5t-41 86.5q0 6 0.5 12.5t1.5 11.5zM393 147l12 103q1 7 1 12.5v7.5q0 34 -26.5 55t-95.5 21q-75 0 -106.5 -25t-35.5 -63l-13 -107q-1 -7 -1.5 -12.5t-0.5 -10.5q0 -35 26.5 -56t95.5 -21
q79 0 109 26.5t35 69.5z" />
    <glyph glyph-name="seven" unicode="7" horiz-adv-x="498" 
d="M92 680h410q8 0 11.5 -3.5t2.5 -11.5l-4 -30q-1 -4 -3 -8.5t-3 -7.5l-330 -604q-4 -6 -8 -10.5t-11 -4.5h-51q-7 0 -10 4t1 11l331 604h-342q-7 0 -11 3.5t-3 11.5l4 31q1 8 5 11.5t11 3.5z" />
    <glyph glyph-name="eight" unicode="8" horiz-adv-x="544" 
d="M101 480l8 62q7 60 46.5 103t161.5 43q105 0 143.5 -35t38.5 -86q0 -5 -0.5 -11.5t-1.5 -13.5l-8 -65q-5 -45 -27.5 -73.5t-78.5 -41.5q48 -12 67 -37.5t19 -59.5v-9t-1 -13l-13 -105q-7 -60 -50.5 -103t-166.5 -43q-107 0 -147 36t-40 87v9.5t1 13.5l13 108
q5 44 29.5 73.5t81.5 42.5q-43 10 -60 35t-17 57q0 5 0.5 12t1.5 14zM421 487l6 46q1 7 1.5 11.5t0.5 9.5q0 34 -24.5 54.5t-92.5 20.5q-78 0 -103.5 -26.5t-31.5 -69.5l-6 -46q-1 -7 -1 -12v-9q0 -35 23 -55.5t91 -20.5q78 0 104.5 26.5t32.5 70.5zM386 147l11 86
q1 8 1 13.5v8.5q0 35 -26 56t-96 21q-78 0 -107.5 -26t-34.5 -70l-11 -89q-1 -7 -1 -11.5v-8.5q0 -34 25.5 -55t94.5 -21q79 0 109 26.5t35 69.5z" />
    <glyph glyph-name="nine" unicode="9" horiz-adv-x="546" 
d="M165 533l-12 -103q-1 -6 -1 -10.5v-7.5q0 -36 26.5 -57t96.5 -21q74 0 105.5 25t35.5 63l13 107q1 7 1.5 13t0.5 10q0 35 -26 56t-95 21q-79 0 -109.5 -26.5t-35.5 -69.5zM501 542l-49 -409q-6 -52 -47.5 -96.5t-165.5 -44.5q-107 0 -146.5 37.5t-39.5 83.5v6t1 14l2 18
q1 7 5 11t11 4h41q7 0 10 -3.5t2 -11.5l-1 -9q-1 -7 -1 -11v-5q0 -31 25 -53t95 -22q78 0 106.5 27t32.5 64l23 183q-19 -22 -54 -36t-92 -14q-99 0 -139 36t-40 87q0 5 0.5 12.5t1.5 13.5l14 118q7 60 51.5 103t166.5 43q106 0 147.5 -35.5t41.5 -86.5q0 -4 -0.5 -10.5
t-1.5 -13.5z" />
    <glyph glyph-name="onesuperior" unicode="&#xb9;" 
d="M120 806l131 25q4 1 7.5 -0.5t2.5 -8.5l-39 -319h81q6 0 8 -3t1 -7l-3 -27q-1 -6 -3.5 -8t-8.5 -2h-219q-5 0 -8 2t-2 8l4 27q1 5 3.5 7.5t7.5 2.5h82l34 272l-85 -16q-4 -1 -6.5 1t-1.5 7l2 27q1 5 4 8t8 4z" />
    <glyph glyph-name="twosuperior" unicode="&#xb2;" 
d="M125 503h173q5 0 7 -3t1 -7l-3 -27q-1 -6 -4 -8t-8 -2h-218q-5 0 -8 2t-2 8l12 96q3 26 20 42t40 23l100 32q10 3 23 9.5t15 25.5l6 48q1 6 1 7.5v2.5q0 17 -14 27t-48 10q-40 0 -54 -12.5t-17 -34.5l-3 -23q-1 -5 -3 -7.5t-7 -2.5h-36q-5 0 -7.5 2.5t-1.5 7.5l4 29
q4 34 31 60t101 26q60 0 86 -22.5t26 -53.5v-2.5t-1 -7.5l-7 -57q-4 -34 -25.5 -49.5t-37.5 -20.5l-101 -33q-12 -4 -21.5 -9.5t-10.5 -18.5z" />
    <glyph glyph-name="threesuperior" unicode="&#xb3;" 
d="M156 672h42q38 0 52.5 12.5t18.5 36.5l2 14q1 4 1.5 10t0.5 7q0 19 -13.5 29t-44.5 10q-38 0 -52 -11.5t-17 -33.5l-1 -7q-1 -6 -3 -8t-8 -2h-35q-6 0 -8 2.5t-1 7.5l1 12q3 34 30.5 58.5t99.5 24.5q58 0 83 -20t25 -49v-3t-1 -9l-5 -40q-3 -26 -14.5 -39.5t-39.5 -21.5
q24 -6 34.5 -20.5t10.5 -30.5v-2.5t-1 -8.5l-7 -57q-4 -34 -31 -57.5t-99 -23.5q-59 0 -86.5 21t-27.5 52v4.5t1 9.5l1 9q1 6 3.5 8.5t6.5 2.5h36q5 0 7.5 -2.5t1.5 -8.5l-1 -7q-1 -5 -1 -7v-3q0 -16 14.5 -26t47.5 -10q38 0 54 12t18 34l5 43q1 5 1 7v3q0 19 -14 28t-46 9
h-46q-5 0 -8 2t-2 8l3 22q1 5 3.5 7t8.5 2z" />
    <glyph glyph-name="onequarter" unicode="&#xbc;" horiz-adv-x="745" 
d="M575 364l-94 -207h130l26 207q1 5 3 7.5t8 2.5h35q5 0 8 -2.5t2 -7.5l-44 -354q-1 -5 -3.5 -7.5t-7.5 -2.5h-36q-6 0 -8 2.5t-1 7.5l13 101h-180q-5 0 -8 3t-2 7l2 16q1 7 2.5 11t2.5 7l96 209q2 5 5 7.5t9 2.5h35q7 0 8 -3t-1 -7zM107 656l131 25q4 1 7.5 -0.5t2.5 -8.5
l-39 -319h81q6 0 8 -3t1 -7l-3 -27q-1 -6 -3.5 -8t-8.5 -2h-219q-5 0 -8 2t-2 8l4 27q1 5 3.5 7.5t7.5 2.5h82l34 272l-85 -16q-4 -1 -6.5 1t-1.5 7l2 27q1 5 4 8t8 4zM624 673l-394 -666q-4 -7 -9.5 -11t-13.5 -4h-32q-7 0 -8 5.5t2 9.5l394 666q4 7 10 11t13 4h33
q7 0 8 -4t-3 -11z" />
    <glyph glyph-name="onehalf" unicode="&#xbd;" horiz-adv-x="760" 
d="M498 47h173q5 0 7 -3t1 -7l-3 -27q-1 -6 -4 -8t-8 -2h-218q-5 0 -8 2t-2 8l12 96q3 26 20 42t40 23l100 32q10 3 23 9.5t15 25.5l6 48q1 6 1 7.5v2.5q0 17 -14 27t-48 10q-40 0 -54 -12.5t-17 -34.5l-3 -23q-1 -5 -3 -7.5t-7 -2.5h-36q-5 0 -7.5 2.5t-1.5 7.5l4 29
q4 34 31 60t101 26q60 0 86 -22.5t26 -53.5v-2.5t-1 -7.5l-7 -57q-4 -34 -25.5 -49.5t-37.5 -20.5l-101 -33q-12 -4 -21.5 -9.5t-10.5 -18.5zM107 656l131 25q4 1 7.5 -0.5t2.5 -8.5l-39 -319h81q6 0 8 -3t1 -7l-3 -27q-1 -6 -3.5 -8t-8.5 -2h-219q-5 0 -8 2t-2 8l4 27
q1 5 3.5 7.5t7.5 2.5h82l34 272l-85 -16q-4 -1 -6.5 1t-1.5 7l2 27q1 5 4 8t8 4zM623 673l-394 -666q-4 -7 -9.5 -11t-13.5 -4h-32q-7 0 -8 5.5t2 9.5l394 666q4 7 10 11t13 4h33q7 0 8 -4t-3 -11z" />
    <glyph glyph-name="threequarters" unicode="&#xbe;" horiz-adv-x="746" 
d="M577 364l-94 -207h130l26 207q1 5 3 7.5t8 2.5h35q5 0 8 -2.5t2 -7.5l-44 -354q-1 -5 -3.5 -7.5t-7.5 -2.5h-36q-6 0 -8 2.5t-1 7.5l13 101h-180q-5 0 -8 3t-2 7l2 16q1 7 2.5 11t2.5 7l96 209q2 5 5 7.5t9 2.5h35q7 0 8 -3t-1 -7zM619 673l-394 -666q-4 -7 -9.5 -11
t-13.5 -4h-32q-7 0 -8 5.5t2 9.5l394 666q4 7 10 11t13 4h33q7 0 8 -4t-3 -11zM154 522h42q38 0 52.5 12.5t18.5 36.5l2 14q1 4 1.5 10t0.5 7q0 19 -13.5 29t-44.5 10q-38 0 -52 -11.5t-17 -33.5l-1 -7q-1 -6 -3 -8t-8 -2h-35q-6 0 -8 2.5t-1 7.5l1 12q3 34 30.5 58.5
t99.5 24.5q58 0 83 -20t25 -49v-3t-1 -9l-5 -40q-3 -26 -14.5 -39.5t-39.5 -21.5q24 -6 34.5 -20.5t10.5 -30.5v-2.5t-1 -8.5l-7 -57q-4 -34 -31 -57.5t-99 -23.5q-59 0 -86.5 21t-27.5 52v4.5t1 9.5l1 9q1 6 3.5 8.5t6.5 2.5h36q5 0 7.5 -2.5t1.5 -8.5l-1 -7q-1 -5 -1 -7
v-3q0 -16 14.5 -26t47.5 -10q38 0 54 12t18 34l5 43q1 5 1 7v3q0 19 -14 28t-46 9h-46q-5 0 -8 2t-2 8l3 22q1 5 3.5 7t8.5 2z" />
    <glyph glyph-name="uni2153" unicode="&#x2153;" horiz-adv-x="760" 
d="M107 656l131 25q4 1 7.5 -0.5t2.5 -8.5l-39 -319h81q6 0 8 -3t1 -7l-3 -27q-1 -6 -3.5 -8t-8.5 -2h-219q-5 0 -8 2t-2 8l4 27q1 5 3.5 7.5t7.5 2.5h82l34 272l-85 -16q-4 -1 -6.5 1t-1.5 7l2 27q1 5 4 8t8 4zM622 673l-394 -666q-4 -7 -9.5 -11t-13.5 -4h-32q-7 0 -8 5.5
t2 9.5l394 666q4 7 10 11t13 4h33q7 0 8 -4t-3 -11zM533 216h42q38 0 52.5 12.5t18.5 36.5l2 14q1 4 1.5 10t0.5 7q0 19 -13.5 29t-44.5 10q-38 0 -52 -11.5t-17 -33.5l-1 -7q-1 -6 -3 -8t-8 -2h-35q-6 0 -8 2.5t-1 7.5l1 12q3 34 30.5 58.5t99.5 24.5q58 0 83 -20t25 -49
v-3t-1 -9l-5 -40q-3 -26 -14.5 -39.5t-39.5 -21.5q24 -6 34.5 -20.5t10.5 -30.5v-2.5t-1 -8.5l-7 -57q-4 -34 -31 -57.5t-99 -23.5q-59 0 -86.5 21t-27.5 52v4.5t1 9.5l1 9q1 6 3.5 8.5t6.5 2.5h36q5 0 7.5 -2.5t1.5 -8.5l-1 -7q-1 -5 -1 -7v-3q0 -16 14.5 -26t47.5 -10
q38 0 54 12t18 34l5 43q1 5 1 7v3q0 19 -14 28t-46 9h-46q-5 0 -8 2t-2 8l3 22q1 5 3.5 7t8.5 2z" />
    <glyph glyph-name="uni2154" unicode="&#x2154;" horiz-adv-x="756" 
d="M124 353h173q5 0 7 -3t1 -7l-3 -27q-1 -6 -4 -8t-8 -2h-218q-5 0 -8 2t-2 8l12 96q3 26 20 42t40 23l100 32q10 3 23 9.5t15 25.5l6 48q1 6 1 7.5v2.5q0 17 -14 27t-48 10q-40 0 -54 -12.5t-17 -34.5l-3 -23q-1 -5 -3 -7.5t-7 -2.5h-36q-5 0 -7.5 2.5t-1.5 7.5l4 29
q4 34 31 60t101 26q60 0 86 -22.5t26 -53.5v-2.5t-1 -7.5l-7 -57q-4 -34 -25.5 -49.5t-37.5 -20.5l-101 -33q-12 -4 -21.5 -9.5t-10.5 -18.5zM623 673l-394 -666q-4 -7 -9.5 -11t-13.5 -4h-32q-7 0 -8 5.5t2 9.5l394 666q4 7 10 11t13 4h33q7 0 8 -4t-3 -11zM529 216h42
q38 0 52.5 12.5t18.5 36.5l2 14q1 4 1.5 10t0.5 7q0 19 -13.5 29t-44.5 10q-38 0 -52 -11.5t-17 -33.5l-1 -7q-1 -6 -3 -8t-8 -2h-35q-6 0 -8 2.5t-1 7.5l1 12q3 34 30.5 58.5t99.5 24.5q58 0 83 -20t25 -49v-3t-1 -9l-5 -40q-3 -26 -14.5 -39.5t-39.5 -21.5
q24 -6 34.5 -20.5t10.5 -30.5v-2.5t-1 -8.5l-7 -57q-4 -34 -31 -57.5t-99 -23.5q-59 0 -86.5 21t-27.5 52v4.5t1 9.5l1 9q1 6 3.5 8.5t6.5 2.5h36q5 0 7.5 -2.5t1.5 -8.5l-1 -7q-1 -5 -1 -7v-3q0 -16 14.5 -26t47.5 -10q38 0 54 12t18 34l5 43q1 5 1 7v3q0 19 -14 28t-46 9
h-46q-5 0 -8 2t-2 8l3 22q1 5 3.5 7t8.5 2z" />
    <glyph glyph-name="uni2155" unicode="&#x2155;" horiz-adv-x="766" 
d="M622 673l-394 -666q-4 -7 -9.5 -11t-13.5 -4h-32q-7 0 -8 5.5t2 9.5l394 666q4 7 10 11t13 4h33q7 0 8 -4t-3 -11zM107 656l131 25q4 1 7.5 -0.5t2.5 -8.5l-39 -319h81q6 0 8 -3t1 -7l-3 -27q-1 -6 -3.5 -8t-8.5 -2h-219q-5 0 -8 2t-2 8l4 27q1 5 3.5 7.5t7.5 2.5h82
l34 272l-85 -16q-4 -1 -6.5 1t-1.5 7l2 27q1 5 4 8t8 4zM507 374h195q6 0 9 -2t2 -7l-3 -26q-1 -5 -4 -7.5t-8 -2.5h-151l-12 -96h58q55 0 80 -20t25 -48v-5.5t-1 -10.5l-9 -70q-4 -34 -29.5 -59t-97.5 -25q-49 0 -80.5 18t-31.5 57v5t1 9l1 8q1 5 3.5 7t7.5 2h36
q4 0 6 -2.5t1 -6.5l-1 -6q-1 -4 -1 -6.5v-3.5q0 -19 14.5 -28.5t45.5 -9.5q37 0 51.5 12.5t17.5 35.5l8 57q1 4 1 6v3q0 16 -13 27t-47 11h-96q-5 0 -7.5 2.5t-1.5 8.5l20 163q1 5 3 7.5t8 2.5z" />
    <glyph glyph-name="uni2156" unicode="&#x2156;" horiz-adv-x="769" 
d="M124 353h173q5 0 7 -3t1 -7l-3 -27q-1 -6 -4 -8t-8 -2h-218q-5 0 -8 2t-2 8l12 96q3 26 20 42t40 23l100 32q10 3 23 9.5t15 25.5l6 48q1 6 1 7.5v2.5q0 17 -14 27t-48 10q-40 0 -54 -12.5t-17 -34.5l-3 -23q-1 -5 -3 -7.5t-7 -2.5h-36q-5 0 -7.5 2.5t-1.5 7.5l4 29
q4 34 31 60t101 26q60 0 86 -22.5t26 -53.5v-2.5t-1 -7.5l-7 -57q-4 -34 -25.5 -49.5t-37.5 -20.5l-101 -33q-12 -4 -21.5 -9.5t-10.5 -18.5zM628 673l-394 -666q-4 -7 -9.5 -11t-13.5 -4h-32q-7 0 -8 5.5t2 9.5l394 666q4 7 10 11t13 4h33q7 0 8 -4t-3 -11zM509 374h195
q6 0 9 -2t2 -7l-3 -26q-1 -5 -4 -7.5t-8 -2.5h-151l-12 -96h58q55 0 80 -20t25 -48v-5.5t-1 -10.5l-9 -70q-4 -34 -29.5 -59t-97.5 -25q-49 0 -80.5 18t-31.5 57v5t1 9l1 8q1 5 3.5 7t7.5 2h36q4 0 6 -2.5t1 -6.5l-1 -6q-1 -4 -1 -6.5v-3.5q0 -19 14.5 -28.5t45.5 -9.5
q37 0 51.5 12.5t17.5 35.5l8 57q1 4 1 6v3q0 16 -13 27t-47 11h-96q-5 0 -7.5 2.5t-1.5 8.5l20 163q1 5 3 7.5t8 2.5z" />
    <glyph glyph-name="uni2157" unicode="&#x2157;" horiz-adv-x="760" 
d="M615 673l-394 -666q-4 -7 -9.5 -11t-13.5 -4h-32q-7 0 -8 5.5t2 9.5l394 666q4 7 10 11t13 4h33q7 0 8 -4t-3 -11zM500 374h195q6 0 9 -2t2 -7l-3 -26q-1 -5 -4 -7.5t-8 -2.5h-151l-12 -96h58q55 0 80 -20t25 -48v-5.5t-1 -10.5l-9 -70q-4 -34 -29.5 -59t-97.5 -25
q-49 0 -80.5 18t-31.5 57v5t1 9l1 8q1 5 3.5 7t7.5 2h36q4 0 6 -2.5t1 -6.5l-1 -6q-1 -4 -1 -6.5v-3.5q0 -19 14.5 -28.5t45.5 -9.5q37 0 51.5 12.5t17.5 35.5l8 57q1 4 1 6v3q0 16 -13 27t-47 11h-96q-5 0 -7.5 2.5t-1.5 8.5l20 163q1 5 3 7.5t8 2.5zM155 522h42
q38 0 52.5 12.5t18.5 36.5l2 14q1 4 1.5 10t0.5 7q0 19 -13.5 29t-44.5 10q-38 0 -52 -11.5t-17 -33.5l-1 -7q-1 -6 -3 -8t-8 -2h-35q-6 0 -8 2.5t-1 7.5l1 12q3 34 30.5 58.5t99.5 24.5q58 0 83 -20t25 -49v-3t-1 -9l-5 -40q-3 -26 -14.5 -39.5t-39.5 -21.5
q24 -6 34.5 -20.5t10.5 -30.5v-2.5t-1 -8.5l-7 -57q-4 -34 -31 -57.5t-99 -23.5q-59 0 -86.5 21t-27.5 52v4.5t1 9.5l1 9q1 6 3.5 8.5t6.5 2.5h36q5 0 7.5 -2.5t1.5 -8.5l-1 -7q-1 -5 -1 -7v-3q0 -16 14.5 -26t47.5 -10q38 0 54 12t18 34l5 43q1 5 1 7v3q0 19 -14 28t-46 9
h-46q-5 0 -8 2t-2 8l3 22q1 5 3.5 7t8.5 2z" />
    <glyph glyph-name="uni2158" unicode="&#x2158;" horiz-adv-x="760" 
d="M211 670l-94 -207h130l26 207q1 5 3 7.5t8 2.5h35q5 0 8 -2.5t2 -7.5l-44 -354q-1 -5 -3.5 -7.5t-7.5 -2.5h-36q-6 0 -8 2.5t-1 7.5l13 101h-180q-5 0 -8 3t-2 7l2 16q1 7 2.5 11t2.5 7l96 209q2 5 5 7.5t9 2.5h35q7 0 8 -3t-1 -7zM617 673l-394 -666q-4 -7 -9.5 -11
t-13.5 -4h-32q-7 0 -8 5.5t2 9.5l394 666q4 7 10 11t13 4h33q7 0 8 -4t-3 -11zM500 374h195q6 0 9 -2t2 -7l-3 -26q-1 -5 -4 -7.5t-8 -2.5h-151l-12 -96h58q55 0 80 -20t25 -48v-5.5t-1 -10.5l-9 -70q-4 -34 -29.5 -59t-97.5 -25q-49 0 -80.5 18t-31.5 57v5t1 9l1 8
q1 5 3.5 7t7.5 2h36q4 0 6 -2.5t1 -6.5l-1 -6q-1 -4 -1 -6.5v-3.5q0 -19 14.5 -28.5t45.5 -9.5q37 0 51.5 12.5t17.5 35.5l8 57q1 4 1 6v3q0 16 -13 27t-47 11h-96q-5 0 -7.5 2.5t-1.5 8.5l20 163q1 5 3 7.5t8 2.5z" />
    <glyph glyph-name="uni2159" unicode="&#x2159;" horiz-adv-x="757" 
d="M439 70v5t1 9l26 212q4 30 29 56t100 26q65 0 87 -26t20 -54l-1 -11q-1 -7 -3 -9t-7 -2h-36q-4 0 -6.5 2t-1.5 8l1 9q1 13 -9.5 26t-47.5 13q-39 0 -53.5 -13t-16.5 -33l-11 -86q10 10 27.5 16.5t46.5 6.5q57 0 81 -20t24 -49v-5.5t-1 -9.5l-8 -60q-4 -34 -30 -59.5
t-101 -25.5q-60 0 -85 21.5t-25 52.5zM626 87l5 45q1 7 1 8.5v2.5q0 22 -15 30.5t-45 8.5q-34 0 -51 -11.5t-19 -32.5l-6 -51q-1 -5 -1 -8v-3q0 -16 13.5 -26t45.5 -10q37 0 53.5 12.5t18.5 34.5zM107 656l131 25q4 1 7.5 -0.5t2.5 -8.5l-39 -319h81q6 0 8 -3t1 -7l-3 -27
q-1 -6 -3.5 -8t-8.5 -2h-219q-5 0 -8 2t-2 8l4 27q1 5 3.5 7.5t7.5 2.5h82l34 272l-85 -16q-4 -1 -6.5 1t-1.5 7l2 27q1 5 4 8t8 4zM622 673l-394 -666q-4 -7 -9.5 -11t-13.5 -4h-32q-7 0 -8 5.5t2 9.5l394 666q4 7 10 11t13 4h33q7 0 8 -4t-3 -11z" />
    <glyph glyph-name="uni215A" unicode="&#x215a;" horiz-adv-x="752" 
d="M434 70v5t1 9l26 212q4 30 29 56t100 26q65 0 87 -26t20 -54l-1 -11q-1 -7 -3 -9t-7 -2h-36q-4 0 -6.5 2t-1.5 8l1 9q1 13 -9.5 26t-47.5 13q-39 0 -53.5 -13t-16.5 -33l-11 -86q10 10 27.5 16.5t46.5 6.5q57 0 81 -20t24 -49v-5.5t-1 -9.5l-8 -60q-4 -34 -30 -59.5
t-101 -25.5q-60 0 -85 21.5t-25 52.5zM621 87l5 45q1 7 1 8.5v2.5q0 22 -15 30.5t-45 8.5q-34 0 -51 -11.5t-19 -32.5l-6 -51q-1 -5 -1 -8v-3q0 -16 13.5 -26t45.5 -10q37 0 53.5 12.5t18.5 34.5zM606 673l-394 -666q-4 -7 -9.5 -11t-13.5 -4h-32q-7 0 -8 5.5t2 9.5l394 666
q4 7 10 11t13 4h33q7 0 8 -4t-3 -11zM118 680h195q6 0 9 -2t2 -7l-3 -26q-1 -5 -4 -7.5t-8 -2.5h-151l-12 -96h58q55 0 80 -20t25 -48v-5.5t-1 -10.5l-9 -70q-4 -34 -29.5 -59t-97.5 -25q-49 0 -80.5 18t-31.5 57v5t1 9l1 8q1 5 3.5 7t7.5 2h36q4 0 6 -2.5t1 -6.5l-1 -6
q-1 -4 -1 -6.5v-3.5q0 -19 14.5 -28.5t45.5 -9.5q37 0 51.5 12.5t17.5 35.5l8 57q1 4 1 6v3q0 16 -13 27t-47 11h-96q-5 0 -7.5 2.5t-1.5 8.5l20 163q1 5 3 7.5t8 2.5z" />
    <glyph glyph-name="uni215B" unicode="&#x215b;" horiz-adv-x="758" 
d="M623 673l-394 -666q-4 -7 -9.5 -11t-13.5 -4h-32q-7 0 -8 5.5t2 9.5l394 666q4 7 10 11t13 4h33q7 0 8 -4t-3 -11zM107 656l131 25q4 1 7.5 -0.5t2.5 -8.5l-39 -319h81q6 0 8 -3t1 -7l-3 -27q-1 -6 -3.5 -8t-8.5 -2h-219q-5 0 -8 2t-2 8l4 27q1 5 3.5 7.5t7.5 2.5h82
l34 272l-85 -16q-4 -1 -6.5 1t-1.5 7l2 27q1 5 4 8t8 4zM463 246v3t1 9l4 36q4 34 28 59t99 25q60 0 83.5 -20.5t23.5 -49.5v-5t-1 -9l-5 -36q-3 -23 -15.5 -38t-40.5 -23q25 -7 36 -20t11 -32v-3t-1 -7l-6 -55q-4 -34 -30.5 -59t-101.5 -25q-61 0 -86.5 21t-25.5 52v3.5
t1 7.5l7 55q3 22 16.5 38.5t44.5 23.5q-23 7 -32.5 19.5t-9.5 29.5zM642 265l3 24q1 4 1 6v3q0 19 -12.5 28.5t-44.5 9.5q-37 0 -50.5 -12.5t-16.5 -34.5l-3 -24q-1 -6 -1 -7.5v-2.5q0 -19 12.5 -28.5t44.5 -9.5q37 0 50.5 13t16.5 35zM625 86l5 42q1 5 1 6.5v2.5
q0 19 -13.5 29t-46.5 10q-38 0 -54 -12.5t-19 -35.5l-4 -34q-1 -5 -1.5 -9.5t-0.5 -6.5q0 -19 13.5 -29.5t47.5 -10.5q37 0 53 13t19 35z" />
    <glyph glyph-name="uni215C" unicode="&#x215c;" horiz-adv-x="757" 
d="M613 673l-394 -666q-4 -7 -9.5 -11t-13.5 -4h-32q-7 0 -8 5.5t2 9.5l394 666q4 7 10 11t13 4h33q7 0 8 -4t-3 -11zM464 246v3t1 9l4 36q4 34 28 59t99 25q60 0 83.5 -20.5t23.5 -49.5v-5t-1 -9l-5 -36q-3 -23 -15.5 -38t-40.5 -23q25 -7 36 -20t11 -32v-3t-1 -7l-6 -55
q-4 -34 -30.5 -59t-101.5 -25q-61 0 -86.5 21t-25.5 52v3.5t1 7.5l7 55q3 22 16.5 38.5t44.5 23.5q-23 7 -32.5 19.5t-9.5 29.5zM643 265l3 24q1 4 1 6v3q0 19 -12.5 28.5t-44.5 9.5q-37 0 -50.5 -12.5t-16.5 -34.5l-3 -24q-1 -6 -1 -7.5v-2.5q0 -19 12.5 -28.5t44.5 -9.5
q37 0 50.5 13t16.5 35zM626 86l5 42q1 5 1 6.5v2.5q0 19 -13.5 29t-46.5 10q-38 0 -54 -12.5t-19 -35.5l-4 -34q-1 -5 -1.5 -9.5t-0.5 -6.5q0 -19 13.5 -29.5t47.5 -10.5q37 0 53 13t19 35zM155 522h42q38 0 52.5 12.5t18.5 36.5l2 14q1 4 1.5 10t0.5 7q0 19 -13.5 29
t-44.5 10q-38 0 -52 -11.5t-17 -33.5l-1 -7q-1 -6 -3 -8t-8 -2h-35q-6 0 -8 2.5t-1 7.5l1 12q3 34 30.5 58.5t99.5 24.5q58 0 83 -20t25 -49v-3t-1 -9l-5 -40q-3 -26 -14.5 -39.5t-39.5 -21.5q24 -6 34.5 -20.5t10.5 -30.5v-2.5t-1 -8.5l-7 -57q-4 -34 -31 -57.5t-99 -23.5
q-59 0 -86.5 21t-27.5 52v4.5t1 9.5l1 9q1 6 3.5 8.5t6.5 2.5h36q5 0 7.5 -2.5t1.5 -8.5l-1 -7q-1 -5 -1 -7v-3q0 -16 14.5 -26t47.5 -10q38 0 54 12t18 34l5 43q1 5 1 7v3q0 19 -14 28t-46 9h-46q-5 0 -8 2t-2 8l3 22q1 5 3.5 7t8.5 2z" />
    <glyph glyph-name="uni215D" unicode="&#x215d;" horiz-adv-x="752" 
d="M609 673l-394 -666q-4 -7 -9.5 -11t-13.5 -4h-32q-7 0 -8 5.5t2 9.5l394 666q4 7 10 11t13 4h33q7 0 8 -4t-3 -11zM458 246v3t1 9l4 36q4 34 28 59t99 25q60 0 83.5 -20.5t23.5 -49.5v-5t-1 -9l-5 -36q-3 -23 -15.5 -38t-40.5 -23q25 -7 36 -20t11 -32v-3t-1 -7l-6 -55
q-4 -34 -30.5 -59t-101.5 -25q-61 0 -86.5 21t-25.5 52v3.5t1 7.5l7 55q3 22 16.5 38.5t44.5 23.5q-23 7 -32.5 19.5t-9.5 29.5zM637 265l3 24q1 4 1 6v3q0 19 -12.5 28.5t-44.5 9.5q-37 0 -50.5 -12.5t-16.5 -34.5l-3 -24q-1 -6 -1 -7.5v-2.5q0 -19 12.5 -28.5t44.5 -9.5
q37 0 50.5 13t16.5 35zM620 86l5 42q1 5 1 6.5v2.5q0 19 -13.5 29t-46.5 10q-38 0 -54 -12.5t-19 -35.5l-4 -34q-1 -5 -1.5 -9.5t-0.5 -6.5q0 -19 13.5 -29.5t47.5 -10.5q37 0 53 13t19 35zM118 680h195q6 0 9 -2t2 -7l-3 -26q-1 -5 -4 -7.5t-8 -2.5h-151l-12 -96h58
q55 0 80 -20t25 -48v-5.5t-1 -10.5l-9 -70q-4 -34 -29.5 -59t-97.5 -25q-49 0 -80.5 18t-31.5 57v5t1 9l1 8q1 5 3.5 7t7.5 2h36q4 0 6 -2.5t1 -6.5l-1 -6q-1 -4 -1 -6.5v-3.5q0 -19 14.5 -28.5t45.5 -9.5q37 0 51.5 12.5t17.5 35.5l8 57q1 4 1 6v3q0 16 -13 27t-47 11h-96
q-5 0 -7.5 2.5t-1.5 8.5l20 163q1 5 3 7.5t8 2.5z" />
    <glyph glyph-name="uni215E" unicode="&#x215e;" horiz-adv-x="701" 
d="M92 680h235q5 0 7.5 -2t1.5 -7l-2 -23q-1 -4 -2 -7t-2 -4l-176 -321q-2 -4 -5.5 -7t-8.5 -3h-43q-4 0 -6.5 2.5t1.5 8.5l174 316h-179q-6 0 -8.5 2.5t-1.5 8.5l3 27q1 5 4 7t8 2zM551 673l-394 -666q-4 -7 -9.5 -11t-13.5 -4h-32q-7 0 -8 5.5t2 9.5l394 666q4 7 10 11
t13 4h33q7 0 8 -4t-3 -11zM408 246v3t1 9l4 36q4 34 28 59t99 25q60 0 83.5 -20.5t23.5 -49.5v-5t-1 -9l-5 -36q-3 -23 -15.5 -38t-40.5 -23q25 -7 36 -20t11 -32v-3t-1 -7l-6 -55q-4 -34 -30.5 -59t-101.5 -25q-61 0 -86.5 21t-25.5 52v3.5t1 7.5l7 55q3 22 16.5 38.5
t44.5 23.5q-23 7 -32.5 19.5t-9.5 29.5zM587 265l3 24q1 4 1 6v3q0 19 -12.5 28.5t-44.5 9.5q-37 0 -50.5 -12.5t-16.5 -34.5l-3 -24q-1 -6 -1 -7.5v-2.5q0 -19 12.5 -28.5t44.5 -9.5q37 0 50.5 13t16.5 35zM570 86l5 42q1 5 1 6.5v2.5q0 19 -13.5 29t-46.5 10
q-38 0 -54 -12.5t-19 -35.5l-4 -34q-1 -5 -1.5 -9.5t-0.5 -6.5q0 -19 13.5 -29.5t47.5 -10.5q37 0 53 13t19 35z" />
    <glyph glyph-name="uni215F" unicode="&#x215f;" horiz-adv-x="421" 
d="M98 656l131 25q4 1 7.5 -0.5t2.5 -8.5l-39 -319h81q6 0 8 -3t1 -7l-3 -27q-1 -6 -3.5 -8t-8.5 -2h-219q-5 0 -8 2t-2 8l4 27q1 5 3.5 7.5t7.5 2.5h82l34 272l-85 -16q-4 -1 -6.5 1t-1.5 7l2 27q1 5 4 8t8 4zM617 673l-394 -666q-4 -7 -9.5 -11t-13.5 -4h-32q-7 0 -8 5.5
t2 9.5l394 666q4 7 10 11t13 4h33q7 0 8 -4t-3 -11z" />
    <glyph glyph-name="underscore" unicode="_" horiz-adv-x="392" 
d="M-33 -85h358q7 0 11 -3.5t4 -10.5v-30q0 -7 -4 -10.5t-11 -3.5h-358q-7 0 -11 3.5t-4 10.5v30q0 7 4 10.5t11 3.5z" />
    <glyph glyph-name="hyphen" unicode="-" horiz-adv-x="430" 
d="M80 318h268q8 0 11.5 -3.5t3.5 -10.5v-29q0 -8 -3.5 -11.5t-11.5 -3.5h-268q-7 0 -11 3.5t-4 11.5v29q0 7 4 10.5t11 3.5z" />
    <glyph glyph-name="endash" unicode="&#x2013;" horiz-adv-x="520" 
d="M80 318h358q7 0 11 -3.5t4 -10.5v-29q0 -8 -4 -11.5t-11 -3.5h-358q-7 0 -11 3.5t-4 11.5v29q0 7 4 10.5t11 3.5z" />
    <glyph glyph-name="emdash" unicode="&#x2014;" horiz-adv-x="829" 
d="M80 318h667q8 0 11.5 -3.5t3.5 -10.5v-29q0 -8 -3.5 -11.5t-11.5 -3.5h-667q-7 0 -11 3.5t-4 11.5v29q0 7 4 10.5t11 3.5z" />
    <glyph glyph-name="parenleft" unicode="(" horiz-adv-x="310" 
d="M29 -84l82 663q7 63 49 96t145 33h14q6 0 10 -3t3 -12l-3 -29q-1 -8 -5 -11.5t-12 -3.5h-6q-66 0 -93 -21t-31 -56l-81 -650q-1 -7 -1 -11v-5q0 -30 23.5 -47.5t83.5 -17.5h6q7 0 10.5 -3.5t2.5 -11.5l-4 -29q-1 -8 -5 -11.5t-11 -3.5h-6q-90 0 -131.5 31.5t-41.5 82.5
q0 4 0.5 9.5t1.5 10.5z" />
    <glyph glyph-name="parenright" unicode=")" horiz-adv-x="311" 
d="M271 574l-82 -663q-7 -63 -49 -96t-145 -33h-14q-6 0 -10 3t-3 12l3 29q1 8 5.5 11.5t11.5 3.5h5q66 0 94 21t32 56l80 650q1 7 1 11v6q0 30 -23.5 47t-83.5 17h-6q-7 0 -10 3.5t-2 11.5l3 29q1 8 5 11.5t11 3.5h5q90 0 132 -31.5t42 -82.5q0 -4 -0.5 -9.5t-1.5 -10.5z
" />
    <glyph glyph-name="bracketleft" unicode="[" horiz-adv-x="321" 
d="M19 -196l109 880q1 8 5 11.5t11 3.5h186q7 0 10.5 -3.5t2.5 -11.5l-4 -31q-1 -8 -4.5 -11.5t-11.5 -3.5h-129l-99 -788h130q7 0 10.5 -3.5t2.5 -11.5l-3 -31q-1 -8 -5 -11.5t-11 -3.5h-186q-7 0 -11 3.5t-3 11.5z" />
    <glyph glyph-name="bracketright" unicode="]" horiz-adv-x="320" 
d="M291 684l-109 -880q-1 -8 -4.5 -11.5t-10.5 -3.5h-186q-7 0 -10.5 3.5t-2.5 11.5l4 31q1 8 4.5 11.5t10.5 3.5h130l98 788h-130q-7 0 -10.5 3.5t-2.5 11.5l4 31q1 8 5 11.5t11 3.5h186q7 0 10.5 -3.5t2.5 -11.5z" />
    <glyph glyph-name="braceleft" unicode="{" horiz-adv-x="371" 
d="M146 355l27 224q7 57 51 93t148 36h9q9 0 11.5 -4t1.5 -11l-3 -29q-1 -8 -5 -11.5t-11 -3.5h-6q-66 0 -93.5 -21t-31.5 -56l-28 -224q-5 -43 -28 -66t-65 -33q36 -10 53 -32t17 -51q0 -4 -0.5 -11.5t-1.5 -14.5l-27 -212q-1 -6 -1.5 -13t-0.5 -11q0 -28 23.5 -45.5
t83.5 -17.5h7q8 0 10.5 -4.5t1.5 -10.5l-4 -29q-1 -8 -4.5 -11.5t-11.5 -3.5h-4q-90 0 -132 30.5t-42 82.5q0 4 0.5 13.5t1.5 13.5l27 212q1 6 1.5 11t0.5 12q0 28 -22.5 45t-77.5 17h-1q-8 0 -11 4t-2 11l4 29q1 8 5 11.5t11 3.5h2q60 0 86.5 21t30.5 56z" />
    <glyph glyph-name="braceright" unicode="}" horiz-adv-x="371" 
d="M270 570l-26 -207q-1 -5 -1.5 -11.5t-0.5 -10.5q0 -28 23 -45.5t77 -17.5h1q7 0 10 -4t2 -11l-3 -29q-1 -8 -5 -11.5t-12 -3.5h-1q-60 0 -86.5 -21t-30.5 -55l-28 -232q-7 -57 -51.5 -93t-147.5 -36h-9q-8 0 -11 4t-2 11l2 29q1 8 5.5 11.5t11.5 3.5h7q66 0 93 21t31 56
l28 231q5 43 28.5 66.5t65.5 33.5q-36 8 -53 30t-17 53q0 5 1 14t2 14l25 207q1 7 1.5 12t0.5 8q0 28 -23.5 45t-83.5 17h-6q-8 0 -11 4t-2 11l4 29q1 8 4.5 11.5t11.5 3.5h5q90 0 131 -31t41 -82v-10.5t-1 -14.5z" />
    <glyph glyph-name="numbersign" unicode="#" horiz-adv-x="585" 
d="M247 379l-44 -109h152l45 109h-153zM61 270h82l44 109h-70q-7 0 -10.5 4t-2.5 11l2 23q1 7 5.5 10.5t11.5 3.5h85l39 96q3 7 7.5 11t12.5 4h31q7 0 8.5 -4.5t-0.5 -10.5l-39 -96h153l38 96q3 7 8.5 11t12.5 4h30q8 0 9.5 -4.5t-0.5 -10.5l-39 -96h61q8 0 11 -3.5t2 -10.5
l-2 -23q-1 -7 -5 -11t-12 -4h-75l-45 -109h65q7 0 10.5 -3.5t2.5 -10.5l-2 -22q-1 -7 -5.5 -11t-11.5 -4h-79l-38 -94q-3 -7 -7.5 -11.5t-11.5 -4.5h-32q-7 0 -9.5 4.5t0.5 11.5l38 94h-152l-38 -94q-3 -7 -7.5 -11.5t-11.5 -4.5h-32q-7 0 -9.5 4.5t0.5 11.5l38 94h-67
q-7 0 -10 4t-2 11l2 22q1 7 5 10.5t11 3.5z" />
    <glyph glyph-name="percent" unicode="%" horiz-adv-x="739" 
d="M601 673l-394 -666q-4 -7 -9.5 -11t-13.5 -4h-32q-7 0 -8 5.5t2 9.5l394 666q4 7 10 11t13 4h33q7 0 8 -4t-3 -11zM335 594l-22 -180q-4 -34 -30.5 -60.5t-99.5 -26.5q-63 0 -90 22.5t-27 53.5v3.5t1 7.5l23 183q4 35 31 61t100 26q62 0 88.5 -22.5t26.5 -53.5v-4t-1 -10
zM125 430q-1 -7 -1 -11v-5q0 -19 13.5 -29.5t48.5 -10.5t51.5 13t19.5 35l20 159q1 6 1.5 11.5t0.5 6.5q0 18 -15 28t-46 10q-40 0 -55 -12.5t-18 -35.5zM684 263l-22 -180q-4 -34 -30.5 -60.5t-99.5 -26.5q-63 0 -90 22.5t-27 53.5v3.5t1 7.5l23 183q4 35 31 61t100 26
q62 0 88.5 -22.5t26.5 -53.5v-4t-1 -10zM474 99q-1 -7 -1 -11v-5q0 -19 13.5 -29.5t48.5 -10.5t51.5 13t19.5 35l20 159q1 6 1.5 11.5t0.5 6.5q0 18 -15 28t-46 10q-40 0 -55 -12.5t-18 -35.5z" />
    <glyph glyph-name="perthousand" unicode="&#x2030;" horiz-adv-x="1045" 
d="M601 673l-394 -666q-4 -7 -9.5 -11t-13.5 -4h-32q-7 0 -8 5.5t2 9.5l394 666q4 7 10 11t13 4h33q7 0 8 -4t-3 -11zM335 594l-22 -180q-4 -34 -30.5 -60.5t-99.5 -26.5q-63 0 -90 22.5t-27 53.5v3.5t1 7.5l23 183q4 35 31 61t100 26q62 0 88.5 -22.5t26.5 -53.5v-4t-1 -10
zM125 430q-1 -7 -1 -11v-5q0 -19 13.5 -29.5t48.5 -10.5t51.5 13t19.5 35l20 159q1 6 1.5 11.5t0.5 6.5q0 18 -15 28t-46 10q-40 0 -55 -12.5t-18 -35.5zM992 263l-22 -180q-4 -34 -30.5 -60.5t-99.5 -26.5q-63 0 -90 22.5t-27 53.5v3.5t1 7.5l23 183q4 35 31 61t100 26
q62 0 88.5 -22.5t26.5 -53.5v-4t-1 -10zM684 263l-22 -180q-4 -34 -30.5 -60.5t-99.5 -26.5q-63 0 -90 22.5t-27 53.5v3.5t1 7.5l23 183q4 35 31 61t100 26q62 0 88.5 -22.5t26.5 -53.5v-4t-1 -10zM782 99q-1 -7 -1 -11v-5q0 -19 13.5 -29.5t48.5 -10.5t51.5 13t19.5 35
l20 159q1 6 1.5 11.5t0.5 6.5q0 18 -15 28t-46 10q-40 0 -55 -12.5t-18 -35.5zM474 99q-1 -7 -1 -11v-5q0 -19 13.5 -29.5t48.5 -10.5t51.5 13t19.5 35l20 159q1 6 1.5 11.5t0.5 6.5q0 18 -15 28t-46 10q-40 0 -55 -12.5t-18 -35.5z" />
    <glyph glyph-name="quotesingle" unicode="'" horiz-adv-x="199" 
d="M180 665l-27 -171q-1 -7 -4.5 -11t-11.5 -4h-28q-7 0 -10.5 3.5t-2.5 11.5l15 171q1 7 5 11t11 4h41q7 0 10 -4t2 -11z" />
    <glyph glyph-name="quotedbl" unicode="&#x22;" horiz-adv-x="337" 
d="M319 665l-27 -171q-1 -7 -5 -11t-11 -4h-28q-7 0 -10.5 3.5t-2.5 11.5l15 171q1 7 5 11t11 4h41q7 0 10 -4t2 -11zM180 665l-27 -171q-1 -7 -4.5 -11t-11.5 -4h-28q-7 0 -10.5 3.5t-2.5 11.5l15 171q1 7 5 11t11 4h41q7 0 10 -4t2 -11z" />
    <glyph glyph-name="quoteleft" unicode="&#x2018;" horiz-adv-x="227" 
d="M169 604l-8 -61q-1 -7 -5 -11t-11 -4h-42q-7 0 -10 4t-2 11l8 64q6 47 34 77t81 45q7 2 11.5 0t5.5 -9l7 -29q1 -7 -1.5 -11.5t-10.5 -7.5q-30 -12 -42 -28.5t-15 -39.5z" />
    <glyph glyph-name="quoteright" unicode="&#x2019;" horiz-adv-x="228" 
d="M148 653l8 61q1 7 5 11t11 4h42q7 0 10 -4t2 -11l-8 -64q-6 -47 -34 -77t-81 -45q-7 -2 -11.5 0t-5.5 9l-7 29q-1 7 1.5 11.5t10.5 7.5q30 12 42 28.5t15 39.5z" />
    <glyph glyph-name="quotedblleft" unicode="&#x201c;" horiz-adv-x="385" 
d="M326 604l-8 -61q-1 -7 -5 -11t-11 -4h-42q-7 0 -10 4t-2 11l8 64q6 47 34 77t81 45q7 2 11.5 0t5.5 -9l7 -29q1 -7 -1.5 -11.5t-10.5 -7.5q-30 -12 -42 -28.5t-15 -39.5zM169 604l-8 -61q-1 -7 -5 -11t-11 -4h-42q-7 0 -10 4t-2 11l8 64q6 47 34 77t81 45q7 2 11.5 0
t5.5 -9l7 -29q1 -7 -1.5 -11.5t-10.5 -7.5q-30 -12 -42 -28.5t-15 -39.5z" />
    <glyph glyph-name="quotedblright" unicode="&#x201d;" horiz-adv-x="385" 
d="M148 653l8 61q1 7 5 11t11 4h42q7 0 10 -4t2 -11l-8 -64q-6 -47 -34 -77t-81 -45q-7 -2 -11.5 0t-5.5 9l-7 29q-1 7 1.5 11.5t10.5 7.5q30 12 42 28.5t15 39.5zM306 653l8 61q1 7 5 11t11 4h42q7 0 10 -4t2 -11l-8 -64q-6 -47 -34 -77t-81 -45q-7 -2 -11.5 0t-5.5 9
l-7 29q-1 7 1.5 11.5t10.5 7.5q30 12 42 28.5t15 39.5z" />
    <glyph glyph-name="quotesinglbase" unicode="&#x201a;" horiz-adv-x="172" 
d="M20 32l8 61q1 7 5 11t11 4h42q7 0 10 -4t2 -11l-8 -64q-6 -47 -34 -77t-81 -45q-7 -2 -11.5 0t-5.5 9l-7 29q-1 7 1.5 11.5t10.5 7.5q30 12 42 28.5t15 39.5z" />
    <glyph glyph-name="quotedblbase" unicode="&#x201e;" horiz-adv-x="329" 
d="M20 32l8 61q1 7 5 11t11 4h42q7 0 10 -4t2 -11l-8 -64q-6 -47 -34 -77t-81 -45q-7 -2 -11.5 0t-5.5 9l-7 29q-1 7 1.5 11.5t10.5 7.5q30 12 42 28.5t15 39.5zM178 32l8 61q1 7 5 11t11 4h42q7 0 10 -4t2 -11l-8 -64q-6 -47 -34 -77t-81 -45q-7 -2 -11.5 0t-5.5 9l-7 29
q-1 7 1.5 11.5t10.5 7.5q30 12 42 28.5t15 39.5z" />
    <glyph glyph-name="guilsinglleft" unicode="&#x2039;" horiz-adv-x="326" 
d="M96 244l130 -105q5 -4 8.5 -9.5t2.5 -12.5l-5 -42q-1 -8 -6 -10t-10 2l-168 139q-5 4 -8 10t-2 16l4 28q1 10 5.5 16t11.5 10l202 139q5 4 9.5 1.5t3.5 -9.5l-5 -45q-1 -7 -6.5 -12.5t-11.5 -9.5z" />
    <glyph glyph-name="guilsinglright" unicode="&#x203a;" horiz-adv-x="326" 
d="M221 247l-130 105q-5 4 -8.5 9.5t-2.5 12.5l5 42q1 8 6 10t10 -2l168 -139q5 -4 8 -10t2 -16l-4 -28q-1 -10 -5.5 -16t-11.5 -10l-202 -139q-5 -4 -9.5 -1.5t-3.5 9.5l5 45q1 7 6.5 12.5t11.5 9.5z" />
    <glyph glyph-name="guillemotleft" unicode="&#xab;" horiz-adv-x="531" 
d="M301 244l130 -105q5 -4 8.5 -9.5t2.5 -12.5l-5 -42q-1 -8 -6 -10t-10 2l-168 139q-5 4 -8 10t-2 16l4 28q1 10 5.5 16t11.5 10l202 139q5 4 9.5 1.5t3.5 -9.5l-5 -45q-1 -7 -6.5 -12.5t-11.5 -9.5zM96 244l130 -105q5 -4 8.5 -9.5t2.5 -12.5l-5 -42q-1 -8 -6 -10t-10 2
l-168 139q-5 4 -8 10t-2 16l4 28q1 10 5.5 16t11.5 10l202 139q5 4 9.5 1.5t3.5 -9.5l-5 -45q-1 -7 -6.5 -12.5t-11.5 -9.5z" />
    <glyph glyph-name="guillemotright" unicode="&#xbb;" horiz-adv-x="540" 
d="M221 254l-130 105q-5 4 -8.5 9.5t-2.5 12.5l5 42q1 8 6 10t10 -2l168 -139q5 -4 8 -10t2 -16l-4 -28q-1 -10 -5.5 -16t-11.5 -10l-202 -139q-5 -4 -9.5 -1.5t-3.5 9.5l5 45q1 7 6.5 12.5t11.5 9.5zM436 254l-130 105q-5 4 -8.5 9.5t-2.5 12.5l5 42q1 8 6 10t10 -2
l168 -139q5 -4 8 -10t2 -16l-4 -28q-1 -10 -5.5 -16t-11.5 -10l-202 -139q-5 -4 -9.5 -1.5t-3.5 9.5l5 45q1 7 6.5 12.5t11.5 9.5z" />
    <glyph glyph-name="asterisk" unicode="*" horiz-adv-x="454" 
d="M211 365l21 129l-120 -73q-7 -4 -11.5 -2.5t-7.5 8.5l-8 19q-3 7 -1 11.5t9 8.5l119 61l-104 63q-7 4 -7.5 8t3.5 11l12 19q4 7 9.5 8.5t11.5 -2.5l103 -73l12 134q1 8 5 11.5t11 3.5h23q7 0 10 -4t2 -11l-22 -133l118 73q7 4 11.5 3t7.5 -8l10 -21q3 -6 1 -10.5
t-10 -8.5l-120 -63l105 -61q7 -4 7.5 -9t-3.5 -11l-12 -19q-4 -6 -9 -8t-12 3l-102 71l-11 -128q-1 -8 -5 -11.5t-11 -3.5h-22q-7 0 -10.5 4t-2.5 11z" />
    <glyph glyph-name="dagger" unicode="&#x2020;" horiz-adv-x="466" 
d="M317 684l-82 -669q-1 -7 -5 -11t-11 -4h-41q-7 0 -10 4t-2 11l81 669q1 7 5.5 11t11.5 4h41q7 0 10 -4t2 -11zM329 501h115q7 0 11 -3.5t3 -10.5l-4 -30q-1 -7 -5 -10.5t-11 -3.5h-114q-8 0 -11 3.5t-2 10.5l2 30q1 7 5 10.5t11 3.5zM74 501h114q8 0 11 -3.5t2 -10.5
l-2 -30q-1 -7 -5 -10.5t-11 -3.5h-115q-7 0 -10.5 3.5t-2.5 10.5l3 30q1 7 5 10.5t11 3.5z" />
    <glyph glyph-name="daggerdbl" unicode="&#x2021;" horiz-adv-x="466" 
d="M317 684l-82 -669q-1 -7 -4.5 -11t-11.5 -4h-40q-7 0 -10.5 4t-2.5 11l82 669q1 7 5 11t12 4h40q8 0 10.5 -4t1.5 -11zM458 487l-3 -30q-1 -7 -5 -10.5t-11 -3.5h-115q-7 0 -10.5 3.5t-2.5 10.5l3 30q1 7 5 10.5t11 3.5h115q7 0 10.5 -3.5t2.5 -10.5zM58 487q1 7 5 10.5
t11 3.5h114q8 0 11.5 -3.5t2.5 -10.5l-3 -30q-1 -7 -5 -10.5t-11 -3.5h-115q-7 0 -10.5 3.5t-2.5 10.5zM428 242l-4 -30q-1 -7 -5 -11t-11 -4h-115q-7 0 -10.5 4t-2.5 11l3 30q1 7 5 10.5t12 3.5h114q7 0 11 -3.5t3 -10.5zM27 242q1 7 5.5 10.5t11.5 3.5h114q8 0 11.5 -3.5
t2.5 -10.5l-4 -30q-1 -7 -4.5 -11t-11.5 -4h-114q-7 0 -10.5 4t-2.5 11z" />
    <glyph glyph-name="period" unicode="." horiz-adv-x="206" 
d="M116 93l-10 -78q-1 -8 -4.5 -11.5t-10.5 -3.5h-42q-7 0 -10 3.5t-2 11.5l9 78q1 7 5 11t11 4h42q7 0 10 -4t2 -11z" />
    <glyph glyph-name="comma" unicode="," horiz-adv-x="208" 
d="M39 32l8 61q1 7 5 11t11 4h42q7 0 10 -4t2 -11l-8 -64q-6 -47 -34 -77t-81 -45q-7 -2 -11.5 0t-5.5 9l-7 29q-1 7 1.5 11.5t10.5 7.5q30 12 42 28.5t15 39.5z" />
    <glyph glyph-name="colon" unicode=":" horiz-adv-x="219" 
d="M169 479l-10 -79q-1 -7 -5 -10.5t-11 -3.5h-42q-7 0 -10 3.5t-2 10.5l9 79q1 7 5.5 11t11.5 4h41q8 0 11 -4t2 -11zM121 93l-9 -78q-1 -8 -5.5 -11.5t-11.5 -3.5h-41q-8 0 -11 3.5t-2 11.5l9 78q1 7 5.5 11t11.5 4h42q7 0 10 -4t2 -11z" />
    <glyph glyph-name="semicolon" unicode=";" horiz-adv-x="245" 
d="M185 479l-9 -79q-1 -7 -5.5 -10.5t-11.5 -3.5h-41q-7 0 -10.5 3.5t-2.5 10.5l9 79q1 7 5.5 11t11.5 4h42q7 0 10 -4t2 -11zM60 32l7 61q1 8 5 11.5t11 3.5h43q7 0 10 -4t2 -11l-9 -64q-7 -47 -34.5 -77t-79.5 -45q-7 -2 -11 0t-6 9l-8 29q-1 7 2 11.5t10 7.5
q30 12 42.5 28.5t15.5 39.5z" />
    <glyph glyph-name="ellipsis" unicode="&#x2026;" horiz-adv-x="701" 
d="M116 93l-10 -78q-1 -8 -4.5 -11.5t-10.5 -3.5h-42q-7 0 -10 3.5t-2 11.5l9 78q1 7 5 11t11 4h42q7 0 10 -4t2 -11zM611 93l-10 -78q-1 -8 -4.5 -11.5t-10.5 -3.5h-42q-7 0 -10 3.5t-2 11.5l9 78q1 7 5 11t11 4h42q7 0 10 -4t2 -11zM364 93l-10 -78q-1 -8 -4.5 -11.5
t-10.5 -3.5h-42q-7 0 -10 3.5t-2 11.5l9 78q1 7 5 11t11 4h42q7 0 10 -4t2 -11z" />
    <glyph glyph-name="exclam" unicode="!" horiz-adv-x="229" 
d="M165 390l-34 -213q-1 -7 -5.5 -11t-11.5 -4h-29q-8 0 -11 4t-2 11l20 213l33 275q1 7 5 11t11 4h44q8 0 10.5 -4t1.5 -11zM126 93l-10 -78q-1 -8 -4.5 -11.5t-11.5 -3.5h-41q-8 0 -11.5 3.5t-2.5 11.5l10 78q1 7 5.5 11t11.5 4h42q8 0 10.5 -4t1.5 -11z" />
    <glyph glyph-name="exclamdown" unicode="&#xa1;" horiz-adv-x="221" 
d="M90 401l10 78q1 8 4.5 11.5t11.5 3.5h41q8 0 11.5 -3.5t2.5 -11.5l-10 -78q-1 -7 -5.5 -11t-11.5 -4h-42q-8 0 -10.5 4t-1.5 11zM51 104l34 213q1 7 5.5 11t11.5 4h29q8 0 11 -4t2 -11l-20 -213l-33 -275q-1 -7 -5 -11t-11 -4h-44q-8 0 -10.5 4t-1.5 11z" />
    <glyph glyph-name="question" unicode="?" horiz-adv-x="506" 
d="M188 177l10 78q6 45 32.5 65.5t45.5 30.5l74 36q13 7 34.5 25t25.5 52l9 67q1 7 1 11.5v8.5q0 34 -28.5 55.5t-99.5 21.5q-78 0 -111 -26.5t-39 -70.5l-6 -46q-1 -8 -5 -12t-11 -4h-41q-7 0 -10 4t-2 12l7 57q7 60 53.5 103t169.5 43q108 0 151 -38t43 -89v-9t-1 -13
l-9 -76q-7 -60 -40.5 -87.5t-58.5 -39.5l-56 -26q-18 -8 -36 -24t-22 -47l-9 -62q-1 -7 -4.5 -11t-11.5 -4h-42q-8 0 -11 4t-2 11zM249 93l-9 -78q-1 -8 -5 -11.5t-12 -3.5h-42q-7 0 -10 3t-2 12l9 77q1 8 5 12t11 4h43q8 0 10.5 -4t1.5 -11z" />
    <glyph glyph-name="questiondown" unicode="&#xbf;" horiz-adv-x="500" 
d="M244 401l9 78q1 8 5 11.5t12 3.5h42q7 0 10 -3t2 -12l-9 -77q-1 -8 -5 -12t-11 -4h-43q-8 0 -10.5 4t-1.5 11zM305 317l-10 -78q-6 -45 -32.5 -65.5t-45.5 -30.5l-74 -36q-13 -7 -34.5 -25t-25.5 -52l-9 -67q-1 -7 -1 -11.5v-8.5q0 -34 28.5 -55.5t99.5 -21.5
q78 0 111 26.5t39 70.5l6 46q1 8 5 12t11 4h41q7 0 10 -4t2 -12l-7 -57q-7 -60 -53.5 -103t-169.5 -43q-108 0 -151 38t-43 89v9t1 13l9 76q7 60 40.5 87.5t58.5 39.5l56 26q18 8 36 24t22 47l9 62q1 7 4.5 11t11.5 4h42q8 0 11 -4t2 -11z" />
    <glyph glyph-name="slash" unicode="/" horiz-adv-x="357" 
d="M373 684l-317 -817q-3 -7 -7.5 -11t-11.5 -4h-46q-7 0 -9 4t0 11l316 817q2 7 6.5 11t12.5 4h46q7 0 10 -4t0 -11z" />
    <glyph glyph-name="backslash" unicode="\" horiz-adv-x="355" 
d="M198 -133l-115 817q-1 7 2 11t11 4h43q7 0 11 -3.5t5 -11.5l115 -816q1 -7 -2.5 -11.5t-10.5 -4.5h-43q-8 0 -11.5 4t-4.5 11z" />
    <glyph glyph-name="fraction" unicode="&#x2044;" horiz-adv-x="83" 
d="M275 673l-394 -666q-4 -7 -9.5 -11t-13.5 -4h-32q-7 0 -8 5.5t2 9.5l394 666q4 7 10 11t13 4h33q7 0 8 -4t-3 -11z" />
    <glyph glyph-name="bar" unicode="|" horiz-adv-x="271" 
d="M165 684v-880q0 -7 -3.5 -11t-10.5 -4h-43q-7 0 -10.5 4t-3.5 11v880q0 7 3.5 11t10.5 4h43q7 0 10.5 -4t3.5 -11z" />
    <glyph glyph-name="brokenbar" unicode="&#xa6;" horiz-adv-x="273" 
d="M164 665v-336q0 -7 -3.5 -11t-10.5 -4h-40q-8 0 -11.5 4t-3.5 11v336q0 7 3.5 11t11.5 4h40q7 0 10.5 -4t3.5 -11zM164 140v-336q0 -7 -3.5 -11t-10.5 -4h-40q-8 0 -11.5 4t-3.5 11v336q0 7 3.5 11t11.5 4h40q7 0 10.5 -4t3.5 -11z" />
    <glyph glyph-name="at" unicode="@" horiz-adv-x="819" 
d="M542 -122h-182q-94 0 -155.5 12.5t-97.5 33t-50 48.5t-14 59q0 9 1 19.5t2 17.5l47 381q4 35 20.5 66.5t55.5 55.5t106.5 38.5t172.5 14.5q94 0 156 -12t98 -32.5t50 -48.5t14 -59q0 -6 -0.5 -13t-1.5 -14l-35 -280q-7 -58 -39 -95t-105 -37q-46 0 -72.5 17.5t-33.5 46.5
q-22 -16 -66 -40t-101 -24q-55 0 -81 24.5t-26 64.5q0 9 1 19t3 20l38 169q13 58 46.5 93t103.5 35q46 0 82 -20t55 -36l9 34q2 7 6 10.5t11 3.5h35q7 0 10 -4t2 -10l-59 -259q-2 -10 -3.5 -20.5t-1.5 -18.5q0 -24 12.5 -38t37.5 -14q34 0 50 25t20 62l33 269q1 5 1 10.5
v8.5q0 47 -53 76.5t-201 29.5q-160 0 -218 -33.5t-65 -87.5l-47 -379q-1 -5 -1.5 -11.5t-0.5 -13.5q0 -49 53 -77.5t202 -28.5h183q9 0 11.5 -4t1.5 -10l-3 -29q-1 -7 -5.5 -11t-11.5 -4zM312 318l-32 -146q-1 -6 -2.5 -14.5t-1.5 -14.5q0 -23 15.5 -35t52.5 -12
q41 0 76.5 18t54.5 31q0 2 1 7t2 11l41 182q-13 13 -39.5 32t-69.5 19q-49 0 -70 -23.5t-28 -54.5z" />
    <glyph glyph-name="ampersand" unicode="&#x26;" horiz-adv-x="649" 
d="M506 137q-7 -60 -60.5 -102.5t-183.5 -42.5q-116 0 -164 36t-48 90v7t1 12l14 108q6 45 28.5 74t79.5 42q-43 11 -59 34t-16 54q0 4 0.5 10.5t1.5 12.5l9 73q7 60 50 101.5t162 41.5q81 0 133 -28.5t52 -91.5v-4t-1 -10l-3 -33q-1 -8 -5 -11t-11 -3h-41q-8 0 -11 3.5
t-2 10.5l1 13q1 8 1.5 14t0.5 7q0 46 -38 60t-81 14q-57 0 -94.5 -19.5t-44.5 -75.5l-6 -52q-1 -7 -1.5 -12.5t-0.5 -9.5q0 -34 25.5 -52.5t94.5 -18.5h323q8 0 11 -4t2 -11l-4 -30q-1 -7 -5 -10.5t-11 -3.5h-75zM268 51q84 0 124.5 26t45.5 69l23 184h-185
q-81 0 -109.5 -24.5t-33.5 -68.5l-11 -91q-1 -7 -1 -10v-5q0 -39 38 -59.5t109 -20.5z" />
    <glyph glyph-name="section" unicode="&#xa7;" horiz-adv-x="503" 
d="M412 173q-1 -7 -5 -11t-12 -4h-36q-6 0 -10 3.5t-3 11.5l11 85q1 6 1.5 11.5t0.5 8.5q0 23 -18 36t-31 17l-131 40q-24 7 -56 29.5t-32 68.5q0 4 0.5 10.5t1.5 11.5l8 70q6 55 50 91t148 36q93 0 132 -29.5t39 -78.5v-5.5t-1 -13.5l-1 -12q-1 -8 -5.5 -11.5t-11.5 -3.5
h-36q-7 0 -10.5 3.5t-2.5 11.5l1 10q1 7 1 10.5v6.5q0 29 -23.5 46t-84.5 17q-66 0 -94 -20.5t-32 -54.5l-9 -69q-1 -6 -1 -9v-7q0 -28 23 -39.5t36 -15.5l129 -40q27 -8 52 -30.5t25 -62.5v-9.5t-1 -13.5zM67 209l12 95q1 8 5 11.5t11 3.5h36q6 0 10 -3.5t3 -11.5l-11 -85
q-1 -6 -1 -10v-9q0 -25 17.5 -37.5t30.5 -16.5l132 -40q23 -7 55.5 -29t32.5 -68q0 -5 -0.5 -10.5t-1.5 -12.5l-8 -69q-7 -56 -50.5 -92t-147.5 -36q-93 0 -132 28.5t-39 77.5v7.5t1 14.5l1 12q1 8 5 11.5t12 3.5h35q7 0 10.5 -3.5t2.5 -12.5l-1 -10q-1 -6 -1 -9.5v-6.5
q0 -31 24 -48t84 -17q66 0 94 21t32 56l9 68q1 7 1 11v5q0 28 -23 40t-36 16l-129 39q-28 8 -52 30.5t-24 62.5v10.5t1 12.5z" />
    <glyph glyph-name="paragraph" unicode="&#xb6;" horiz-adv-x="586" 
d="M551 665l-105 -856q-1 -9 -5.5 -12t-11.5 -3h-42q-7 0 -10.5 3t-2.5 12l106 856q1 7 4.5 11t11.5 4h43q7 0 10 -4t2 -11zM396 666l-106 -857q-1 -8 -5 -11.5t-11 -3.5h-43q-7 0 -10 3.5t-2 11.5l58 473h-45q-97 0 -137.5 31.5t-40.5 80.5q0 6 0.5 13t1.5 12l16 130
q7 56 49 93.5t160 37.5h101q7 0 11 -3.5t3 -10.5z" />
    <glyph glyph-name="afii61289" unicode="&#x2113;" horiz-adv-x="512" 
d="M140 125l12 102q-40 -19 -69 -30.5t-33 -12.5q-7 -2 -11.5 -1t-6.5 7l-10 31q-2 7 0.5 11.5t9.5 8.5l43 16.5t85 37.5l30 242q7 60 45.5 103t129.5 43q83 0 115 -36t32 -84q0 -54 -25.5 -98.5t-66 -81.5t-92.5 -67.5t-103 -55.5l-14 -114q-1 -5 -1 -11v-9q0 -32 23.5 -50
t80.5 -18h97q8 0 11.5 -3.5t2.5 -11.5l-4 -28q-1 -8 -4.5 -11.5t-11.5 -3.5h-98q-94 0 -131 31t-37 80v6t1 8zM259 529l-25 -199q40 22 78 45.5t67.5 51t47.5 59t18 69.5q0 31 -19.5 50.5t-65.5 19.5q-53 0 -74.5 -26t-26.5 -70z" />
    <glyph glyph-name="periodcentered" unicode="&#xb7;" horiz-adv-x="218" 
d="M147 304l-10 -78q-1 -8 -4.5 -11.5t-10.5 -3.5h-42q-7 0 -10 3.5t-2 11.5l9 78q1 7 5 11t11 4h42q7 0 10 -4t2 -11z" />
    <glyph glyph-name="bullet" unicode="&#x2022;" horiz-adv-x="264" 
d="M172 327l-16 -129q-1 -8 -4.5 -11.5t-11.5 -3.5h-42q-7 0 -10 3.5t-2 11.5l16 129q1 8 5 11.5t11 3.5h42q7 0 10 -4t2 -11z" />
    <glyph glyph-name="plus" unicode="+" horiz-adv-x="512" 
d="M232 143v166h-166q-7 0 -10.5 4t-3.5 11v30q0 8 3.5 11.5t10.5 3.5h166v165q0 8 3.5 12t10.5 4h29q7 0 11 -4t4 -12v-165h167q7 0 11 -3.5t4 -11.5v-30q0 -7 -4 -11t-11 -4h-167v-166q0 -7 -4 -10.5t-11 -3.5h-29q-7 0 -10.5 3.5t-3.5 10.5z" />
    <glyph glyph-name="minus" unicode="&#x2212;" horiz-adv-x="588" 
d="M132 363h400q7 0 11 -3.5t4 -11.5v-29q0 -8 -4 -11.5t-11 -3.5h-400q-7 0 -11 3.5t-4 11.5v29q0 8 4 11.5t11 3.5z" />
    <glyph glyph-name="plusminus" unicode="&#xb1;" horiz-adv-x="580" 
d="M255 228v123h-166q-8 0 -11.5 3.5t-3.5 11.5v30q0 7 3.5 10.5t11.5 3.5h166v122q0 7 3.5 11t10.5 4h29q7 0 11 -4t4 -11v-122h167q7 0 11 -3.5t4 -10.5v-30q0 -8 -4 -11.5t-11 -3.5h-167v-123q0 -7 -4 -11t-11 -4h-29q-7 0 -10.5 4t-3.5 11zM89 153h391q7 0 11 -3.5
t4 -11.5v-29q0 -8 -4 -11.5t-11 -3.5h-391q-8 0 -11.5 3.5t-3.5 11.5v29q0 8 3.5 11.5t11.5 3.5z" />
    <glyph glyph-name="divide" unicode="&#xf7;" horiz-adv-x="557" 
d="M317 528v-78q0 -8 -3.5 -11.5t-10.5 -3.5h-42q-8 0 -11.5 3.5t-3.5 11.5v78q0 7 3.5 11t11.5 4h42q7 0 10.5 -4t3.5 -11zM80 349h402q7 0 11 -3t4 -11v-30q0 -7 -3.5 -11t-11.5 -4h-401q-7 0 -10.5 3.5t-3.5 11.5v30q0 8 3 11t10 3zM317 193v-78q0 -8 -3.5 -11.5
t-10.5 -3.5h-42q-8 0 -11.5 3.5t-3.5 11.5v78q0 7 3.5 11t11.5 4h42q7 0 10.5 -4t3.5 -11z" />
    <glyph glyph-name="multiply" unicode="&#xd7;" horiz-adv-x="466" 
d="M195 345l-117 117q-6 6 -6 10.5t5 9.5l21 21q5 5 10 5.5t11 -5.5l117 -117l118 118q5 5 10.5 5.5t10.5 -5.5l21 -22q5 -5 5 -10t-5 -10l-118 -118l118 -118q5 -5 5 -10.5t-5 -10.5l-21 -21q-5 -5 -10 -4.5t-10 5.5l-118 118l-117 -118q-5 -6 -10.5 -5.5t-10.5 5.5l-22 22
q-5 5 -5 10t5 10z" />
    <glyph glyph-name="equal" unicode="=" horiz-adv-x="612" 
d="M109 450h400q7 0 10.5 -3.5t3.5 -10.5v-30q0 -8 -3.5 -11.5t-10.5 -3.5h-400q-7 0 -11 3.5t-4 11.5v30q0 7 4 10.5t11 3.5zM109 271h400q7 0 10.5 -3.5t3.5 -10.5v-30q0 -7 -3.5 -10.5t-10.5 -3.5h-400q-7 0 -11 3.5t-4 10.5v30q0 7 4 10.5t11 3.5z" />
    <glyph glyph-name="less" unicode="&#x3c;" horiz-adv-x="510" 
d="M418 469l-297 -129l297 -129q7 -3 11 -6t4 -10v-40q0 -8 -4 -12t-11 -1l-352 159q-6 3 -10 6t-4 11v45q0 7 4 10t10 6l352 159q7 3 11 -1t4 -12v-40q0 -7 -4 -10t-11 -6z" />
    <glyph glyph-name="greater" unicode="&#x3e;" horiz-adv-x="498" 
d="M390 340l-298 128q-7 3 -10.5 6.5t-3.5 10.5v41q0 8 3.5 12t10.5 1l353 -159q6 -3 9.5 -6.5t3.5 -10.5v-46q0 -8 -3.5 -11t-9.5 -6l-353 -159q-7 -3 -10.5 1t-3.5 12v41q0 8 3.5 11t10.5 6z" />
    <glyph glyph-name="lessequal" unicode="&#x2264;" horiz-adv-x="546" 
d="M445 515l-297 -109l297 -108q7 -2 11 -6t4 -11v-40q0 -7 -4 -11.5t-11 -1.5l-352 140q-6 2 -10 5.5t-4 10.5v45q0 7 4 10.5t10 5.5l352 139q7 3 11 -1t4 -11v-40q0 -7 -4 -11t-11 -6zM95 169h350q8 0 11.5 -3.5t3.5 -10.5v-29q0 -7 -3.5 -10.5t-11.5 -3.5h-350
q-8 0 -11.5 3.5t-3.5 10.5v29q0 7 3.5 10.5t11.5 3.5z" />
    <glyph glyph-name="greaterequal" unicode="&#x2265;" horiz-adv-x="553" 
d="M404 406l-298 109q-7 2 -10.5 6t-3.5 11v41q0 7 3.5 11t10.5 2l353 -139q6 -2 9.5 -6t3.5 -11v-46q0 -8 -3.5 -11.5t-9.5 -5.5l-353 -139q-7 -2 -10.5 1.5t-3.5 11.5v41q0 7 3.5 11t10.5 6zM106 170h351q7 0 11 -3.5t4 -11.5v-30q0 -7 -4 -11t-11 -4h-351q-7 0 -10.5 4
t-3.5 11v30q0 8 3.5 11.5t10.5 3.5z" />
    <glyph glyph-name="approxequal" unicode="&#x2248;" horiz-adv-x="484" 
d="M410 439l-2 -27q-4 -49 -23.5 -67.5t-44.5 -18.5q-10 0 -25.5 4t-29.5 11l-88 45q-7 4 -17.5 8.5t-17.5 4.5q-17 0 -22 -9t-6 -32l-1 -15q-1 -7 -5 -10t-11 -3h-21q-7 0 -10.5 4.5t-2.5 11.5l2 28q3 47 24 66.5t47 19.5q12 0 25 -4.5t23 -9.5l87 -45q9 -4 21 -9.5
t21 -5.5q17 0 21 10t5 33l1 14q1 7 4.5 10t10.5 3h23q7 0 10 -4t2 -13zM410 279l-2 -27q-4 -49 -23.5 -67.5t-44.5 -18.5q-10 0 -25.5 4t-29.5 11l-88 45q-7 4 -17.5 8.5t-17.5 4.5q-17 0 -22 -9t-6 -32l-1 -15q-1 -7 -5 -10t-11 -3h-21q-7 0 -10.5 4.5t-2.5 11.5l2 28
q3 47 24 66.5t47 19.5q12 0 25 -4.5t23 -9.5l87 -45q9 -4 21 -9.5t21 -5.5q17 0 21 10t5 33l1 14q1 7 4.5 10t10.5 3h23q7 0 10 -4t2 -13z" />
    <glyph glyph-name="notequal" unicode="&#x2260;" horiz-adv-x="612" 
d="M271 144q-3 -7 -8 -11t-12 -4h-38q-7 0 -9 4t0 11l27 69h-121q-7 0 -11 3.5t-4 10.5v30q0 7 4 10.5t11 3.5h143l46 120h-189q-7 0 -11 3.5t-4 11.5v30q0 7 4 10.5t11 3.5h212l26 68q3 7 7.5 11.5t11.5 4.5h38q7 0 10 -4t0 -12l-26 -68h121q7 0 10.5 -3.5t3.5 -10.5v-30
q0 -8 -3.5 -11.5t-10.5 -3.5h-144l-46 -120h190q7 0 10.5 -3.5t3.5 -10.5v-30q0 -7 -3.5 -10.5t-10.5 -3.5h-212z" />
    <glyph glyph-name="logicalnot" unicode="&#xac;" horiz-adv-x="350" 
d="M64 314q0 46 33 79.5t79 33.5q47 0 80 -33.5t33 -79.5t-33 -79t-80 -33q-46 0 -79 33t-33 79z" />
    <glyph glyph-name="partialdiff" unicode="&#x2202;" horiz-adv-x="379" 
d="M87 194v246q0 11 10.5 12.5t20.5 -4.5l186 -115q9 -6 9 -15.5t-9 -15.5l-186 -114q-10 -6 -20.5 -6t-10.5 12z" />
    <glyph glyph-name="product" unicode="&#x220f;" horiz-adv-x="379" 
d="M313 203h-245q-11 0 -12.5 10.5t4.5 20.5l115 186q6 9 15.5 9t15.5 -9l114 -186q6 -10 5.5 -20.5t-12.5 -10.5z" />
    <glyph glyph-name="summation" unicode="&#x2211;" horiz-adv-x="379" 
d="M292 440v-246q0 -12 -11 -12t-21 6l-185 114q-9 6 -9 15.5t9 15.5l185 115q10 7 21 5t11 -13z" />
    <glyph glyph-name="radical" unicode="&#x221a;" horiz-adv-x="379" 
d="M108 427h162q17 0 24 -7t7 -24v-162q0 -16 -7 -23.5t-24 -7.5h-162q-16 0 -23.5 7.5t-7.5 23.5v162q0 17 7.5 24t23.5 7zM270 409h-162q-7 0 -10 -3t-3 -10v-162q0 -7 3 -10t10 -3h162q7 0 10.5 3t3.5 10v162q0 7 -3.5 10t-10.5 3z" />
    <glyph glyph-name="infinity" unicode="&#x221e;" horiz-adv-x="379" 
d="M53 337l114 115q6 6 11.5 8.5t10.5 2.5t10.5 -2.5t11.5 -8.5l115 -115q6 -6 8.5 -11.5t2.5 -10.5t-2.5 -10.5t-8.5 -11.5l-115 -115q-6 -6 -11.5 -9t-10.5 -3t-11 3t-11 9l-114 115q-6 6 -9.5 11.5t-3.5 10.5t3.5 10.5t9.5 11.5zM180 439l-115 -115q-2 -2 -3.5 -4.5
t-1.5 -4.5t1.5 -4.5t3.5 -4.5l115 -115q3 -3 5 -4t4 -1q3 0 4.5 1t4.5 4l116 115q1 1 2.5 4t1.5 5t-1.5 4.5t-3.5 4.5l-115 115q-2 2 -4 3.5t-5 1.5q-2 0 -4.5 -1.5t-4.5 -3.5z" />
    <glyph glyph-name="integral" unicode="&#x222b;" horiz-adv-x="379" 
d="M29 314q0 66 46.5 113.5t112.5 47.5t113.5 -47.5t47.5 -113.5t-47.5 -112.5t-113.5 -46.5t-112.5 46.5t-46.5 112.5z" />
    <glyph glyph-name="dollar" unicode="$" horiz-adv-x="478" 
d="M223 0h-40q-7 0 -10.5 4t-2.5 11l8 71q-69 7 -102 35t-33 63v5.5t1 10.5l3 25q1 7 5 10.5t11 3.5h37q6 0 9 -3t2 -11l-2 -22q-1 -7 -1 -9.5v-3.5q0 -25 28.5 -39t80.5 -14q57 0 89.5 16t36.5 46l5 35q1 7 1 10.5v5.5q0 16 -15 27.5t-37 18.5l-144 49q-31 10 -51 33
t-20 54v5.5t1 10.5l5 37q5 41 39.5 72.5t113.5 36.5l9 71q1 7 5 11t12 4h40q7 0 10 -4t2 -11l-9 -72q66 -7 95.5 -35.5t29.5 -63.5v-7t-1 -11l-3 -24q-1 -7 -4.5 -10t-10.5 -3h-37q-7 0 -10 3t-2 10l3 21q1 7 1 11v7q0 22 -24.5 37.5t-78.5 15.5q-56 0 -84 -15t-32 -45
l-3 -24q-1 -7 -1 -9v-3q0 -16 10 -29t33 -20l148 -49q37 -13 56 -34.5t19 -47.5v-8.5t-1 -12.5l-6 -54q-4 -40 -42 -70.5t-118 -36.5l-8 -71q-1 -7 -5 -11t-11 -4z" />
    <glyph glyph-name="cent" unicode="&#xa2;" horiz-adv-x="492" 
d="M252 15q-1 -7 -4.5 -11t-11.5 -4h-40q-7 0 -11 4t-3 11l10 71q-72 6 -102.5 35.5t-30.5 73.5v8t1 11l31 252q6 52 41.5 87t120.5 41l9 71q1 7 5.5 11t11.5 4h40q8 0 11 -4t2 -11l-9 -71q72 -7 102 -36.5t30 -72.5v-7.5t-1 -12.5l-2 -18q-1 -7 -5 -11t-11 -4h-38
q-7 0 -10.5 4t-2.5 11l2 15q1 7 1 10.5v4.5q0 28 -22.5 44.5t-82.5 16.5q-66 0 -92.5 -21t-30.5 -55l-30 -237q-1 -5 -1.5 -11t-0.5 -10q0 -29 23 -45.5t83 -16.5q66 0 91.5 21t31.5 56l4 22q1 8 4.5 11.5t11.5 3.5h37q9 0 11.5 -4t1.5 -11l-4 -27q-7 -51 -41.5 -86.5
t-120.5 -41.5z" />
    <glyph glyph-name="sterling" unicode="&#xa3;" horiz-adv-x="605" 
d="M209 370h154q9 0 11.5 -4t1.5 -10l-3 -30q-1 -8 -5.5 -11.5t-11.5 -3.5h-153l-32 -252h195q36 0 70.5 22t34.5 88v6q0 8 4.5 12t11.5 4h38q7 0 9.5 -4.5t2.5 -11.5v-6q0 -103 -51.5 -136t-109.5 -33h-342q-7 0 -10 4t-2 11l3 30q1 7 5 10.5t11 3.5h59l32 252h-59
q-8 0 -11 4t-2 11l4 30q1 7 5 10.5t11 3.5h58l22 178q7 60 49 100t164 40q105 0 145 -33t40 -83q0 -4 -0.5 -10.5t-1.5 -13.5l-4 -29q-1 -7 -5 -11t-11 -4h-39q-8 0 -11 4.5t-2 11.5l3 17q1 5 1.5 11t0.5 10q0 34 -26 51.5t-95 17.5q-78 0 -105.5 -23.5t-32.5 -66.5z" />
    <glyph glyph-name="currency" unicode="&#xa4;" horiz-adv-x="630" 
d="M215 390l-12 -100q-4 -34 18.5 -54.5t85.5 -20.5t90.5 20.5t31.5 54.5l12 100q4 34 -18.5 54.5t-85.5 20.5t-90.5 -20.5t-31.5 -54.5zM82 94q-6 -6 -11.5 -6t-9.5 5l-15 16q-5 6 -4 11t7 10l102 92q-7 13 -9.5 29.5t-0.5 34.5l13 108q2 19 8.5 35.5t17.5 30.5l-79 90
q-5 6 -4.5 10.5t7.5 10.5l18 16q6 5 11 5t10 -5l81 -93q22 10 51 15.5t66 5.5q38 0 67 -6t48 -16l106 94q6 5 11 5t10 -5l15 -16q4 -5 3.5 -10t-7.5 -11l-102 -91q8 -13 10.5 -29.5t0.5 -35.5l-13 -108q-2 -19 -8.5 -36t-17.5 -30l78 -90q5 -5 4.5 -10t-6.5 -11l-18 -16
q-5 -5 -11 -4.5t-10 5.5l-81 92q-22 -10 -51 -15.5t-66 -5.5q-39 0 -68 6t-48 17z" />
    <glyph glyph-name="yen" unicode="&#xa5;" horiz-adv-x="553" 
d="M277 15q-1 -7 -4 -11t-11 -4h-42q-8 0 -11.5 4t-2.5 11l31 248h-152q-7 0 -10.5 3.5t-2.5 11.5l2 18q1 7 5 10.5t11 3.5h132l-30 76h-92q-7 0 -10.5 4t-2.5 11l2 18q1 7 5 10.5t11 3.5h69l-91 232q-3 7 1.5 11t11.5 4h47q8 0 11.5 -4t5.5 -11l111 -290q3 -7 6 -17.5
t4 -20.5q3 7 8 18t11 20l187 290q4 6 8 10.5t12 4.5h43q8 0 10.5 -4t-1.5 -11l-149 -232h72q7 0 10.5 -3.5t2.5 -10.5l-1 -18q-1 -7 -5.5 -11t-11.5 -4h-97l-49 -76h136q7 0 10.5 -3.5t2.5 -10.5l-2 -18q-1 -8 -5.5 -11.5t-11.5 -3.5h-153z" />
    <glyph glyph-name="Euro" unicode="&#x20ac;" horiz-adv-x="620" 
d="M536 138q-7 -60 -55 -103t-173 -43q-110 0 -153 36.5t-43 88.5q0 5 0.5 11.5t1.5 12.5l14 114h-66q-7 0 -11 3.5t-3 11.5l2 17q1 8 5.5 11.5t11.5 3.5h67l9 76h-67q-7 0 -10.5 3.5t-2.5 11.5l2 18q1 7 5.5 10.5t11.5 3.5h67l14 117q7 60 54.5 103t172.5 43
q110 0 153 -36.5t43 -88.5v-10.5t-1 -13.5l-6 -48q-1 -8 -4.5 -12t-11.5 -4h-41q-7 0 -10 4.5t-2 11.5l5 37q1 8 1 12v7q0 37 -29.5 58.5t-101.5 21.5q-79 0 -113 -26.5t-39 -69.5l-13 -106h134q7 0 11 -3.5t3 -10.5l-2 -18q-1 -8 -5.5 -11.5t-11.5 -3.5h-135l-9 -76h135
q7 0 10 -3.5t2 -11.5l-1 -17q-1 -8 -5 -11.5t-12 -3.5h-135l-12 -102q-1 -6 -1 -11v-9q0 -37 28.5 -58.5t100.5 -21.5q79 0 113.5 26.5t39.5 69.5l6 53q1 7 5 11t12 4h40q8 0 11 -4t2 -11z" />
    <glyph glyph-name="florin" unicode="&#x192;" horiz-adv-x="418" 
d="M64 -79l106 438h-89q-7 0 -10.5 3.5t-2.5 11.5l3 27q1 8 5 11.5t11 3.5h96l39 163q13 57 60 93t149 36h14q7 0 10.5 -3.5t2.5 -11.5l-4 -29q-1 -8 -5 -11.5t-11 -3.5h-12q-66 0 -96 -21t-39 -56l-39 -156h96q7 0 10.5 -3.5t2.5 -11.5l-3 -27q-1 -8 -5 -11.5t-11 -3.5
h-103l-107 -445q-13 -57 -60.5 -93t-148.5 -36h-13q-7 0 -10 3.5t-2 11.5l3 29q1 7 5 11t11 4h11q67 0 97.5 21t38.5 56z" />
    <glyph glyph-name="asciicircum" unicode="^" horiz-adv-x="492" 
d="M383 314l-129 296l-128 -296q-3 -7 -6.5 -11.5t-10.5 -4.5h-40q-7 0 -11 4.5t-1 11.5l158 352q3 6 6.5 10t10.5 4h45q7 0 10 -4t6 -10l159 -352q3 -7 -1 -11.5t-11 -4.5h-40q-7 0 -10.5 4.5t-6.5 11.5z" />
    <glyph glyph-name="asciitilde" unicode="~" horiz-adv-x="474" 
d="M400 324l-2 -27q-4 -49 -23.5 -67.5t-44.5 -18.5q-10 0 -25.5 4t-29.5 11l-88 45q-7 4 -17.5 8.5t-17.5 4.5q-17 0 -22 -9t-6 -32l-1 -15q-1 -7 -5 -10t-11 -3h-21q-7 0 -10.5 4.5t-2.5 11.5l2 28q3 47 24 66.5t47 19.5q12 0 25 -4.5t23 -9.5l87 -45q9 -4 21 -9.5
t21 -5.5q17 0 21 10t5 33l1 14q1 7 4.5 10t10.5 3h23q7 0 10 -4t2 -13z" />
    <glyph glyph-name="acute" unicode="&#xb4;" horiz-adv-x="331" 
d="M323 693l-93 -116q-2 -3 -7 -6t-12 -3h-35q-6 0 -8 3.5t3 10.5l80 112q4 6 9 10t12 4h45q8 0 9.5 -4.5t-3.5 -10.5z" />
    <glyph glyph-name="grave" unicode="`" horiz-adv-x="331" 
d="M244 577l-65 116q-3 6 -0.5 10.5t10.5 4.5h42q8 0 11.5 -4t6.5 -10l53 -112q3 -7 0.5 -10.5t-9.5 -3.5h-32q-7 0 -11 2.5t-6 6.5z" />
    <glyph glyph-name="hungarumlaut" unicode="&#x2dd;" horiz-adv-x="367" 
d="M271 693l-76 -111q-4 -7 -9 -10.5t-12 -3.5h-31q-7 0 -9 4t2 10l68 111q4 7 9.5 11t12.5 4h37q8 0 10 -4.5t-2 -10.5zM386 693l-91 -112q-4 -5 -9.5 -9t-12.5 -4h-31q-7 0 -8 3.5t3 10.5l82 111q5 7 11.5 11t13.5 4h37q8 0 9 -4.5t-4 -10.5z" />
    <glyph glyph-name="circumflex" unicode="&#x2c6;" horiz-adv-x="347" 
d="M255 664l-63 -82q-4 -5 -9.5 -9.5t-12.5 -4.5h-33q-7 0 -8.5 4t2.5 10l90 111q5 6 11.5 10.5t13.5 4.5h26q8 0 12.5 -4t8.5 -10l64 -112q4 -6 1 -10t-10 -4h-31q-7 0 -12 4t-8 10z" />
    <glyph glyph-name="caron" unicode="&#x2c7;" horiz-adv-x="347" 
d="M206 693l43 -82l63 82q4 6 9.5 10.5t12.5 4.5h33q7 0 9 -4.5t-3 -10.5l-91 -111q-5 -6 -11 -10t-14 -4h-25q-7 0 -12.5 4t-9.5 11l-63 110q-4 6 -1 10.5t11 4.5h31q7 0 11 -5t7 -10z" />
    <glyph glyph-name="breve" unicode="&#x2d8;" horiz-adv-x="399" 
d="M188 683l-2 -22q-1 -7 -1 -10v-4q0 -22 13.5 -35.5t48.5 -13.5q43 0 57.5 20.5t16.5 51.5l1 13q1 7 4.5 10t11.5 3h25q7 0 9.5 -3t1.5 -10l-1 -12q-4 -54 -32 -85.5t-97 -31.5q-55 0 -83 23t-28 66v7.5t1 11.5l2 21q1 7 4.5 10t10.5 3h25q7 0 10 -3t2 -10z" />
    <glyph glyph-name="tilde" unicode="&#x2dc;" horiz-adv-x="422" 
d="M222 643q-16 0 -21.5 -9.5t-9.5 -31.5l-3 -14q-1 -8 -5.5 -11t-11.5 -3h-21q-7 0 -9.5 5t-1.5 12l5 25q8 43 28.5 62t50.5 19q13 0 27.5 -5t27.5 -15l41 -33q8 -7 16.5 -11.5t15.5 -4.5q16 0 22.5 9.5t9.5 37.5l1 9q1 7 5.5 10t11.5 3h22q8 0 10.5 -4.5t1.5 -11.5l-4 -25
q-7 -44 -30 -62t-51 -18q-17 0 -30.5 5t-25.5 15l-41 33q-8 7 -16 10.5t-15 3.5z" />
    <glyph glyph-name="macron" unicode="&#xaf;" horiz-adv-x="416" 
d="M163 651h250q8 0 11.5 -3t2.5 -10l-3 -26q-1 -8 -5.5 -11.5t-11.5 -3.5h-251q-7 0 -10.5 3.5t-2.5 11.5l3 25q1 7 5 10.5t12 3.5z" />
    <glyph glyph-name="dieresis" unicode="&#xa8;" horiz-adv-x="324" 
d="M326 688l-11 -97q-1 -7 -5 -10.5t-12 -3.5h-24q-8 0 -11 3.5t-2 10.5l12 97q1 7 5 11t11 4h25q8 0 10.5 -4t1.5 -11zM219 688l-12 -97q-1 -7 -4.5 -10.5t-11.5 -3.5h-24q-8 0 -11 3.5t-2 10.5l12 97q1 7 5 11t11 4h25q7 0 10 -4t2 -11z" />
    <glyph glyph-name="dotaccent" unicode="&#x2d9;" horiz-adv-x="240" 
d="M239 675l-9 -77q-1 -8 -5 -11.5t-11 -3.5h-42q-7 0 -10.5 3.5t-2.5 11.5l10 77q1 7 4.5 11t11.5 4h42q7 0 10 -3.5t2 -11.5z" />
    <glyph glyph-name="ring" unicode="&#x2da;" horiz-adv-x="342" 
d="M336 646l-2 -26q-2 -29 -25.5 -47.5t-71.5 -18.5t-69.5 17.5t-18.5 54.5l2 26q2 29 26.5 48.5t73.5 19.5q47 0 67.5 -19.5t17.5 -54.5zM294 627l1 20q1 15 -9 25.5t-39 10.5q-28 0 -41.5 -10.5t-14.5 -26.5l-1 -15q-1 -22 9 -31.5t38 -9.5t42 10t15 27z" />
    <glyph glyph-name="cedilla" unicode="&#xb8;" horiz-adv-x="185" 
d="M85 -53h36q28 0 51 -16.5t23 -53.5q0 -49 -29 -68.5t-64 -19.5h-116q-9 0 -11 4.5t-1 10.5l2 15q1 7 4.5 10.5t10.5 3.5h106q17 0 32 7.5t15 32.5q0 18 -12.5 24t-25.5 6h-61q-10 0 -16 4.5t-2 14.5l33 83q3 7 7.5 10.5t10.5 2.5l20 -3q7 -1 8 -7t-1 -11z" />
    <glyph glyph-name="ogonek" unicode="&#x2db;" horiz-adv-x="226" 
d="M160 -165h-52q-35 0 -59 17.5t-24 51.5q0 20 12.5 53t61.5 67q4 3 9.5 6t12.5 -1l21 -12q5 -3 6.5 -8t-3.5 -9q-38 -27 -48.5 -45.5t-10.5 -35.5q0 -15 11.5 -22.5t30.5 -7.5h38q5 0 10 -3t4 -11l-4 -25q-1 -7 -5 -11t-11 -4z" />
    <glyph glyph-name="copyright" unicode="&#xa9;" horiz-adv-x="712" 
d="M636 509v-338q0 -34 -10 -66.5t-39.5 -57.5t-83.5 -40t-141 -15t-141 15t-83 40t-39 57.5t-10 66.5v338q0 34 10 66.5t39 57.5t83 40t141 15t141 -15t83.5 -40t39.5 -57.5t10 -66.5zM583 163v355q0 53 -46.5 88.5t-174.5 35.5q-127 0 -174 -35.5t-47 -89.5v-354
q0 -54 47 -89t174 -35q128 0 174.5 35t46.5 89zM363 550q87 0 115.5 -34t28.5 -91v-15q0 -8 -3.5 -11.5t-11.5 -3.5h-33q-8 0 -11.5 3.5t-3.5 11.5v14q0 34 -15 55t-66 21q-52 0 -67 -21t-15 -55v-168q0 -35 15 -56t67 -21q51 0 66 21t15 56v21q0 8 3.5 12t11.5 4h33
q8 0 11.5 -4t3.5 -12v-23q0 -57 -28.5 -91t-115.5 -34t-116 34t-29 91v171q0 57 29 91t116 34z" />
    <glyph glyph-name="registered" unicode="&#xae;" horiz-adv-x="592" 
d="M537 550v-179q0 -22 -7.5 -46t-30.5 -44.5t-66.5 -34t-115.5 -13.5t-116 13.5t-67.5 34t-31 44.5t-7.5 46v179q0 22 7.5 46t31 44.5t67.5 34t116 13.5t115.5 -13.5t66.5 -34t30.5 -44.5t7.5 -46zM489 366v188q0 32 -32.5 61t-139.5 29t-140 -29t-33 -61v-187
q0 -32 33 -61.5t140 -29.5t139.5 29.5t32.5 60.5zM323 553h-55v-95h55q27 0 40.5 11.5t13.5 26.5v18q0 16 -13 27.5t-41 11.5zM268 335q0 -5 -2 -8t-8 -3h-29q-5 0 -7.5 3t-2.5 8v245q0 5 2.5 8t7.5 3h99q60 0 79.5 -24t19.5 -50v-23q0 -19 -10 -37.5t-38 -28.5l38 -93
q2 -4 -0.5 -7.5t-9.5 -3.5h-29q-5 0 -8 3t-5 8l-36 86h-61v-86z" />
    <glyph glyph-name="trademark" unicode="&#x2122;" horiz-adv-x="829" 
d="M95 680h271q6 0 9 -2.5t2 -9.5l-3 -26q-1 -7 -4.5 -9.5t-9.5 -2.5h-106l-43 -346q-1 -6 -3.5 -9t-9.5 -3h-36q-6 0 -9 3t-2 9l43 346h-105q-7 0 -10 2.5t-2 9.5l3 26q1 7 4.5 9.5t10.5 2.5zM794 668l-47 -384q-1 -6 -3.5 -9t-9.5 -3h-34q-7 0 -9.5 3t-1.5 9l35 283
q-1 -4 -5.5 -13t-7.5 -14l-112 -194q-3 -5 -7 -8.5t-11 -3.5h-25q-7 0 -10.5 3.5t-4.5 8.5l-67 196q-1 5 -3 11.5t-3 15.5l-35 -285q-1 -6 -3.5 -9t-8.5 -3h-33q-6 0 -8.5 3t-1.5 9l47 384q1 6 4 9t9 3h32q4 0 6.5 -2t3.5 -6l88 -246q2 -6 4 -13t3 -14q2 4 6.5 12t8.5 14
l146 248q1 3 5 5t8 2h35q7 0 9 -3t1 -9z" />
    <glyph glyph-name="degree" unicode="&#xb0;" horiz-adv-x="400" 
d="M86 501l11 91q5 43 36 69t113 26q58 0 93.5 -19.5t35.5 -62.5v-8t-1 -11l-11 -91q-5 -43 -36 -69t-113 -26q-70 0 -99.5 22t-29.5 59v9.5t1 10.5zM303 498l11 86q1 4 1 7v4q0 25 -21.5 34.5t-52.5 9.5q-43 0 -62 -13.5t-22 -35.5l-11 -88q-1 -4 -1 -7.5v-4.5
q0 -19 17.5 -30.5t56.5 -11.5q43 0 62 13.5t22 36.5z" />
    <glyph glyph-name="estimated" unicode="&#x212e;" horiz-adv-x="799" 
d="M763 340q0 -8 -4.5 -12t-11.5 -4h-577v-188q42 -54 106 -87t140 -33q83 0 141.5 31.5t103.5 80.5q2 2 4.5 3.5t5.5 1.5q4 0 7 -3t3 -8q0 -4 -2 -7.5t-5 -7.5q-45 -52 -113.5 -83.5t-144.5 -31.5q-72 0 -135.5 26.5t-110.5 73t-74.5 110.5t-27.5 138q0 72 27.5 135.5
t74.5 110.5t110.5 74.5t135.5 27.5q71 0 134.5 -27.5t110.5 -74.5t74.5 -110.5t27.5 -135.5zM416 663q-75 0 -139 -33.5t-107 -87.5v-196h492v194q-43 54 -107 88.5t-139 34.5z" />
    <glyph glyph-name="lozenge" unicode="&#x25ca;" horiz-adv-x="379" 
d="M59 331l115 115q4 4 7.5 5.5t7.5 1.5t8 -1.5t8 -5.5l115 -115q4 -4 5.5 -8t1.5 -8t-1.5 -7.5t-5.5 -7.5l-115 -115q-4 -4 -8 -6.5t-8 -2.5t-7.5 2.5t-7.5 6.5l-115 115q-4 4 -6 7.5t-2 7.5t2 8t6 8z" />
    <glyph glyph-name="uni00AD" unicode="&#xad;" horiz-adv-x="440" 
d="M85 318h269q7 0 10.5 -3.5t3.5 -10.5v-29q0 -8 -3.5 -11.5t-10.5 -3.5h-269q-7 0 -10.5 3.5t-3.5 11.5v29q0 7 3.5 10.5t10.5 3.5z" />
    <glyph glyph-name="commaaccent" unicode="&#xf6c3;" horiz-adv-x="226" 
d="M93 65l4 27q1 7 5.5 11t11.5 4h30q8 0 10.5 -4t1.5 -11l-3 -31q-4 -38 -19 -65t-34 -52q-4 -7 -9 -8t-11 0l-23 6q-7 1 -8 6.5t3 12.5q18 31 27 50.5t14 53.5z" />
    <glyph glyph-name=".null" horiz-adv-x="0" 
 />
    <glyph glyph-name="CR" horiz-adv-x="0" 
 />
    <glyph glyph-name="apple" horiz-adv-x="1486" 
d="M72 529v8h1338v-8h-1338zM1216 332l-29 -2v4q0 5 2 12.5t10 7.5h17l-3 30q2 1 12.5 4.5t19.5 3.5q4 0 7.5 -2t3.5 -6v-29h47v-3q0 -6 -2 -13.5t-10 -7.5h-35v-90q0 -6 3 -10.5t13 -4.5q18 0 38.5 5.5t46.5 5.5q10 0 36 -5t26 -19q0 -16 -11 -22t-16 -6q-7 0 -26.5 12
t-44.5 12q-13 0 -32 -4t-44 -4t-26 22.5t-3 108.5zM1175 258q-12 -4 -24 -5t-20 -1q1 -10 8.5 -16t17.5 -6q9 0 17 2.5t15 6.5q4 -3 6 -7.5t2 -8.5t-8 -13.5t-39 -9.5q-28 0 -44 15t-16 38q0 25 17.5 46.5t51.5 21.5q21 0 31 -10.5t10 -20.5q0 -12 -6 -20t-19 -12zM852 258
q-12 -4 -24 -5t-20 -1q1 -10 8.5 -16t17.5 -6q9 0 17 2.5t15 6.5q4 -3 6 -7.5t2 -8.5t-8 -13.5t-39 -9.5q-28 0 -44 15t-16 38q0 25 17.5 46.5t51.5 21.5q21 0 31 -10.5t10 -20.5q0 -12 -6 -20t-19 -12zM153 258q-12 -4 -24 -5t-20 -1q1 -10 8.5 -16t17.5 -6q9 0 17 2.5
t15 6.5q4 -3 6 -7.5t2 -8.5t-8 -13.5t-39 -9.5q-28 0 -44 15t-16 38q0 25 17.5 46.5t51.5 21.5q21 0 31 -10.5t10 -20.5q0 -12 -6 -20t-19 -12zM1074 289v-49l2 -32q-2 -1 -12.5 -4.5t-18.5 -3.5q-4 0 -7.5 2t-3.5 6v67q0 3 -1 9t-7 6q-7 0 -16.5 -17.5t-9.5 -30.5l3 -34
q-2 -1 -12.5 -4.5t-19.5 -3.5q-4 0 -7.5 2t-3.5 6v69l-3 36q2 1 12.5 4.5t19.5 3.5q4 0 7.5 -2.5t3.5 -6.5v-40q4 10 15 29.5t30 19.5q16 0 22.5 -9.5t6.5 -22.5zM383 289v-49l3 -32q-2 -1 -12.5 -4.5t-18.5 -3.5q-4 0 -7.5 2t-3.5 6v66q0 4 -1 10t-7 6q-7 0 -17 -17.5
t-9 -30.5l2 -34q-2 -1 -12.5 -4.5t-18.5 -3.5q-4 0 -7.5 2t-3.5 6v66q0 4 -1 10t-7 6q-7 0 -16.5 -17.5t-9.5 -30.5l3 -34q-2 -1 -12.5 -4.5t-19.5 -3.5q-4 0 -7.5 2t-3.5 6v69l-3 36q2 1 12.5 4.5t19.5 3.5q4 0 7.5 -2.5t3.5 -6.5v-40q3 10 14.5 29.5t30.5 19.5
q16 0 22.5 -9.5t6.5 -22.5v-17q3 10 14 29.5t31 19.5q16 0 22 -9.5t6 -22.5zM807 264q13 0 25 5t12 16q0 3 -2 8t-11 5q-10 0 -16.5 -11t-7.5 -23zM1130 264q13 0 25 5t12 16q0 3 -2 8t-11 5q-10 0 -16.5 -11t-7.5 -23zM108 264q13 0 25 5t12 16q0 3 -2 8t-11 5
q-10 0 -16.5 -11t-7.5 -23zM667 219q16 2 30.5 12.5t14.5 38.5q0 7 -3 13.5t-10 6.5q-14 0 -23 -20.5t-9 -27.5v-23zM917 250q10 0 18 -7t8 -17t-8 -16.5t-18 -6.5t-17.5 6.5t-7.5 16.5t7.5 17t17.5 7zM714 320q16 0 28 -13t12 -38q0 -29 -20.5 -48.5t-66.5 -19.5v-40l3 -32
q-2 -1 -12.5 -4.5t-19.5 -3.5q-4 0 -7.5 2t-3.5 6v75l-25 -3v-3q0 -28 -14 -53.5t-54 -25.5q-23 0 -32 11.5t-9 22.5q0 25 24 36.5t46 16.5v42q-4 -10 -15 -29t-31 -19q-16 0 -22 9t-6 22v3q-6 -10 -18.5 -21.5t-34.5 -11.5q-13 0 -21 8.5t-8 21.5v101l-29 -2v4q0 5 2 12.5
t10 7.5h17l-3 30q2 1 12.5 4.5t19.5 3.5q4 0 7.5 -2t3.5 -6v-29h47v-3q0 -6 -2 -13.5t-10 -7.5h-35v-86q0 -6 2.5 -11t10.5 -5t18.5 7.5t10.5 18.5v25l-3 33q2 1 12.5 4.5t19.5 3.5q4 0 7.5 -2.5t3.5 -6.5v-66q0 -4 1 -9.5t6 -5.5q7 0 16.5 17.5t9.5 30.5l-2 34
q2 1 12.5 4.5t18.5 3.5q4 0 7.5 -2.5t3.5 -6.5v-99l25 3v61l-3 36q2 1 12.5 4.5t19.5 3.5q4 0 7.5 -2.5t3.5 -6.5v-40q4 10 15 29t32 19zM562 194q-10 -2 -25.5 -9.5t-15.5 -22.5q0 -7 4.5 -10.5t9.5 -3.5q16 0 21 15.5t6 30.5zM72 0v8h1338v-8h-1338z" />
    <glyph glyph-name="ff" unicode="&#xfb00;" horiz-adv-x="609" 
d="M46 451l2 23q1 7 5 10.5t12 4.5l54 3h8l11 83q7 57 52 92.5t149 35.5h8q7 0 10.5 -3.5t2.5 -11.5l-4 -28q-1 -8 -5 -11t-12 -3h-6q-66 0 -94 -21.5t-32 -56.5l-10 -76h224l10 83q7 57 52 92.5t150 35.5h7q7 0 10.5 -3.5t2.5 -11.5l-3 -28q-1 -8 -5.5 -11t-11.5 -3h-6
q-66 0 -94 -21.5t-32 -56.5l-10 -76h109q7 0 10.5 -3.5t2.5 -10.5l-3 -27q-1 -7 -5.5 -11t-11.5 -4h-109l-77 -628q-1 -7 -5 -10.5t-11 -3.5h-41q-7 0 -10.5 3.5t-2.5 10.5l78 628h-224l-78 -628q-1 -7 -5 -10.5t-11 -3.5h-40q-8 0 -11 3.5t-2 10.5l78 628h-63q-8 0 -11 4
t-2 11z" />
    <glyph glyph-name="ffi" unicode="&#xfb03;" horiz-adv-x="837" 
d="M46 451l2 23q1 7 5 10.5t12 4.5l54 3h8l11 83q7 57 52 92.5t149 35.5h8q7 0 10.5 -3.5t2.5 -11.5l-4 -28q-1 -8 -5 -11t-12 -3h-6q-66 0 -94 -21.5t-32 -56.5l-10 -76h225l9 79q7 57 51.5 92.5t147.5 35.5h146q7 0 10.5 -3.5t2.5 -11.5l-4 -28q-1 -7 -5 -10.5t-11 -3.5
h-142q-67 0 -94 -21.5t-32 -56.5l-10 -72h279q8 0 11 -3.5t2 -11.5l-57 -462q-1 -7 -4.5 -11t-10.5 -4h-41q-7 0 -10.5 4t-2.5 11l52 421h-225l-77 -628q-1 -7 -4.5 -10.5t-11.5 -3.5h-40q-7 0 -11 3.5t-3 10.5l78 628h-224l-78 -628q-1 -7 -5 -10.5t-11 -3.5h-40
q-8 0 -11 3.5t-2 10.5l78 628h-63q-8 0 -11 4t-2 11z" />
    <glyph glyph-name="ffl" unicode="&#xfb04;" horiz-adv-x="837" 
d="M809 684l-83 -669q-1 -7 -4.5 -11t-10.5 -4h-41q-7 0 -10.5 4t-2.5 11l77 627h-107q-67 0 -94 -21.5t-32 -56.5l-10 -72h109q7 0 10.5 -3.5t2.5 -10.5l-4 -27q-1 -7 -5 -11t-11 -4h-109l-77 -628q-1 -7 -4.5 -10.5t-11.5 -3.5h-40q-7 0 -11 3.5t-3 10.5l78 628h-225
l-77 -628q-1 -7 -5 -10.5t-12 -3.5h-40q-7 0 -10.5 3.5t-2.5 10.5l78 628h-63q-7 0 -10.5 4t-2.5 11l3 23q1 7 5 10.5t11 4.5l54 3h9l11 83q7 57 51.5 92.5t148.5 35.5h8q8 0 11 -3.5t2 -11.5l-3 -28q-1 -8 -5.5 -11t-11.5 -3h-6q-66 0 -94.5 -21.5t-32.5 -56.5l-10 -76h226
l9 79q7 57 51 92.5t148 35.5h165q8 0 11.5 -3.5t2.5 -11.5z" />
    <glyph glyph-name="cent.numerator" unicode="&#xf62e;" horiz-adv-x="300" 
d="M184 317q-1 -6 -3.5 -8.5t-8.5 -2.5h-33q-5 0 -8 2.5t-2 8.5l5 36q-40 4 -58 21.5t-18 42.5v3t1 8l17 130q4 30 24.5 50t68.5 24l5 37q1 5 4 7.5t8 2.5h33q7 0 9 -2.5t1 -7.5l-5 -38q38 -4 55 -21.5t17 -39.5v-4t-1 -9l-1 -9q-1 -6 -3.5 -8t-8.5 -2h-31q-5 0 -8 2.5
t-2 7.5l1 5q1 4 1 6v3q0 13 -12 20.5t-40 7.5q-32 0 -45 -9.5t-15 -26.5l-15 -117q-1 -5 -1 -7.5v-4.5q0 -14 11.5 -21.5t39.5 -7.5q31 0 45 9.5t15 26.5l1 10q1 6 4 8.5t8 2.5h32q6 0 8 -3.5t1 -7.5l-2 -15q-4 -29 -23.5 -49t-65.5 -25z" />
    <glyph glyph-name="dollar.numerator" unicode="&#xf62f;" horiz-adv-x="295" 
d="M168 306h-32q-7 0 -9 2.5t-1 8.5l4 36q-40 5 -58.5 22.5t-16.5 43.5l1 12q1 5 4 7.5t8 2.5h31q5 0 7 -2.5t1 -6.5l-1 -11q-1 -16 13 -23t41 -7t43 7t18 21l3 19q1 10 -6 16t-20 10l-82 27q-16 5 -27.5 18.5t-10.5 33.5l2 25q2 22 21 41t65 23l5 37q1 5 4 7.5t8 2.5h33
q7 0 9 -2.5t1 -7.5l-5 -38q34 -6 51.5 -23t15.5 -38l-2 -17q-1 -5 -4 -7.5t-8 -2.5h-31q-4 0 -7 2.5t-2 6.5l2 15q1 13 -10 20.5t-39 7.5q-26 0 -40.5 -6.5t-15.5 -20.5l-2 -17q-1 -10 5 -15t16 -8l81 -26q24 -7 35.5 -21.5t9.5 -33.5l-4 -32q-2 -22 -22.5 -39.5
t-64.5 -22.5l-5 -36q-1 -6 -3.5 -8.5t-8.5 -2.5z" />
    <glyph glyph-name="hyphen.numerator" unicode="&#xf630;" horiz-adv-x="274" 
d="M82 487h152q6 0 9 -2.5t3 -8.5v-23q0 -6 -3 -8t-9 -2h-152q-6 0 -9 2t-3 8v23q0 6 3 8.5t9 2.5z" />
    <glyph glyph-name="parenleft.numerator" unicode="&#xf631;" horiz-adv-x="207" 
d="M51 320l45 352q5 38 30.5 57t85.5 19h11q5 0 8 -2t2 -9l-2 -23q-1 -6 -4 -8.5t-9 -2.5h-4q-32 0 -45.5 -10t-15.5 -26l-44 -338q-1 -4 -1 -9v-6q0 -14 12 -22t40 -8h4q5 0 8 -2t2 -9l-2 -23q-1 -6 -4.5 -8.5t-8.5 -2.5h-4q-52 0 -78.5 18.5t-26.5 49.5v4t1 9z" />
    </font>
</defs>
</svg>
